<svg width="18" height="20" viewBox="0 0 18 20" fill="none" xmlns="http://www.w3.org/2000/svg">
<path fill-rule="evenodd" clip-rule="evenodd" d="M6.04037 9.29164L6.04733 10.7204L11.3815 10.722L11.3877 9.32986C11.4049 9.25693 12.5827 8.38939 12.676 8.31425C12.8041 8.21099 12.8814 8.20735 12.9313 8.00747C12.9704 7.8507 12.99 7.65757 13.015 7.5015C13.0669 7.17686 13.1181 6.83497 13.1714 6.50904C13.2795 5.84745 13.3854 5.17966 13.4864 4.52465C13.5878 3.86707 13.7233 3.18152 13.8012 2.52588L11.987 2.52576C11.7442 3.90748 11.5288 5.25035 11.2847 6.63148C11.1917 7.158 11.213 7.10347 10.844 7.38454L9.84288 8.16451C9.73959 8.25119 9.58739 8.32493 9.55666 8.48549C9.46789 8.94954 9.39469 8.88458 8.73038 8.88458C8.15733 8.88458 7.97778 8.96773 7.90225 8.51164C7.86916 8.31189 7.76222 8.28582 7.63904 8.18852L7.12885 7.79655C7.05602 7.73751 7.0273 7.71447 6.96371 7.66879L6.28291 7.13215C6.18392 7.00798 6.18439 6.81733 6.15568 6.65126C5.91731 5.27277 5.68615 3.915 5.44655 2.53338L3.65919 2.52533C3.65764 2.68231 3.91354 4.20277 3.9578 4.49448L4.49277 7.95251C4.5309 8.18029 4.58931 8.1879 4.73345 8.29767L6.04037 9.29164Z" fill="#007ABE"/>
<path fill-rule="evenodd" clip-rule="evenodd" d="M1.19864 0.0328442C1.02529 0.0676442 0.91974 0.111099 0.802364 0.206588C0.699294 0.29043 0.598218 0.400813 0.539025 0.530271C0.42565 0.778243 0.397409 1.28715 0.510272 1.56095C0.816568 2.30406 1.53167 2.14658 2.28063 2.14658H15.1571C15.8286 2.14658 16.6602 2.31537 16.9646 1.6211C17.0829 1.35125 17.0962 0.880866 16.9871 0.598938C16.8889 0.345149 16.6566 0.118975 16.3684 0.0433916C16.1226 -0.021056 15.5241 0.00896243 15.2248 0.00896243C10.9326 0.00896243 6.64044 0.00896243 2.34829 0.00896243C2.031 0.00896243 1.47495 -0.0226413 1.19864 0.0328442Z" fill="#007ABE"/>
<path fill-rule="evenodd" clip-rule="evenodd" d="M6.19814 3.33107L11.2813 3.33681L11.5157 2.51412L5.99316 2.51224L6.19814 3.33107Z" fill="#007ABE"/>
<path fill-rule="evenodd" clip-rule="evenodd" d="M9.3311 3.56183L8.16985 3.55316C8.16634 3.82117 8.14929 6.56625 8.17536 6.72852C8.2209 7.01188 8.43914 7.2239 8.75271 7.22044C9.5118 7.21206 9.33171 6.2551 9.33171 5.67657C9.33171 4.97275 9.33892 4.26517 9.3311 3.56183Z" fill="#007ABE"/>
<path fill-rule="evenodd" clip-rule="evenodd" d="M5.11475 11.6977L12.3577 11.6975L12.3608 11.1583L5.11677 11.1562L5.11475 11.6977Z" fill="#007ABE"/>
<path fill-rule="evenodd" clip-rule="evenodd" d="M15.8831 15.3471C15.0213 15.5712 15.2144 16.8496 16.1148 16.6674C16.3792 16.6138 16.7417 16.2862 16.6639 15.8729C16.6042 15.5556 16.2793 15.2441 15.8831 15.3471Z" fill="#007ABE"/>
<path fill-rule="evenodd" clip-rule="evenodd" d="M3.86397 17.8253C2.98597 18.0159 3.31054 19.3041 4.18089 19.1246C5.04162 18.9471 4.74044 17.6351 3.86397 17.8253Z" fill="#007ABE"/>
<path fill-rule="evenodd" clip-rule="evenodd" d="M0.474768 17.8233C0.17755 17.9099 -0.0979091 18.2611 0.0338116 18.6563C0.131589 18.9498 0.483488 19.2326 0.890629 19.1258C1.30334 19.0175 1.64089 18.3109 1.02112 17.9186C0.859358 17.8163 0.691418 17.7602 0.474768 17.8233Z" fill="#007ABE"/>
<path fill-rule="evenodd" clip-rule="evenodd" d="M4.64446 15.3644C4.3029 15.4449 4.05003 15.7361 4.14761 16.1702C4.21778 16.4822 4.58891 16.744 4.9682 16.6614C5.84011 16.4714 5.49504 15.1638 4.64446 15.3644Z" fill="#007ABE"/>
<path fill-rule="evenodd" clip-rule="evenodd" d="M3.20591 12.8868C2.78315 12.9706 2.59093 13.3344 2.67278 13.6972C2.77053 14.1306 3.44418 14.4763 3.89328 13.9417C4.2495 13.5177 3.78291 12.7725 3.20591 12.8868Z" fill="#007ABE"/>
<path fill-rule="evenodd" clip-rule="evenodd" d="M5.40114 12.9143C5.20769 12.9709 5.10557 13.0524 5.02239 13.1992C4.73339 13.7092 5.18551 14.3543 5.81123 14.1919C6.11299 14.1136 6.39812 13.7496 6.24608 13.3459C6.14221 13.0701 5.81594 12.7929 5.40114 12.9143Z" fill="#007ABE"/>
<path fill-rule="evenodd" clip-rule="evenodd" d="M17.2957 17.7991C16.403 17.9394 16.4702 19.218 17.3881 19.1364C17.7422 19.105 18.0126 18.7541 17.9997 18.4189C17.9859 18.059 17.6646 17.7411 17.2957 17.7991Z" fill="#007ABE"/>
<path fill-rule="evenodd" clip-rule="evenodd" d="M1.88406 15.3501C1.46641 15.4285 1.28583 15.7978 1.35535 16.1411C1.41711 16.4462 1.78228 16.7426 2.16468 16.6762C2.50912 16.6164 2.75044 16.2771 2.66436 15.8666C2.60082 15.5635 2.23987 15.2833 1.88406 15.3501Z" fill="#007ABE"/>
<path fill-rule="evenodd" clip-rule="evenodd" d="M14.5993 12.9128C13.726 13.0488 13.875 14.3673 14.7594 14.2305C15.5906 14.102 15.5208 12.7691 14.5993 12.9128Z" fill="#007ABE"/>
<path fill-rule="evenodd" clip-rule="evenodd" d="M12.3189 12.9103C12.0426 12.9693 12.0472 12.9923 11.8894 13.1433C11.4857 13.5299 11.8735 14.3318 12.492 14.198C13.4849 13.9832 13.1116 12.7411 12.3189 12.9103Z" fill="#007ABE"/>
<path fill-rule="evenodd" clip-rule="evenodd" d="M13.8299 17.8254C12.9269 18.0912 13.3331 19.3419 14.168 19.0751C15.0855 18.7818 14.6155 17.5942 13.8299 17.8254Z" fill="#007ABE"/>
<path fill-rule="evenodd" clip-rule="evenodd" d="M7.37149 15.386C6.56942 15.6485 6.91565 16.8714 7.80928 16.6175C8.10936 16.5322 8.35968 16.2012 8.24197 15.7924C8.15257 15.482 7.77329 15.2545 7.37149 15.386Z" fill="#007ABE"/>
<path fill-rule="evenodd" clip-rule="evenodd" d="M10.1884 15.3839C9.39045 15.6126 9.67207 16.8337 10.5685 16.6267C11.4128 16.4318 11.1072 15.1204 10.1884 15.3839Z" fill="#007ABE"/>
<path fill-rule="evenodd" clip-rule="evenodd" d="M10.0608 14.2004H10.2412C10.5453 14.2004 10.841 13.8516 10.8155 13.534C10.7462 12.6709 9.48877 12.7489 9.46518 13.5236C9.45407 13.8885 9.71845 14.2004 10.0608 14.2004Z" fill="#007ABE"/>
<path fill-rule="evenodd" clip-rule="evenodd" d="M10.4513 17.8523C9.61495 18.1429 10.0171 19.3254 10.8807 19.0803C11.1887 18.9929 11.4314 18.6699 11.3138 18.2708C11.2243 17.9669 10.8677 17.7076 10.4513 17.8523Z" fill="#007ABE"/>
<path fill-rule="evenodd" clip-rule="evenodd" d="M13.1181 15.3506C12.1354 15.6285 12.5763 16.7954 13.3305 16.6357C13.6708 16.5636 13.9383 16.2985 13.8835 15.8782C13.8411 15.552 13.5144 15.2386 13.1181 15.3506Z" fill="#007ABE"/>
<path fill-rule="evenodd" clip-rule="evenodd" d="M7.13078 17.8499C6.32241 18.0817 6.6364 19.3245 7.54274 19.082C7.85354 18.9988 8.1098 18.6577 7.98181 18.2638C7.87796 17.9442 7.54654 17.7307 7.13078 17.8499Z" fill="#007ABE"/>
<path fill-rule="evenodd" clip-rule="evenodd" d="M7.71966 12.9115C7.39333 12.9742 7.11026 13.2923 7.21582 13.6831C7.30321 14.0067 7.61168 14.2405 8.04659 14.1463C8.85113 13.9721 8.61645 12.7393 7.71966 12.9115Z" fill="#007ABE"/>
</svg>
