<svg width="26" height="15" viewBox="0 0 26 15" fill="none" xmlns="http://www.w3.org/2000/svg">
<path fill-rule="evenodd" clip-rule="evenodd" d="M4.99542 13.1048C4.92579 13.192 4.96907 13.155 4.81938 13.1663C4.28908 13.2063 1.19112 13.1639 1.08103 13.1416L1.06625 1.11045L4.85901 1.08878C5.09903 1.10167 4.92849 1.09578 4.99542 1.14724C5.22993 1.33955 5.50957 1.65391 5.74015 1.88779C5.90607 2.0561 6.33942 2.55854 6.52132 2.62152L8.00805 1.1503C8.05878 1.11112 8.01046 1.1211 8.10182 1.10003L22.8033 1.0924C23.3285 1.0924 24.4658 1.03063 24.9192 1.11101L24.9359 13.1429C24.5179 13.219 10.6722 13.1591 8.52459 13.1626C8.4394 13.1627 8.35128 13.166 8.26703 13.1655C7.96165 13.1639 8.04763 13.1356 8.00592 13.1035L6.5292 11.6225C6.29209 11.7111 5.25733 12.89 4.99542 13.1048ZM0 13.5406C0 14.4021 0.670853 14.2397 1.40655 14.2397C1.87623 14.2397 5.29373 14.2928 5.45732 14.1903C5.66258 14.0617 6.26432 13.2655 6.52132 13.1791C6.7368 13.3387 7.02103 13.6625 7.2222 13.8665C7.60764 14.2574 7.44945 14.2402 8.1836 14.2397L21.3967 14.2397C22.4529 14.2397 24.3741 14.2811 25.3626 14.2395C25.8109 14.2206 26 14.0125 26 13.5406V0.71141C26 0.212469 25.7973 0.0231186 25.3206 0.0114959C24.8854 0.000908795 24.4338 0.0123507 23.9967 0.0123507L8.14098 0.0123179C7.43199 0.0112328 7.56636 0.0369936 7.20088 0.407163C7.00394 0.606641 6.73197 0.916855 6.52132 1.07295C6.26689 0.987348 5.60044 0.128332 5.42985 0.0452956C5.27265 -0.0312141 1.83176 0.0123507 1.36394 0.0123507C0.639749 0.0123507 0 -0.138137 0 0.71141V13.5406H0Z" fill="#007ABE"/>
<path fill-rule="evenodd" clip-rule="evenodd" d="M19.8271 2.81379C19.518 2.96085 17.9892 4.59032 17.626 4.95337L12.2558 10.378C11.496 11.1365 12.2277 11.6406 12.6749 11.4483C12.9049 11.3493 19.0213 5.07815 20.226 3.87666C20.3823 3.72078 20.6539 3.52014 20.5498 3.12904C20.479 2.86272 20.1586 2.65604 19.8271 2.81379Z" fill="#007ABE"/>
<path fill-rule="evenodd" clip-rule="evenodd" d="M13.8261 3.89021C14.4756 3.70457 15.0009 4.16652 15.1304 4.67094C15.2924 5.30158 14.8552 5.85297 14.3875 5.98513C13.0293 6.36891 12.3749 4.30498 13.8261 3.89021ZM13.6409 2.80452C12.4187 3.09116 11.7066 4.27885 11.974 5.4141C12.2173 6.44738 13.2088 7.33406 14.5255 7.07374C15.5598 6.86925 16.4547 5.81168 16.1993 4.50217C15.9982 3.47064 14.9381 2.50031 13.6409 2.80452Z" fill="#007ABE"/>
<path fill-rule="evenodd" clip-rule="evenodd" d="M18.0906 8.29185C19.4534 7.82852 20.0876 9.90804 18.7502 10.351C17.4402 10.7849 16.6884 8.76858 18.0906 8.29185ZM18.0922 7.16532C17.0048 7.32279 16.1056 8.33728 16.2807 9.62711C16.431 10.7345 17.4454 11.6538 18.7519 11.4711C19.8226 11.3213 20.7548 10.263 20.5455 8.9359C20.3769 7.86651 19.347 6.98361 18.0922 7.16532Z" fill="#007ABE"/>
<path fill-rule="evenodd" clip-rule="evenodd" d="M6.31564 7.72328C5.63466 8.00683 6.04106 8.96476 6.69798 8.72249C7.3382 8.48639 6.97972 7.44678 6.31564 7.72328Z" fill="#007ABE"/>
<path fill-rule="evenodd" clip-rule="evenodd" d="M6.33129 5.53308C5.62845 5.80862 6.03529 6.77762 6.70261 6.53127C7.3064 6.30839 7.00615 5.26852 6.33129 5.53308Z" fill="#007ABE"/>
<path fill-rule="evenodd" clip-rule="evenodd" d="M6.37254 3.33003C5.65957 3.52835 5.96927 4.56958 6.6757 4.35272C7.29465 4.1627 7.04578 3.14277 6.37254 3.33003Z" fill="#007ABE"/>
<path fill-rule="evenodd" clip-rule="evenodd" d="M6.28512 9.93643C6.13967 10.0109 6.08977 10.006 6.01253 10.192C5.8197 10.6566 6.27884 11.0936 6.7179 10.8999C7.30627 10.6405 6.94717 9.59754 6.28512 9.93643Z" fill="#007ABE"/>
</svg>
