<svg width="22" height="22" viewBox="0 0 22 22" fill="none" xmlns="http://www.w3.org/2000/svg">
<path d="M6.9994 1L2.9998 1.006C2.46942 1.006 1.96076 1.21671 1.58573 1.59179C1.21069 1.96686 1 2.47557 1 3.006V7C1.00012 7.49017 1.18023 7.96323 1.50613 8.32935C1.83202 8.69547 2.28101 8.92914 2.76782 8.986L3.0038 9L7.0034 8.994C7.53343 8.99347 8.04158 8.78252 8.41618 8.40751C8.79078 8.03249 9.0012 7.52409 9.0012 6.994V3.002C9.00157 2.51148 8.82168 2.03793 8.49574 1.6714C8.1698 1.30486 7.72053 1.0709 7.23338 1.014L6.9994 1ZM18.9982 1L14.9986 1.006C14.4682 1.006 13.9596 1.21671 13.5845 1.59179C13.2095 1.96686 12.9988 2.47557 12.9988 3.006V7C12.9989 7.49017 13.179 7.96323 13.5049 8.32935C13.8308 8.69547 14.2798 8.92914 14.7666 8.986L15.0026 9L19.0022 8.994C19.5322 8.99347 20.0404 8.78252 20.415 8.40751C20.7896 8.03249 21 7.52409 21 6.994V3.002C21.0004 2.51148 20.8205 2.03793 20.4945 1.6714C20.1686 1.30486 19.7193 1.0709 19.2322 1.014L18.9982 1ZM6.9994 13L2.9998 13.006C2.46942 13.006 1.96076 13.2167 1.58573 13.5918C1.21069 13.9669 1 14.4756 1 15.006V19C1.00012 19.4902 1.18023 19.9632 1.50613 20.3293C1.83202 20.6955 2.28101 20.9291 2.76782 20.986L3.0038 21L7.0034 20.994C7.53343 20.9935 8.04158 20.7825 8.41618 20.4075C8.79078 20.0325 9.0012 19.5241 9.0012 18.994V15.002C9.00157 14.5115 8.82168 14.0379 8.49574 13.6714C8.1698 13.3049 7.72053 13.0709 7.23338 13.014L6.9994 13ZM18.9982 13L14.9986 13.006C14.4682 13.006 13.9596 13.2167 13.5845 13.5918C13.2095 13.9669 12.9988 14.4756 12.9988 15.006V19C12.9989 19.4902 13.179 19.9632 13.5049 20.3293C13.8308 20.6955 14.2798 20.9291 14.7666 20.986L15.0026 21L19.0022 20.994C19.5322 20.9935 20.0404 20.7825 20.415 20.4075C20.7896 20.0325 21 19.5241 21 18.994V15.002C21.0004 14.5115 20.8205 14.0379 20.4945 13.6714C20.1686 13.3049 19.7193 13.0709 19.2322 13.014L18.9982 13Z" stroke-width="2" stroke-linecap="round" stroke-linejoin="round"/>
</svg>
