<svg width="22" height="22" viewBox="0 0 22 22" xmlns="http://www.w3.org/2000/svg">
  <path
    d="M17.7697 8.46151H16.0774C16.0767 7.78845 15.809 7.14316 15.3331 6.66723C14.8572 6.19131 14.2119 5.92364 13.5388 5.92297V4.23061C14.6605 4.23195 15.7359 4.67814 16.529 5.47129C17.3222 6.26445 17.7684 7.33982 17.7697 8.46151Z" />
  <path
    d="M21.1544 8.46158H19.4621C19.4603 6.89118 18.8357 5.38561 17.7252 4.27517C16.6148 3.16473 15.1092 2.5401 13.5388 2.53831V0.845947C15.5579 0.848187 17.4937 1.65126 18.9214 3.07899C20.3491 4.50671 21.1522 6.44247 21.1544 8.46158Z" />
  <path
    d="M14.666 15.6391L16.5615 13.7437C16.8152 13.4899 17.1378 13.3161 17.4893 13.2439C17.8408 13.1718 18.2058 13.2043 18.539 13.3375L20.8474 14.2615C21.1876 14.3977 21.4793 14.6326 21.6847 14.9361C21.8901 15.2395 21.9999 15.5976 21.9999 15.9641V20.162C22.0005 20.4115 21.9502 20.6585 21.852 20.8878C21.7538 21.1172 21.6098 21.3242 21.4289 21.496C21.248 21.6678 21.0339 21.8009 20.7998 21.8871C20.5656 21.9733 20.3164 22.0108 20.0672 21.9973C3.88654 20.9904 0.618594 7.28562 0.0118822 2.03761C-0.0175026 1.78104 0.00776365 1.52117 0.0860193 1.27506C0.164275 1.02896 0.293747 0.80222 0.465919 0.609745C0.63809 0.417271 0.849061 0.263429 1.08495 0.158337C1.32085 0.0532451 1.57631 -0.000714542 1.83456 7.14467e-06H5.95799C6.32445 -4.62235e-06 6.6825 0.109783 6.98597 0.315209C7.28943 0.520635 7.52438 0.812274 7.66051 1.15251L8.5837 3.46089C8.71692 3.79409 8.74945 4.15906 8.67725 4.51058C8.60506 4.86209 8.4313 5.18469 8.17753 5.43841L6.28208 7.33386C6.28208 7.33386 7.33304 14.7227 14.666 15.6391Z" />
</svg>