<svg width="24" height="26" viewBox="0 0 24 26" xmlns="http://www.w3.org/2000/svg">
  <path fill-rule="evenodd" clip-rule="evenodd"
    d="M16.0979 4.77365V4.85186C16.045 4.87055 16.1002 4.85077 16.0623 4.8692C16.0522 4.87416 16.037 4.88161 16.0267 4.88647L15.8221 4.9992C15.8184 5.00096 15.8077 5.00583 15.8042 5.00773C15.7831 5.01905 15.7894 5.01552 15.7719 5.02835L15.7072 5.06934C15.7035 5.07108 15.6926 5.07578 15.6889 5.07752C15.6881 5.07789 15.6641 5.08951 15.6623 5.09058L15.5202 5.17325C15.5175 5.17458 15.514 5.1762 15.5112 5.1775L15.4674 5.1998C15.465 5.20133 15.4618 5.20353 15.4595 5.20513L14.5695 5.71642C14.5668 5.71774 14.5633 5.71939 14.5606 5.72071C14.5578 5.72203 14.5543 5.72363 14.5516 5.72495L14.4276 5.79926C14.4249 5.80058 14.4213 5.80204 14.4185 5.80336L13.868 6.1122C13.8639 6.11479 13.8336 6.13883 13.8307 6.14087L13.6895 6.22444C13.6796 6.23072 13.665 6.23758 13.6547 6.24252C13.6511 6.24431 13.6404 6.24922 13.6367 6.25096L13.2721 6.45487C13.2693 6.4562 13.2658 6.45773 13.263 6.45907L13.0415 6.59434C13.039 6.59582 13.0355 6.59756 13.0329 6.59895L12.7216 6.77683C12.7182 6.77882 12.7077 6.78397 12.7041 6.78578L12.6861 6.79419C12.6833 6.79552 12.6798 6.79711 12.6771 6.79844L12.5885 6.84214C12.5861 6.84367 12.5829 6.84587 12.5806 6.84747L12.3215 6.99809C12.3187 6.99941 12.3152 7.00103 12.3124 7.00233L12.1055 7.12581C12.0871 7.13938 12.1008 7.13085 12.0819 7.14181L11.9334 7.21814C11.9202 7.22785 11.9098 7.23717 11.9036 7.24112L11.8595 7.26321C11.8567 7.26451 11.8531 7.26599 11.8504 7.26729L11.7355 7.33743C11.7327 7.33877 11.7292 7.34033 11.7264 7.34162L11.5124 7.45825C11.4865 7.472 11.5003 7.46441 11.4877 7.47313L11.3002 7.58957C11.2976 7.59101 11.294 7.59256 11.2913 7.59393L10.4558 8.06726C10.4447 8.07252 10.4486 8.07023 10.4376 8.07547C10.4339 8.07721 10.4231 8.08205 10.4195 8.08393L9.68292 8.51056C9.67927 8.51233 9.66857 8.51724 9.6649 8.51898C9.65537 8.52352 9.63868 8.53166 9.62915 8.53616L9.48709 8.61882C9.37576 8.6707 9.44501 8.65383 9.35402 8.69721C9.35127 8.69853 9.34778 8.70015 9.34503 8.70147L9.30928 8.71863C9.30651 8.71995 9.30305 8.72155 9.30027 8.72287L9.26469 8.74021C9.2622 8.74165 9.25883 8.74362 9.25641 8.74518L8.7581 9.03989C8.74819 9.04617 8.73354 9.05303 8.72327 9.05797L8.57147 9.14415C8.56163 9.15039 8.54691 9.15725 8.53657 9.16214C8.53287 9.16388 8.52197 9.16859 8.51829 9.17033L8.31367 9.28303C8.31106 9.28445 8.30758 9.28618 8.30504 9.28765L8.13368 9.39376C8.11621 9.40663 8.12251 9.40311 8.10146 9.41438C8.09791 9.41628 8.08717 9.42115 8.08354 9.42293C8.08079 9.42425 8.07726 9.42581 8.07448 9.42713L8.02076 9.45277C8.01801 9.45412 8.01448 9.45565 8.01173 9.45699C7.94212 9.49073 7.93674 9.50591 7.93174 9.50909C7.91704 9.51846 7.92432 9.51387 7.90592 9.52295L7.5159 9.74111C7.51292 9.74317 7.48264 9.76719 7.47856 9.76979L7.15045 9.95722C7.14701 9.95921 7.13653 9.96436 7.13295 9.96617C7.13022 9.96754 7.12664 9.96904 7.12389 9.97036L6.90981 10.0869C6.84371 10.1196 6.84746 10.1293 6.83878 10.1347L6.79426 10.1563C6.765 10.1704 6.75329 10.1673 6.74146 10.1959H6.68817C6.67636 10.1641 6.67916 10.1747 6.65538 10.1498L6.15365 9.76717C6.15133 9.76557 6.14815 9.76334 6.14576 9.76183C6.14334 9.7603 6.13999 9.75833 6.13748 9.75687L5.9239 9.6399C5.92112 9.63858 5.91764 9.63698 5.91489 9.63566L5.89682 9.62726C5.87876 9.61813 5.88587 9.62279 5.87105 9.61333L5.49803 9.43072C5.49519 9.42945 5.49178 9.42782 5.48886 9.42662L5.33794 9.37872C5.3349 9.37758 5.33142 9.37617 5.32845 9.37494L4.60894 9.19224C4.56226 9.17612 4.4881 9.18588 4.43633 9.17858C4.36497 9.16852 4.38002 9.15178 4.27599 9.15289L3.56006 9.17014C3.50093 9.18953 3.45127 9.16891 3.39202 9.18825C3.31402 9.21373 3.2952 9.19625 3.21305 9.2218L3.12592 9.24086C3.1227 9.24183 3.11957 9.24355 3.11637 9.24457C3.11322 9.24559 3.11013 9.24737 3.10691 9.24835L3.01255 9.26036C2.95525 9.27091 2.9181 9.29629 2.87275 9.3061L2.77645 9.32924C2.77322 9.33033 2.76971 9.33147 2.76647 9.33253L2.59233 9.39685C2.56782 9.40802 2.59304 9.3984 2.56386 9.40812L2.29869 9.51375C2.29295 9.51655 2.28664 9.51964 2.28093 9.52244C2.2782 9.52377 2.27477 9.52546 2.27204 9.5268L2.08494 9.61755C2.06687 9.62666 2.07398 9.622 2.05917 9.63146L1.85488 9.75754C1.85215 9.75889 1.84857 9.76037 1.8458 9.76169L1.79224 9.78752C1.77285 9.79979 1.76723 9.80874 1.75018 9.8246L1.72076 9.84797C1.7183 9.8495 1.71472 9.85117 1.71218 9.85263C1.70964 9.85411 1.70602 9.85567 1.70345 9.85713L1.68634 9.86647C1.68392 9.86798 1.68065 9.87006 1.6783 9.87164C1.67598 9.87322 1.67294 9.87563 1.67067 9.87725L1.61455 9.91358C1.61201 9.91507 1.60843 9.91671 1.60599 9.91827L1.58318 9.93505C1.56581 9.95008 1.56102 9.96162 1.53413 9.97829L1.47636 10.013C1.45827 10.0283 1.47508 10.014 1.45635 10.0326L1.19018 10.2676C1.12994 10.3265 1.05284 10.3882 1.00367 10.4502L0.974368 10.4997C0.96057 10.5212 0.94599 10.5334 0.930532 10.5481C0.924534 10.5537 0.920385 10.5578 0.910309 10.5674L0.803553 10.6976C0.796725 10.7046 0.78755 10.7146 0.784824 10.7183L0.521217 11.1253C0.519675 11.1277 0.5174 11.1308 0.515764 11.133C0.515408 11.1335 0.502938 11.1477 0.497746 11.1545L0.314461 11.5227C0.313394 11.526 0.312517 11.5295 0.311402 11.5327L0.197273 11.8122C0.196182 11.8153 0.194807 11.8186 0.193717 11.8217L0.186984 11.8412C0.182811 11.8536 0.181744 11.8587 0.177429 11.871L0.0756991 12.2668C0.0749167 12.2706 0.0745848 12.2741 0.0736839 12.2779C0.0728067 12.2814 0.0719295 12.2848 0.0709575 12.2882L0.0234945 12.5416C0.0233759 12.5756 0.0276907 12.5956 0.0183973 12.6279L0 13.4519C0.0120199 13.5064 0.0243716 13.5054 0.024016 13.5718L0.0373398 13.6631C0.0384304 13.6661 0.0403507 13.6691 0.0413939 13.6721C0.0590088 13.7244 0.0500946 13.7752 0.0675673 13.829C0.0770978 13.8583 0.0709101 13.8388 0.0773349 13.8716L0.0981978 13.9425C0.119179 14.0223 0.103082 14.0157 0.140777 14.1225C0.15576 14.1649 0.140303 14.1022 0.153816 14.1618L0.307965 14.5846C0.316831 14.6074 0.312825 14.6023 0.320056 14.6249L0.428329 14.8449C0.429681 14.8476 0.431411 14.8509 0.432786 14.8536C0.434138 14.8562 0.435868 14.8596 0.43722 14.8623L0.44611 14.8797C0.447461 14.8823 0.449192 14.8857 0.450543 14.8884L0.7027 15.2804C0.704359 15.2827 0.706304 15.2861 0.707845 15.2884C0.709433 15.2908 0.711116 15.2944 0.712634 15.2968L0.765668 15.3753C0.767185 15.3778 0.768821 15.3813 0.770315 15.3838C0.790371 15.4173 0.816569 15.4299 0.8504 15.4879C0.877118 15.5338 0.968465 15.6077 1.0196 15.6874C1.0572 15.746 1.23544 15.9118 1.2898 15.9576C1.29276 15.9601 1.30137 15.967 1.30459 15.9692L1.3476 15.9923C1.39132 16.0191 1.42638 16.0659 1.46294 16.1011C1.47325 16.111 1.46351 16.1049 1.48352 16.1201C1.52135 16.1488 1.45647 16.1042 1.4994 16.1306L1.51678 16.1397C1.51936 16.1411 1.52299 16.1426 1.52555 16.1441L1.64042 16.2273C1.64283 16.2288 1.64611 16.2309 1.64845 16.2325L1.68636 16.2606C1.68878 16.2621 1.69226 16.2639 1.69475 16.2654L1.71201 16.2746C1.71448 16.2761 1.71799 16.2779 1.72041 16.2794C1.72282 16.281 1.7261 16.2831 1.72844 16.2846L2.13878 16.5351C2.1415 16.5364 2.14494 16.5381 2.14767 16.5394L2.21877 16.5742C2.22149 16.5755 2.22493 16.5772 2.22766 16.5785C2.23131 16.5803 2.24179 16.5854 2.24542 16.5872C2.24814 16.5885 2.25158 16.5902 2.25431 16.5916L2.31647 16.622C2.31915 16.6234 2.32261 16.6251 2.32529 16.6264C2.32799 16.6278 2.3314 16.6295 2.33408 16.6309L2.54311 16.7132C2.63494 16.7406 2.72235 16.7876 2.81575 16.8116L3.07483 16.871C3.10565 16.8752 3.09435 16.875 3.10696 16.8787L3.38277 16.9348C3.39463 16.9389 3.37175 16.9368 3.41208 16.9453C3.49019 16.9616 3.49008 16.9337 3.61495 16.9685C3.64323 16.9763 3.67104 16.9747 3.70217 16.9744L4.24915 16.974C4.27544 16.9741 4.31859 16.9765 4.34289 16.9744L4.38645 16.9649C4.38958 16.9638 4.39266 16.962 4.39572 16.9609C4.45764 16.9393 4.52784 16.9596 4.59005 16.9424C4.59337 16.9415 4.59652 16.9399 4.5997 16.9388C4.65351 16.9212 4.69624 16.9303 4.75 16.9163L5.07952 16.8345C5.08282 16.8336 5.08609 16.8321 5.08931 16.8311L5.25648 16.786C5.28917 16.7772 5.25873 16.787 5.28504 16.7748L5.58637 16.6524C5.62736 16.6321 5.56335 16.664 5.60403 16.6436L5.66774 16.6147C5.68601 16.6086 5.69109 16.6093 5.70939 16.6032L5.83379 16.5424C5.83438 16.542 5.8487 16.5299 5.85574 16.5248L6.0926 16.3915C6.09538 16.3902 6.09896 16.3887 6.10175 16.3874C6.10455 16.3861 6.10811 16.3846 6.11091 16.3833C6.11368 16.382 6.11726 16.3805 6.11999 16.3791L6.17572 16.3424C6.178 16.3408 6.18103 16.3384 6.18333 16.3368L6.53705 16.0832C6.57847 16.0595 6.67143 15.9765 6.68822 15.9312H6.74151C6.75559 15.9653 6.80628 15.9719 6.83885 15.9924L6.95526 16.061C6.9766 16.0723 6.96991 16.0687 6.98753 16.0816C6.98795 16.0819 7.00159 16.0932 7.00199 16.0935L7.64924 16.4642C7.65156 16.4658 7.65474 16.468 7.65711 16.4696L7.71889 16.5004C7.72259 16.5021 7.73309 16.5073 7.73674 16.509C7.73949 16.5103 7.74293 16.512 7.7457 16.5133L8.1985 16.7743C8.20127 16.7757 8.20485 16.7771 8.20765 16.7784L8.64252 17.0309C8.64522 17.0323 8.6488 17.0338 8.65155 17.0351L8.67853 17.0478C8.68221 17.0496 8.69271 17.0547 8.69639 17.0565L9.17604 17.3303C9.17879 17.3316 9.18225 17.3333 9.185 17.3346L9.24776 17.3645C9.26884 17.3758 9.26251 17.3723 9.28 17.3851C9.28041 17.3854 9.29406 17.3967 9.29446 17.397L9.77125 17.6737C9.77469 17.6757 9.78517 17.6808 9.78875 17.6826L10.1895 17.9034C10.1931 17.9052 10.2039 17.91 10.2074 17.9119L10.3493 17.9947C10.3518 17.9962 10.3551 17.9982 10.3575 17.9997L10.552 18.1093C10.5526 18.1097 10.5669 18.1218 10.5739 18.1269C10.5915 18.1399 10.5849 18.1362 10.6062 18.1475C10.6097 18.1494 10.6205 18.1542 10.6242 18.156L11.7618 18.8031C11.7646 18.8044 11.768 18.806 11.7708 18.8073L12.5526 19.2549C12.5554 19.2563 12.5589 19.2577 12.5617 19.259L13.0413 19.533C13.0441 19.5343 13.0475 19.5359 13.0503 19.5372L13.0862 19.5542C13.1073 19.5655 13.101 19.562 13.1185 19.5748C13.1189 19.5751 13.1325 19.5865 13.1329 19.5868L13.3612 19.7154C13.364 19.7168 13.3674 19.7184 13.3702 19.7197L13.4309 19.7516C13.4315 19.752 13.4458 19.7641 13.4528 19.7692L14.2259 20.2124C14.2952 20.2633 14.1643 20.1745 14.2412 20.2235L15.1207 20.7189C15.1235 20.7202 15.1271 20.7217 15.1298 20.7231C15.1482 20.7322 15.141 20.7276 15.1557 20.7369L15.2008 20.7709C15.2156 20.7804 15.2085 20.7757 15.2266 20.7849L15.2447 20.7933C15.2474 20.7946 15.2509 20.7962 15.2536 20.7975C15.2564 20.7988 15.2598 20.8005 15.2626 20.8018L15.2894 20.8147C15.2931 20.8165 15.3038 20.8214 15.3074 20.8232C15.3177 20.8281 15.3323 20.835 15.3422 20.8412L15.6363 21.0098C15.64 21.0116 15.6504 21.0168 15.6538 21.0188L16.0803 21.2664C16.084 21.2682 16.0948 21.273 16.0983 21.2749C16.1271 21.2904 16.1093 21.2803 16.1228 21.29C16.183 21.3333 16.1174 21.3256 16.2044 21.3275V21.3796C16.1697 21.3933 16.1804 21.4184 16.1768 21.4569C16.1715 21.5137 16.1653 21.4833 16.1539 21.5387L16.1338 21.6754C16.1245 21.7026 16.1274 21.6794 16.124 21.718C16.1213 21.7483 16.1258 21.7921 16.1254 21.8237C16.1253 21.8399 16.1253 21.8566 16.1218 21.8723C16.0927 22.0046 16.0978 21.9541 16.0978 22.1226C16.0979 22.2875 16.0797 22.3843 16.1189 22.5191C16.1399 22.5913 16.1173 22.6716 16.1419 22.7442L16.1684 22.9008C16.1827 22.9445 16.1723 22.9499 16.1809 22.9928L16.3013 23.3965C16.3058 23.4094 16.3086 23.4193 16.3141 23.4361L16.3737 23.5864C16.375 23.5891 16.3767 23.5924 16.3779 23.5953L16.4652 23.7967C16.4663 23.7999 16.4672 23.8035 16.4682 23.8067L16.5954 24.0473C16.5968 24.05 16.5985 24.0534 16.5999 24.056L17.0374 24.6578C17.0668 24.6948 17.0213 24.6315 17.0482 24.6734L17.1037 24.7494C17.1457 24.7899 17.179 24.8222 17.2174 24.8598L17.4219 25.0509C17.4886 25.0889 17.5539 25.1652 17.5818 25.1812L17.8023 25.3306C17.8046 25.3321 17.8076 25.3346 17.8099 25.3362C17.8251 25.347 17.8315 25.3533 17.8402 25.3587L18.0526 25.4899C18.0553 25.4912 18.0588 25.4928 18.0615 25.4942L18.1327 25.5289C18.1354 25.5302 18.1388 25.5319 18.1416 25.5332L18.4796 25.698C18.5028 25.7065 18.5074 25.7048 18.5311 25.7127L18.7032 25.7791C18.7065 25.7801 18.71 25.7812 18.7133 25.7822L18.7338 25.7882C18.7371 25.7893 18.7407 25.7903 18.7439 25.7914L18.965 25.8619C18.9871 25.8661 18.9866 25.8633 19.0105 25.8696L19.1365 25.9028C19.1397 25.9038 19.1428 25.9056 19.146 25.9065C19.1493 25.9075 19.1524 25.9091 19.1559 25.9099L19.4207 25.9508C19.4903 25.9733 19.5949 25.9552 19.6606 25.9768C19.6968 25.9887 19.6366 25.978 19.6992 25.9912C19.7153 25.9946 19.7323 25.9945 19.7488 25.9948C19.8456 25.9961 20.2161 26.0091 20.2907 25.9883L20.3189 25.9768C20.3953 25.9516 20.481 25.9759 20.5588 25.9507C20.6 25.9374 20.6284 25.9459 20.6686 25.9408C20.762 25.9287 20.6529 25.9272 20.7633 25.9161C20.7832 25.914 20.7914 25.9167 20.813 25.9125C20.8763 25.9004 20.8146 25.9106 20.8525 25.899L21.2959 25.7722C21.2991 25.7711 21.3025 25.7698 21.3057 25.7687L21.4199 25.724C21.4236 25.7223 21.4345 25.7176 21.4385 25.7161L21.5888 25.6545C21.6534 25.6226 21.7093 25.6151 21.7696 25.5707L21.8735 25.5158C21.8982 25.5038 21.8665 25.5192 21.8912 25.5071C21.8939 25.5058 21.8974 25.5041 21.9001 25.5028C21.9028 25.5015 21.9063 25.4998 21.909 25.4985L22.2571 25.2784C22.2595 25.2769 22.2628 25.2748 22.2652 25.2733C22.2676 25.2717 22.2711 25.27 22.2736 25.2685C22.2761 25.267 22.2797 25.2654 22.2823 25.2639L22.342 25.218C22.3819 25.1811 22.4233 25.1663 22.4621 25.127L22.5575 25.0509C22.5601 25.0494 22.5637 25.0477 22.5661 25.0462C22.5686 25.0447 22.572 25.0428 22.5744 25.0412C22.5776 25.039 22.5862 25.0321 22.5892 25.0296C22.6797 24.9535 22.8682 24.7716 22.9312 24.6733C22.9327 24.6709 22.9347 24.6675 22.9363 24.6653C22.975 24.6108 23.0368 24.5658 23.0507 24.5425L23.5112 23.8067C23.5467 23.695 23.5493 23.7433 23.5942 23.6142C23.5953 23.611 23.5964 23.6075 23.5976 23.6045L23.6514 23.4746C23.6525 23.4715 23.6539 23.4682 23.655 23.4651L23.7448 23.2009C23.7456 23.1971 23.746 23.1937 23.7467 23.1898L23.7813 23.0411C23.7822 23.0378 23.7836 23.0346 23.7847 23.0314L23.819 22.8825C23.8328 22.8408 23.8228 22.7879 23.8375 22.7442C23.8491 22.7099 23.8388 22.7675 23.8523 22.7065C23.8657 22.6454 23.8446 22.5662 23.8642 22.5095C23.8977 22.4122 23.8881 22.0647 23.8825 21.9391L23.8605 21.8563C23.8419 21.7924 23.8667 21.7106 23.8456 21.6493C23.8328 21.6119 23.844 21.674 23.831 21.6114C23.8269 21.5915 23.8288 21.5817 23.8282 21.562L23.655 20.9103C23.6539 20.9072 23.6525 20.9039 23.6514 20.9007L23.579 20.7108C23.5776 20.7069 23.5728 20.6962 23.5711 20.6926C23.5699 20.6901 23.5552 20.6626 23.5529 20.6582L23.4992 20.5282C23.483 20.4846 23.445 20.4478 23.4234 20.4068L23.14 19.9542C23.1384 19.9517 23.1368 19.9482 23.1353 19.9457C23.1338 19.9432 23.1322 19.9396 23.1307 19.9371C23.1155 19.9122 23.0986 19.9109 23.0645 19.8585C23.0288 19.8035 22.9786 19.7638 22.942 19.7176C22.9126 19.6807 22.9581 19.744 22.9312 19.7021C22.9203 19.6852 22.9263 19.6915 22.9174 19.6765C22.868 19.5938 22.7221 19.477 22.6486 19.4049L22.5959 19.3522C22.5529 19.3129 22.5247 19.3076 22.4426 19.2283L22.2822 19.1115C22.2797 19.11 22.2761 19.1084 22.2736 19.1069L21.9714 18.9071C21.8968 18.8638 21.8276 18.8465 21.7551 18.7928L21.4998 18.6775C21.4771 18.6691 21.4811 18.6726 21.4586 18.6657L21.1457 18.5546C21.1425 18.5535 21.1391 18.5521 21.1359 18.5511L20.6028 18.4338C20.5612 18.4307 20.5888 18.4344 20.5587 18.4247C20.4888 18.4021 20.382 18.4199 20.3095 18.3946C20.2884 18.3873 20.3342 18.3916 20.2689 18.3822C20.1883 18.3707 19.7217 18.3766 19.679 18.3907C19.6273 18.4077 19.5512 18.4014 19.4827 18.4072C19.4432 18.4105 19.4669 18.4076 19.4391 18.4167C19.4009 18.4293 19.4644 18.4184 19.4004 18.431L19.1459 18.4689C19.1427 18.4699 19.1396 18.4717 19.1364 18.4727L18.9428 18.5179C18.9394 18.5188 18.936 18.5201 18.9327 18.521L18.4361 18.7002C18.4329 18.7012 18.4293 18.7024 18.4262 18.7035L18.2215 18.8031C18.2187 18.8044 18.2153 18.8061 18.2126 18.8074C18.2098 18.8088 18.2064 18.8105 18.2037 18.8118L18.0984 18.8653L18.069 18.8886C18.0667 18.8902 18.0635 18.8925 18.0611 18.894L17.7978 19.0536C17.7826 19.0644 17.7762 19.0706 17.7675 19.0761L17.4834 19.2805C17.4524 19.3101 17.4177 19.3353 17.404 19.3723H17.324C17.3092 19.3362 17.3241 19.3665 17.297 19.3466L17.1388 19.2536C17.1383 19.2532 17.1239 19.2411 17.1169 19.236L16.7734 19.0375C16.7719 19.0366 16.7477 19.0247 16.7469 19.0243L16.4772 18.871C16.4587 18.8574 16.4724 18.866 16.4535 18.855C16.4501 18.853 16.4396 18.8478 16.436 18.846L16.3822 18.8205C16.3794 18.8192 16.376 18.8175 16.3732 18.8162L16.0353 18.6253C16.0345 18.6249 16.0102 18.613 16.0088 18.6121L15.8841 18.5386C15.8582 18.5248 15.8719 18.5324 15.8594 18.5237L15.7603 18.4642C15.7566 18.4624 15.7461 18.4573 15.7424 18.4556L14.5799 17.7937C14.5769 17.7917 14.5466 17.7676 14.5425 17.765C14.5327 17.7588 14.518 17.7519 14.5077 17.747L13.9738 17.448C13.9029 17.4129 13.9135 17.4069 13.9028 17.4001L13.8499 17.3736C13.8472 17.3722 13.8438 17.3706 13.841 17.3693C13.8373 17.3675 13.8268 17.3624 13.8232 17.3606L13.0233 16.9047C12.9231 16.8573 12.9854 16.873 12.9174 16.8387L12.5077 16.6138C12.504 16.612 12.4935 16.6069 12.4902 16.6049L11.877 16.253C11.8667 16.2481 11.852 16.2412 11.8422 16.2349L11.7257 16.1663C11.7044 16.155 11.7111 16.1586 11.6935 16.1457C11.6801 16.1359 11.6701 16.1268 11.6637 16.1227L11.4602 16.0089C11.4575 16.0075 11.454 16.0059 11.4513 16.0046L10.7933 15.6314C10.7905 15.6301 10.7869 15.6286 10.7841 15.6273L10.5884 15.5189C10.5848 15.5171 10.5743 15.512 10.5709 15.51L10.1535 15.2664C10.0825 15.2333 10.065 15.2108 10.0643 15.2103L9.79787 15.0668C9.79536 15.0653 9.79202 15.0634 9.7896 15.0618C9.78721 15.0603 9.78403 15.0581 9.78173 15.0565L9.18474 14.7149C9.18197 14.7135 9.17839 14.7121 9.17564 14.7107C9.07953 14.6632 9.15203 14.6858 9.07887 14.6489L8.90117 14.549C8.89764 14.5471 8.88688 14.5422 8.88325 14.5404L8.80241 14.5022C8.78434 14.4931 8.79148 14.4977 8.77666 14.4883L8.38577 14.2579C8.38304 14.2566 8.37946 14.2551 8.37666 14.2538L8.29366 14.2046C8.27522 14.191 8.28892 14.1996 8.27005 14.1886L8.13691 14.1233C8.12505 14.1158 8.12896 14.1173 8.11431 14.1063L8.08347 14.0844C8.08003 14.0824 8.06953 14.0772 8.06592 14.0754C8.06317 14.0741 8.05959 14.0726 8.05682 14.0713C8.00649 14.0475 8.0889 14.0869 8.03854 14.0631C8.0282 14.0582 8.01348 14.0513 8.00364 14.0451L7.95846 14.0111C7.95606 14.0095 7.9527 14.0076 7.95021 14.0061L7.88776 13.9759V13.8978C7.92534 13.8829 7.91061 13.8495 7.91607 13.8081C7.92835 13.7149 7.93271 13.8232 7.94108 13.7153C7.95075 13.5902 7.95763 13.6376 7.96702 13.5712C7.97403 13.5218 7.96358 13.4765 7.98105 13.4285L7.9888 13.41C8.01223 13.3294 7.99352 12.9393 7.99452 12.8288L7.97335 12.6801C7.96607 12.6548 7.96735 12.6482 7.96723 12.6209C7.96678 12.5025 7.95224 12.5559 7.9411 12.4118C7.93273 12.3038 7.92835 12.4122 7.91609 12.319C7.91405 12.3034 7.91638 12.2805 7.91398 12.2689C7.9058 12.2287 7.92368 12.2435 7.88778 12.2293V12.1511C7.95139 12.1286 7.99995 12.0843 8.00367 12.082L8.09964 12.0325L8.12908 12.0091L8.93349 11.5575C8.93389 11.5572 8.94752 11.5459 8.94795 11.5456L9.309 11.3382C9.31175 11.3368 9.31533 11.3354 9.3181 11.334L9.46931 11.2473C9.47208 11.246 9.47552 11.2443 9.47827 11.243L9.50506 11.2301C9.50783 11.2288 9.51129 11.2272 9.51407 11.2259C9.61995 11.1754 9.55923 11.1888 9.63801 11.1515C9.64079 11.1502 9.64434 11.1488 9.64717 11.1475L10.2428 10.8046C10.2453 10.8031 10.2486 10.8011 10.2511 10.7996L10.7399 10.5216C10.7426 10.5203 10.7461 10.5187 10.7488 10.5174L10.9786 10.3901C10.9815 10.388 11.0118 10.364 11.0159 10.3614L11.149 10.2961C11.1515 10.2947 11.1549 10.2927 11.1573 10.2911L11.2737 10.2225C11.2763 10.2211 11.2798 10.2194 11.2823 10.2179C11.2848 10.2164 11.2882 10.2145 11.2906 10.2129C11.3024 10.2054 11.2986 10.2069 11.3132 10.1959L11.9755 9.81395C12.0317 9.77816 12.0925 9.76051 12.1467 9.7207L12.4285 9.56615C12.431 9.56469 12.4344 9.56272 12.4368 9.56119L12.7398 9.38827C12.7609 9.37696 12.7545 9.3805 12.772 9.36766L12.8368 9.32669C12.8395 9.32537 12.8431 9.32388 12.8459 9.32259L13.175 9.13611C13.1853 9.13112 13.1999 9.12428 13.2098 9.118C13.2162 9.11394 13.2263 9.10481 13.2397 9.09504C13.3089 9.0442 13.1782 9.133 13.255 9.08399C13.2698 9.07453 13.2627 9.07919 13.2808 9.07007L13.6928 8.83432C13.7113 8.82076 13.6975 8.82932 13.7164 8.81833C13.7199 8.81633 13.7303 8.81121 13.7339 8.80938L13.9659 8.68436C13.9686 8.68297 13.972 8.68123 13.9746 8.67975C13.9771 8.67831 13.9804 8.67634 13.9829 8.67481L14.3325 8.46934C14.35 8.45649 14.3437 8.46002 14.3648 8.44873L14.4186 8.42318C14.4214 8.42188 14.4248 8.42019 14.4275 8.41887L14.4893 8.38805C14.4917 8.38652 14.4949 8.3843 14.4972 8.3827C14.4978 8.3823 14.5121 8.37022 14.5191 8.36507L15.2922 7.92191C15.3106 7.90835 15.2969 7.9169 15.3158 7.90591C15.3192 7.90392 15.3297 7.89877 15.3333 7.89696L15.716 7.68465C15.7187 7.68333 15.7222 7.68173 15.725 7.68041L16.063 7.48955C16.0666 7.48772 16.077 7.48259 16.0804 7.48057L16.3828 7.30705C16.3864 7.30522 16.3969 7.3001 16.4003 7.29811L16.6128 7.16702C16.6155 7.16565 16.6191 7.16416 16.6218 7.16282L16.8916 7.00947C16.9609 6.95862 16.83 7.04745 16.9069 6.99843C16.9217 6.98897 16.9146 6.99363 16.9327 6.9845L16.9507 6.97611C16.9535 6.97478 16.957 6.97318 16.9597 6.97186L16.9865 6.95895C16.9893 6.95765 16.9927 6.95598 16.9955 6.95468L17.1741 6.85561C17.1767 6.85417 17.1802 6.85248 17.1826 6.85088C17.2183 6.82691 17.2048 6.84114 17.2175 6.80685H17.2975C17.3232 6.87639 17.4195 6.91068 17.4907 6.98283L17.5384 7.02739C17.5408 7.02899 17.5442 7.03089 17.5467 7.0324L18.0265 7.34522C18.0289 7.34675 18.0322 7.34874 18.0347 7.35018L18.1683 7.41512L18.186 7.42382L18.2304 7.44554C18.2332 7.44686 18.2366 7.44856 18.2393 7.44988L18.3015 7.4803C18.3073 7.4831 18.3136 7.48619 18.3193 7.48899L18.797 7.6735C18.8002 7.67457 18.8036 7.67598 18.8068 7.67705L18.8261 7.68414C18.8295 7.68516 18.8328 7.68637 18.8363 7.68725C18.8399 7.68818 18.8433 7.68899 18.8471 7.6898C18.866 7.69393 18.8743 7.69251 18.8932 7.69676L19.0398 7.73596C19.0431 7.73696 19.0464 7.7383 19.0498 7.73921L19.2162 7.77192C19.2737 7.77774 19.244 7.78389 19.2995 7.79481C19.3445 7.80369 19.3844 7.79481 19.43 7.81055C19.433 7.81159 19.4361 7.81349 19.4393 7.81451C19.5063 7.83647 19.5964 7.81145 19.6606 7.83262C19.6968 7.84456 19.6366 7.83385 19.6992 7.84704C19.7773 7.8635 20.2522 7.85643 20.3004 7.84055L20.457 7.82425C20.5443 7.82499 20.5287 7.80651 20.5902 7.79817C20.6092 7.79559 20.6369 7.79805 20.6567 7.79798L21.6336 7.50204C21.6341 7.50179 21.6508 7.49358 21.6513 7.49335L21.8646 7.38908C21.8748 7.3841 21.89 7.37666 21.9002 7.3717L22.0774 7.2713C22.0801 7.26996 22.0837 7.26847 22.0865 7.26715L22.2996 7.13671C22.302 7.13518 22.3055 7.13328 22.3078 7.13166L22.3976 7.0631C22.4002 7.06164 22.4038 7.05999 22.4062 7.05846C22.4483 7.03233 22.3852 7.07652 22.422 7.04784C22.4542 7.02275 22.4273 7.04153 22.4487 7.02176L22.9076 6.62334C22.9092 6.62104 22.9112 6.61771 22.9127 6.61529L22.9312 6.58131C22.9328 6.57889 22.9347 6.57555 22.9363 6.57324C22.9883 6.50011 23.0645 6.45497 23.1179 6.37275L23.5145 5.79613C23.5284 5.77807 23.5197 5.79149 23.5309 5.77302L23.7086 5.39938C23.7098 5.39648 23.7113 5.39308 23.7124 5.39008C23.7136 5.38702 23.7148 5.38355 23.7159 5.38042L23.7314 5.33047C23.7353 5.31946 23.7347 5.32236 23.7386 5.31137L23.8912 4.80894C23.9275 4.69253 23.9418 4.55685 23.9482 4.53883C23.9558 4.51787 23.9515 4.56341 23.9609 4.49909C23.9688 4.44577 23.9542 4.38766 23.9709 4.33934C23.9985 4.25894 23.9882 4.11744 23.9882 4.01746C23.9882 3.88238 24.0201 3.65062 23.979 3.53122C23.9635 3.48621 23.9692 3.43799 23.9609 3.37945C23.9473 3.28337 23.9488 3.39607 23.9358 3.29969C23.9292 3.25054 23.942 3.24161 23.9257 3.19232C23.9136 3.15608 23.9243 3.21661 23.9114 3.15413L23.8222 2.78516C23.8213 2.78177 23.82 2.7785 23.819 2.77521L23.7169 2.49708C23.7156 2.49441 23.7136 2.49119 23.7124 2.4885L23.7043 2.47032C23.7031 2.46726 23.7019 2.46378 23.7008 2.46065L23.5972 2.2361C23.5935 2.22871 23.5891 2.22017 23.5839 2.21002C23.5826 2.20735 23.5808 2.20399 23.5795 2.20133C23.5781 2.19866 23.5764 2.1953 23.575 2.19263L23.5439 2.13179C23.5426 2.12915 23.5408 2.12576 23.5395 2.1231L23.491 2.02716C23.4859 2.01714 23.4789 2.00279 23.4725 1.99312L23.3976 1.87086C23.3961 1.86841 23.3941 1.86514 23.3925 1.86277L23.2326 1.62814C23.2315 1.62651 23.2116 1.60235 23.2087 1.59936L23.0193 1.36746C22.9817 1.30883 22.8164 1.16403 22.7286 1.0782L22.6158 0.966957C22.6129 0.964476 22.6043 0.957544 22.6011 0.955341L22.5842 0.945719C22.5384 0.919566 22.5099 0.879733 22.4678 0.851053L22.2556 0.706654C22.253 0.70517 22.2494 0.703547 22.2469 0.70204L22.1842 0.659101C22.174 0.653003 22.1772 0.655994 22.167 0.649896L21.8291 0.458988C21.8263 0.457643 21.8229 0.455974 21.8202 0.454629C21.8165 0.452844 21.806 0.44772 21.8024 0.445934L21.5627 0.328384C21.5598 0.327179 21.5563 0.325764 21.5532 0.324651C21.5501 0.323515 21.5465 0.322356 21.5433 0.321289C21.5191 0.31329 21.5154 0.315261 21.4918 0.30652C21.4253 0.281874 21.3314 0.228432 21.2661 0.214405L21.0201 0.142182C21.0167 0.141185 21.0134 0.139956 21.0099 0.139075C21.0063 0.138148 21.0029 0.13736 20.9992 0.136548C20.9801 0.132398 20.972 0.133905 20.953 0.129546L20.9325 0.123587C20.9283 0.122312 20.9177 0.117351 20.9135 0.116099L20.6269 0.057509C20.5938 0.0507389 20.5556 0.0577409 20.5225 0.05526C20.4229 0.047748 20.5254 0.0261623 20.2029 0.0289446C20.1749 0.0291996 20.1245 0.0316109 20.0991 0.0262319C20.0363 0.012993 20.0973 0.0240525 20.0605 0.0118106C19.9673 -0.0191651 19.9295 0.0196009 19.8692 0.0282027C19.7529 0.0448498 19.5973 0.0141291 19.5007 0.0458236C19.4469 0.0634677 19.4328 0.0416966 19.3042 0.0752227L19.1599 0.103463C19.1407 0.107868 19.133 0.106175 19.1138 0.11058L19.0169 0.133093C18.9901 0.135366 18.9966 0.131865 18.9692 0.138565L18.94 0.149161C18.9369 0.150251 18.9335 0.151688 18.9304 0.152755C18.9151 0.157995 18.9054 0.160244 18.8899 0.165344L18.355 0.359128C18.273 0.4007 18.2763 0.378928 18.2023 0.431327C18.2 0.43295 18.1968 0.435223 18.1945 0.436776C18.1921 0.438306 18.1887 0.440323 18.1863 0.441784L18.115 0.476354C18.1123 0.477675 18.1088 0.479368 18.1061 0.480689C18.1034 0.482034 18.0999 0.483727 18.0972 0.485048L17.821 0.645074C17.8186 0.646604 17.8151 0.648412 17.8126 0.649896C17.8092 0.651913 17.7987 0.657061 17.7953 0.659101L17.741 0.697218C17.7224 0.708973 17.7256 0.704336 17.707 0.716044C17.6981 0.721655 17.6922 0.727591 17.6767 0.738581L17.563 0.82286C17.5606 0.824483 17.5572 0.826384 17.5548 0.827891L17.4508 0.908692C17.4454 0.914164 17.4262 0.933848 17.4247 0.935263L17.0176 1.30616C17.0134 1.31012 16.9934 1.32872 16.9904 1.33173C16.9852 1.3369 16.9692 1.35399 16.9654 1.35937C16.8777 1.48274 16.8621 1.46788 16.8132 1.5494L16.7228 1.66959C16.7212 1.67186 16.7187 1.67483 16.7171 1.67703L16.6748 1.73996C16.671 1.74566 16.6494 1.77221 16.646 1.77701L16.6264 1.80996C16.6249 1.81239 16.623 1.8158 16.6215 1.81819L16.3601 2.27946C16.3587 2.28213 16.357 2.28549 16.3556 2.28815L16.2626 2.49701C16.262 2.49835 16.2538 2.51245 16.2532 2.51379L16.2179 2.60967C16.2168 2.61277 16.2154 2.61611 16.2143 2.61924L16.0433 3.27305C16.0317 3.35232 16.0257 3.27706 16.0189 3.45781L16.0047 3.52211C16.0003 3.534 16.0027 3.51112 15.994 3.55076C15.986 3.58661 15.9762 4.19829 16.0006 4.26902C16.0244 4.33802 16.0162 4.43897 16.0354 4.49573C16.0519 4.54477 16.0389 4.55388 16.0456 4.60306C16.0585 4.69921 16.0569 4.58699 16.0696 4.68379C16.0717 4.69932 16.0694 4.72221 16.0717 4.73384C16.0799 4.77398 16.062 4.75921 16.0979 4.7734L16.0979 4.77365Z" />
</svg>