<svg width="25" height="17" viewBox="0 0 25 17" xmlns="http://www.w3.org/2000/svg">
  <path
    d="M0.797224 1.82183L11.2139 7.52958C11.5639 7.72083 12.0167 7.8115 12.4722 7.8115C12.9278 7.8115 13.3806 7.72083 13.7306 7.52958L24.1472 1.82183C24.8264 1.44925 25.4681 0 24.2222 0H0.723613C-0.52222 0 0.119447 1.44925 0.797224 1.82183ZM24.4625 4.94275L13.7306 10.6477C13.2583 10.8998 12.9278 10.9296 12.4722 10.9296C12.0167 10.9296 11.6861 10.8998 11.2139 10.6477C10.7417 10.3955 1.30695 5.35075 0.536113 4.94133C-0.00555325 4.65233 2.24453e-06 4.99092 2.24453e-06 5.25158V15.5833C2.24453e-06 16.1783 0.786113 17 1.38889 17H23.6111C24.2139 17 25 16.1783 25 15.5833V5.253C25 4.99233 25.0056 4.65375 24.4625 4.94275Z" />
</svg>