<svg width="26" height="29" viewBox="0 0 26 29" xmlns="http://www.w3.org/2000/svg">
  <path
    d="M0.0467737 0.860901C0.207487 0.369204 0.720106 0.104882 1.19393 0.269728L2.18315 0.613632C3.32477 1.06554 4.1505 1.72777 4.72685 3.6036L24.2646 6.02798C24.755 6.08767 25.1069 6.54526 25.0571 7.05685L24.0374 17.4138C23.9903 17.8912 23.5996 18.2579 23.1368 18.2579L8.07689 18.2692L7.06828 20.5004C6.91865 20.8784 6.94913 21.066 6.96298 21.0915C6.97961 21.1143 7.12924 21.2081 7.50608 21.2081H23.1784C23.4472 21.2081 23.7076 21.3331 23.8794 21.552L24.8603 22.7883C25.1762 23.1891 25.1236 23.7802 24.7356 24.1099C24.5666 24.252 24.3616 24.3231 24.1621 24.3231C23.8988 24.3231 23.6384 24.2066 23.461 23.9792L22.7572 23.0867H20.8979V23.5017C21.8262 23.7916 22.5106 24.6784 22.5106 25.7328C22.5106 27.0232 21.4964 28.0719 20.2523 28.0719C19.0054 28.0719 17.994 27.0232 17.994 25.7328C17.994 24.6755 18.6784 23.7916 19.6067 23.5017V23.0867H10.1052V23.5017C11.0335 23.7916 11.7179 24.6784 11.7179 25.7328C11.7179 27.0232 10.7037 28.0719 9.45958 28.0719C8.21267 28.0719 7.20128 27.0232 7.20128 25.7328C7.20128 24.6755 7.88293 23.7916 8.81118 23.5017V23.0867H7.50608C6.3229 23.0867 5.74101 22.5723 5.46115 22.1431C5.17851 21.7083 4.93744 20.9494 5.4085 19.75L6.55843 17.2063L3.02828 4.26583C2.62927 2.88738 2.19701 2.62874 1.57355 2.38147L0.617582 2.04893C0.143756 1.88409 -0.111169 1.3526 0.0467737 0.860901ZM19.2797 25.7328C19.2797 26.2842 19.712 26.7304 20.244 26.7304C20.776 26.7304 21.2083 26.2842 21.2083 25.7328C21.2083 25.4401 21.0836 25.1786 20.8896 24.9967V25.1814C20.8896 25.5509 20.5987 25.855 20.244 25.855C19.8865 25.855 19.5956 25.5538 19.5956 25.1814V24.9938C19.4044 25.1786 19.2797 25.4401 19.2797 25.7328ZM8.4953 25.7328C8.4953 26.2842 8.92756 26.7304 9.45958 26.7304C9.99159 26.7304 10.4211 26.2842 10.4211 25.7328C10.4211 25.4401 10.2992 25.1786 10.1052 24.9967V25.1814C10.1052 25.5509 9.81426 25.855 9.45958 25.855C9.10213 25.855 8.81118 25.5538 8.81118 25.1814V24.9967C8.61999 25.1786 8.4953 25.4401 8.4953 25.7328ZM8.21821 16.3906L10.9531 16.3877L10.6705 14.7563L7.75269 14.6824L8.21821 16.3906ZM14.4999 11.0643L14.3613 9.39596L10.7342 9.05775L11.0445 10.8426L14.4999 11.0643ZM11.233 11.9312L11.5405 13.7047L14.7271 13.7843L14.5913 12.1444L11.233 11.9312ZM14.2699 8.30741L14.1341 6.66179L10.2354 6.17862L10.543 7.96351L14.2699 8.30741ZM15.3201 8.40404L19.0525 8.74795L19.083 7.2757L15.1843 6.79253L15.3201 8.40404ZM15.4087 9.4926L15.5445 11.1297L18.9998 11.3485L19.0303 9.82513L15.4087 9.4926ZM20.0334 11.4139L22.7877 11.5901L22.9262 10.1889L20.0639 9.92461L20.0334 11.4139ZM20.0112 12.4883L19.9835 13.9179L22.5522 13.9832L22.6824 12.6588L20.0112 12.4883ZM18.9777 12.4229L15.636 12.2097L15.769 13.8099L18.9472 13.8895L18.9777 12.4229ZM15.8576 14.8871L15.9823 16.3849L18.8973 16.382L18.9278 14.9638L15.8576 14.8871ZM14.8158 14.8615L11.729 14.7819L12.0088 16.3877L14.946 16.3849L14.8158 14.8615ZM7.4562 13.6024L10.482 13.6791L10.1662 11.8658L6.92696 11.6612L7.4562 13.6024ZM6.6277 10.5641L9.97774 10.7773L9.66185 8.96111L6.09846 8.63142L6.6277 10.5641ZM5.7992 7.52297L9.47343 7.86403L9.15755 6.04504L5.26441 5.56187L5.7992 7.52297ZM20.1165 7.40644L20.0888 8.84742L23.0343 9.12027L23.1673 7.78445L20.1165 7.40644ZM22.4469 15.0519L19.9614 14.9894L19.9336 16.3792L22.3166 16.3764L22.4469 15.0519Z" />
</svg>