<svg width="10" height="11" viewBox="0 0 10 11" fill="none" xmlns="http://www.w3.org/2000/svg">
<path d="M5.99376 6.35584C6.82338 6.35584 7.61902 6.05069 8.20565 5.50751C8.79228 4.96433 9.12185 4.22763 9.12185 3.45946C9.12185 2.69129 8.79228 1.95459 8.20565 1.41141C7.61902 0.868233 6.82338 0.56308 5.99376 0.56308H2.86567C2.75505 0.56308 2.64897 0.603767 2.57075 0.676191C2.49253 0.748614 2.44859 0.846841 2.44859 0.949264V5.58347H1.19735C1.08674 5.58347 0.98065 5.62416 0.902433 5.69658C0.824216 5.76901 0.780273 5.86723 0.780273 5.96966C0.780273 6.07208 0.824216 6.17031 0.902433 6.24273C0.98065 6.31515 1.08674 6.35584 1.19735 6.35584H2.44859V7.12821H1.19735C1.08674 7.12821 0.98065 7.16889 0.902433 7.24132C0.824216 7.31374 0.780273 7.41197 0.780273 7.51439C0.780273 7.61681 0.824216 7.71504 0.902433 7.78747C0.98065 7.85989 1.08674 7.90058 1.19735 7.90058H2.44859V9.44531C2.44859 9.54773 2.49253 9.64596 2.57075 9.71838C2.64897 9.79081 2.75505 9.8315 2.86567 9.8315C2.97628 9.8315 3.08237 9.79081 3.16059 9.71838C3.2388 9.64596 3.28275 9.54773 3.28275 9.44531V7.90058H5.78522C5.89583 7.90058 6.00192 7.85989 6.08014 7.78747C6.15835 7.71504 6.2023 7.61681 6.2023 7.51439C6.2023 7.41197 6.15835 7.31374 6.08014 7.24132C6.00192 7.16889 5.89583 7.12821 5.78522 7.12821H3.28275V6.35584H5.99376ZM3.28275 1.33545H5.99376C6.60215 1.33545 7.18562 1.55923 7.61581 1.95756C8.04601 2.35589 8.28769 2.89614 8.28769 3.45946C8.28769 4.02278 8.04601 4.56303 7.61581 4.96136C7.18562 5.35969 6.60215 5.58347 5.99376 5.58347H3.28275V1.33545Z" fill="#007ABE" stroke="#007ABE" stroke-width="0.75"/>
</svg>
