<svg width="26" height="27" viewBox="0 0 26 27" xmlns="http://www.w3.org/2000/svg">
  <path fill-rule="evenodd" clip-rule="evenodd"
    d="M24.2468 19.9324C24.2468 21.3568 24.1414 22.3763 23.2893 23.5696C22.8245 24.2205 22.6978 24.3521 22.0712 24.8319C20.2407 26.2334 17.5059 26.1904 15.7116 24.7395C13.1462 22.6652 12.9427 18.8406 15.1938 16.5233C17.4164 14.2353 21.0709 14.386 23.1496 17.0242C23.6123 17.6113 24.2468 18.9053 24.2468 19.9324ZM1.05423 6.59071C1.34281 6.65992 2.57717 7.24832 2.93168 7.40832C3.20801 7.53305 4.67805 8.21334 4.86283 8.22918C4.86283 8.93137 4.86283 9.63354 4.86283 10.3358C4.86283 11.0289 4.70474 11.9157 5.37443 11.9157C5.98634 11.9157 5.88608 11.2514 5.88605 10.6283C5.88598 10.0042 5.88603 9.37999 5.88603 8.75582C6.39654 8.87828 9.40861 10.3698 9.69461 10.3943V20.5761L2.1537 17.2207C1.77854 17.049 1.39183 16.8979 1.05425 16.714V6.59071H1.05423ZM10.263 9.51652L7.49675 8.32655C7.25687 8.21106 6.72321 8.01603 6.62501 7.87806L14.091 4.5626C14.3661 4.43673 14.5676 4.33286 14.8434 4.21903C15.116 4.10653 15.1074 4.14882 15.5874 4.38664L18.6192 5.71295C18.4454 5.95709 15.0229 7.36762 14.4696 7.64401C14.154 7.80161 13.7567 7.96931 13.4382 8.10369L10.2631 9.51652H10.263ZM1.85006 5.83L10.0286 2.07126C10.302 1.95436 10.2058 1.96998 10.7552 2.22197L13.0107 3.23563C13.2471 3.34943 13.5399 3.48848 13.7874 3.54786C13.776 3.55605 13.7568 3.55172 13.7512 3.56908L13.6396 3.62981C13.5588 3.6709 13.5115 3.69222 13.4469 3.72405C13.3229 3.78519 13.2345 3.81902 13.0895 3.88278L5.64288 7.21991C5.3574 7.35239 5.40537 7.41165 4.88185 7.15633C4.64727 7.04194 2.06985 5.84884 1.85004 5.83002L1.85006 5.83ZM0.0310296 5.65442V17.0651C0.0310296 17.5092 0.552342 17.6139 1.07332 17.8647C1.52301 18.0811 1.93218 18.2339 2.38073 18.4499C2.83042 18.6663 3.2396 18.8191 3.68817 19.035C4.89767 19.6172 6.40725 20.2114 7.61043 20.7905C8.06012 21.007 8.46927 21.1598 8.91784 21.3757C9.14739 21.4862 10.0708 21.922 10.263 21.922C10.3287 21.922 12.4686 20.9678 12.6505 20.8687C12.6505 21.6185 13.0299 22.7547 13.2745 23.2692C13.7141 24.1942 14.2321 24.7664 14.9388 25.418L15.8142 26.0383C17.5913 27.0341 19.7761 27.2451 21.6131 26.2914C22.222 25.9752 23.158 25.3904 23.5888 24.8142C23.6723 24.7024 23.6913 24.6942 23.7777 24.5991C24.8142 23.458 25.2699 21.7945 25.2699 20.1665C25.2699 18.8824 24.6604 17.2106 23.8342 16.261C23.3927 15.7534 23.6237 15.9459 23.0706 15.4671C20.8504 13.5455 17.8037 13.367 15.4243 15.0052C14.5278 15.6224 13.8822 16.3665 13.3511 17.3769C12.8134 18.3999 12.6893 19.6317 12.6505 19.6984C12.5748 19.8283 10.8999 20.5606 10.7178 20.5762V10.4528L17.2138 7.54324C17.4862 7.42304 19.1802 6.61086 19.415 6.59076C19.415 7.04265 19.3294 11.4079 19.484 11.7277C19.7371 12.2513 20.4382 12.033 20.4382 11.4476V5.77154C20.4382 5.29357 19.879 5.18016 19.3992 4.96851L12.9022 2.05994C9.37871 0.541091 11.0435 0.571527 7.59941 2.03483C7.18532 2.21077 6.74682 2.42739 6.33268 2.60333C5.88501 2.79355 5.44691 3.0109 5.02546 3.18872C4.14819 3.55886 3.33454 3.9612 2.45096 4.34207L0.543175 5.18696C0.365518 5.2669 0.0310059 5.40534 0.0310059 5.65452L0.0310296 5.65442Z" />
  <path fill-rule="evenodd" clip-rule="evenodd"
    d="M17.9939 21.6294C17.5752 21.3408 16.5002 19.8739 16.0612 19.8739C15.7802 19.8739 15.5496 20.1113 15.5496 20.4005C15.5496 20.715 15.8712 20.9366 16.047 21.1174C16.3211 21.3995 17.6734 22.9168 17.937 22.9168C18.2838 22.9168 18.4195 22.6845 18.605 22.4926L21.9019 19.0986C22.0739 18.9217 22.3709 18.7217 22.3709 18.411C22.3709 18.1217 22.1403 17.8843 21.8593 17.8843C21.5814 17.8843 21.4575 18.091 21.3049 18.2499L17.9939 21.6294V21.6294Z" />
</svg>