<svg width="18" height="18" viewBox="0 0 18 18" fill="none" xmlns="http://www.w3.org/2000/svg">
<path d="M10.9979 8.99994L17.0896 2.92244C17.3563 2.65567 17.5062 2.29386 17.5062 1.9166C17.5062 1.53934 17.3563 1.17753 17.0896 0.910771C16.8228 0.644007 16.461 0.494141 16.0837 0.494141C15.7065 0.494141 15.3447 0.644007 15.0779 0.910771L9.0004 7.00244L2.9229 0.910771C2.65614 0.644007 2.29433 0.494141 1.91707 0.494141C1.53981 0.494141 1.178 0.644007 0.911235 0.910771C0.644472 1.17753 0.494605 1.53934 0.494605 1.9166C0.494605 2.29386 0.644472 2.65567 0.911235 2.92244L7.0029 8.99994L0.911235 15.0774C0.778453 15.2091 0.673062 15.3658 0.601139 15.5385C0.529217 15.7111 0.492188 15.8963 0.492188 16.0833C0.492188 16.2703 0.529217 16.4555 0.601139 16.6281C0.673062 16.8007 0.778453 16.9574 0.911235 17.0891C1.04293 17.2219 1.19962 17.3273 1.37225 17.3992C1.54489 17.4711 1.73005 17.5082 1.91707 17.5082C2.10409 17.5082 2.28925 17.4711 2.46189 17.3992C2.63452 17.3273 2.7912 17.2219 2.9229 17.0891L9.0004 10.9974L15.0779 17.0891C15.2096 17.2219 15.3663 17.3273 15.5389 17.3992C15.7116 17.4711 15.8967 17.5082 16.0837 17.5082C16.2708 17.5082 16.4559 17.4711 16.6286 17.3992C16.8012 17.3273 16.9579 17.2219 17.0896 17.0891C17.2223 16.9574 17.3277 16.8007 17.3997 16.6281C17.4716 16.4555 17.5086 16.2703 17.5086 16.0833C17.5086 15.8963 17.4716 15.7111 17.3997 15.5385C17.3277 15.3658 17.2223 15.2091 17.0896 15.0774L10.9979 8.99994Z" fill="#007ABE"/>
</svg>
