<svg width="23" height="22" viewBox="0 0 23 22" fill="none" xmlns="http://www.w3.org/2000/svg">
<path fill-rule="evenodd" clip-rule="evenodd" d="M10.3812 14.38L10.1744 14.3473C10.0408 14.3652 9.63324 14.214 9.51778 14.1604C9.15455 13.9919 8.82293 13.7124 8.61369 13.3779C8.50443 13.2032 8.41513 13.0424 8.34582 12.808C8.20542 12.3335 8.23304 11.8193 8.40855 11.381C8.55335 11.0193 8.69638 10.876 8.91335 10.6266C8.94805 10.5867 8.98595 10.5577 9.02236 10.5197C9.0585 10.4819 9.0849 10.4447 9.12608 10.416C9.14502 10.377 9.13727 10.3945 9.1741 10.3592C9.18723 10.3466 9.18592 10.3463 9.19924 10.3352C9.23285 10.3074 9.2009 10.3302 9.23143 10.3131C9.24672 10.2692 9.37271 10.1434 9.42027 10.117C9.43848 10.0786 9.46021 10.0581 9.4926 10.0277L9.57792 9.95761C9.59164 9.90148 10.5692 8.94263 10.613 8.86829C10.6514 8.89583 10.7016 8.95039 10.7366 8.98746L11.2037 9.48236C11.2489 9.53191 11.2805 9.56322 11.3195 9.60764L11.5491 9.8502C11.5555 9.85389 11.5569 9.85002 11.5743 9.86993C11.595 9.89363 11.5841 9.88135 11.5938 9.90267C11.6475 9.94248 11.8138 10.1243 11.8649 10.1804L12.1295 10.4568C12.2202 10.5507 12.2986 10.6407 12.3924 10.7349C12.4809 10.8238 12.5623 10.9172 12.6551 11.0132L13.4516 11.8522C13.505 11.9099 13.688 12.0829 13.7133 12.1356C13.6861 12.1848 13.1067 12.7661 13.0291 12.8509L12.5142 13.3821C12.4122 13.4906 12.1886 13.7273 12.0772 13.8232C12.0374 13.8574 12.0239 13.8662 11.9828 13.8977C11.7074 14.1095 11.3698 14.2679 11.0172 14.3351C10.8122 14.3741 10.5981 14.387 10.3812 14.38L10.3812 14.38ZM7.85974 0.514803C7.85676 0.516668 7.85273 0.518658 7.85047 0.519805C7.84826 0.520952 7.84407 0.523336 7.84134 0.524663L7.60763 0.600829C7.46808 0.658694 7.24906 0.723173 7.08868 0.792635C7.05131 0.808822 7.00322 0.827609 6.95949 0.845212C6.39736 1.07144 5.6985 1.42938 5.19899 1.75731L4.36446 2.34598C4.32872 2.37283 4.3002 2.39751 4.26498 2.42689L3.78023 2.83422C3.59264 2.99701 3.40688 3.20109 3.24189 3.35461C3.03266 3.54928 2.58382 4.08291 2.41396 4.3048C2.25044 4.51842 1.97874 4.90107 1.83145 5.13787L1.45124 5.79576L1.39271 5.90658C1.36748 5.96622 1.34205 6.00938 1.31654 6.06047C1.18514 6.32335 0.919786 6.92607 0.851694 7.16531C0.849086 7.17146 0.819544 7.24144 0.819119 7.24232C0.787413 7.35808 0.742277 7.46279 0.707926 7.57895C0.462639 8.40873 0.253461 9.35061 0.259806 10.2172L0.240234 10.2173V11.0927C0.274771 11.1049 0.252147 11.0837 0.259806 11.1286C0.260619 11.1335 0.260804 11.179 0.260897 11.1877C0.262987 11.3954 0.29079 11.6839 0.312563 11.8861C0.336592 12.1095 0.379508 12.4116 0.428121 12.6281C0.575848 13.2859 0.75665 13.9992 1.02785 14.6173C1.11117 14.8073 1.20275 15.0207 1.29421 15.2127C1.34092 15.3108 1.3897 15.3973 1.43966 15.4985C1.52351 15.6683 1.83821 16.1942 1.9186 16.3128C1.98009 16.4036 2.03579 16.488 2.09604 16.5788L2.85191 17.5525C3.02111 17.7513 3.31762 18.0571 3.48481 18.218C3.81377 18.5347 4.40384 19.038 4.79767 19.291C5.02342 19.4361 5.30511 19.5998 5.58742 19.5971L5.59826 19.597C6.21589 19.5542 6.52457 18.7736 6.09414 18.3544C5.92338 18.1881 5.67404 18.0484 5.47866 17.8966L4.88648 17.416C4.75888 17.3106 4.35589 16.916 4.2614 16.8143L3.95108 16.4633L3.26376 15.5418C3.2275 15.4902 3.18564 15.4301 3.15939 15.3832C3.12768 15.3266 3.09459 15.2775 3.06105 15.218C3.04228 15.1847 3.03131 15.1693 3.01101 15.1357C3.01027 15.1345 2.98469 15.0909 2.98462 15.0907C2.96442 15.0481 2.9747 15.0863 2.97193 15.0462C2.93236 15.0201 2.94054 15.0277 2.9307 14.9784C2.88722 14.9512 2.61931 14.3788 2.58126 14.2971C2.35951 13.8205 2.18214 13.2648 2.05083 12.7496C2.0176 12.6192 1.878 11.9905 1.89359 11.8903C1.89165 11.8874 1.88995 11.8833 1.88902 11.881C1.88811 11.8786 1.88586 11.8745 1.88486 11.8715L1.87646 11.809L1.82485 11.3242L1.80807 10.9869C1.79363 10.9235 1.78645 10.7513 1.80715 10.6958C1.7996 10.6821 1.80267 10.6943 1.79692 10.6661C1.79403 10.652 1.79403 10.6466 1.79346 10.6322L1.80615 10.2886C1.80643 10.2662 1.80345 10.2382 1.80537 10.2165L1.81915 10.1638C1.79955 10.1003 1.821 10.0019 1.82757 9.93033C1.83155 9.86791 1.83327 9.81795 1.84146 9.75571L1.86927 9.58714C1.84387 9.42014 2.08194 8.42868 2.14234 8.21162C2.18801 8.04751 2.50816 7.09156 2.5837 7.01665C2.60135 6.95669 2.69425 6.75617 2.71865 6.7322C2.83924 6.4633 3.04242 6.11837 3.20316 5.86338L3.47395 5.46221C3.5687 5.33023 3.66811 5.21057 3.76413 5.0805C3.86138 4.9488 3.97533 4.83492 4.07085 4.71458C4.19945 4.55253 4.43359 4.34227 4.56467 4.1985C4.61764 4.14038 4.6808 4.09182 4.7389 4.03507C4.79713 3.97819 5.03774 3.75785 5.09582 3.72764C5.10507 3.71786 5.10903 3.71289 5.11824 3.70493C5.14377 3.68292 5.12461 3.69928 5.13709 3.69177C5.18031 3.63893 5.25215 3.59341 5.31218 3.54828C5.35051 3.51944 5.36076 3.50707 5.39801 3.47801C5.44853 3.43861 5.45027 3.43099 5.48662 3.42486C5.49849 3.40543 5.48133 3.41366 5.52021 3.39759C5.55077 3.33202 6.22183 2.91975 6.32836 2.851C6.39363 2.80889 6.47258 2.76931 6.54324 2.72794C6.63904 2.67183 7.12364 2.41026 7.22481 2.39405C7.25916 2.35216 7.44351 2.28103 7.52296 2.25303C7.63841 2.20187 7.76205 2.1567 7.87643 2.11348C8.04772 2.04871 8.88956 1.76316 9.02632 1.77565L9.07484 1.75486C9.17512 1.72067 10.0211 1.57506 10.1026 1.58632C10.1441 1.55921 10.4033 1.55308 10.4856 1.54123L10.8841 1.51933C11.0894 1.50488 11.1822 1.50945 11.3747 1.5128C11.4241 1.51368 11.4875 1.50569 11.5283 1.52553L11.6207 1.51915C11.7102 1.52616 11.9467 1.50816 12.0051 1.55226C12.1915 1.52566 13.3508 1.71999 13.5207 1.78436C13.572 1.78861 13.5487 1.78074 13.5702 1.80146C13.6841 1.81005 13.8507 1.87191 13.9553 1.90074C14.3287 2.00363 15.0212 2.25524 15.3526 2.4298C15.4658 2.48938 15.5695 2.52629 15.6787 2.58771C16.2101 2.88644 16.3332 2.9461 16.8648 3.3211C17.2893 3.62054 17.906 4.15053 18.2653 4.55834C18.3014 4.59934 18.3389 4.63472 18.3751 4.67676C18.6122 4.9524 19.0066 5.43172 19.2066 5.75432C19.7563 6.64105 20.1031 7.33485 20.3829 8.38057C20.5278 8.92225 20.5271 9.07915 20.6132 9.56887C20.6375 9.70708 20.6374 9.84991 20.6563 9.99L20.6722 10.2999L20.6799 10.6271C20.6813 10.7105 20.6853 11.0986 20.6592 11.139C20.671 11.1985 20.6625 11.274 20.651 11.331L20.62 11.6731C20.5556 12.1549 20.4677 12.6015 20.3385 13.0523C20.2785 13.2616 20.2072 13.4649 20.1362 13.6739C20.1181 13.7273 20.0954 13.7835 20.0775 13.8302L19.9565 14.115C19.9345 14.1628 19.9245 14.2089 19.8957 14.2549C19.8843 14.3039 19.8509 14.3589 19.8288 14.406C19.8161 14.4332 19.807 14.4577 19.7967 14.4814C19.7883 14.5007 19.7659 14.5353 19.7635 14.5387C19.7298 14.6088 19.6971 14.67 19.6655 14.7336L19.5675 14.9229C19.5446 14.9623 19.5318 14.9755 19.5088 15.0081L19.353 15.2722C19.0686 15.7381 18.5139 16.4979 18.1279 16.8794C18.0778 16.9289 17.9018 17.1357 17.8379 17.159C17.8297 17.1885 17.8134 17.1956 17.785 17.2224C17.7597 17.2463 17.7497 17.2621 17.7181 17.2743C17.6954 17.3229 17.5321 17.4477 17.4797 17.495C17.2604 17.6925 16.7094 18.0817 16.4485 18.2489C16.2657 18.366 16.0856 18.4847 15.8964 18.5897L15.3016 18.89C15.2001 18.9325 15.0987 18.9796 14.9894 19.0256C14.5406 19.2147 14.1184 19.3382 13.6377 19.4694L12.9079 19.6374C12.6861 19.6818 12.2887 19.6857 12.0584 19.6728C11.7617 19.6561 11.5178 19.6347 11.2476 19.5791C10.2117 19.3661 9.32782 18.8729 8.77378 18.031C8.6222 17.8007 8.37514 17.2929 8.39691 17.084C8.37201 17.05 8.36726 16.9669 8.36473 16.9157C8.37107 16.5767 8.35577 16.3894 8.45359 16.079L8.47768 16.0154C8.49756 15.8596 8.70384 15.5325 8.73084 15.4622C8.79957 15.4866 8.86048 15.5207 8.92517 15.5515C8.98952 15.5822 9.04964 15.6054 9.11257 15.6306C9.23544 15.6798 9.36817 15.7321 9.51476 15.769C9.58389 15.7831 9.77761 15.8169 9.81921 15.8473C9.89135 15.841 10.1785 15.9015 10.3602 15.9028L10.9321 15.8936L10.9509 15.8855C10.9541 15.8845 10.9575 15.8832 10.9611 15.8822L11.2517 15.8424C11.3635 15.8052 11.537 15.7784 11.6626 15.7429C12.3635 15.5446 12.9449 15.147 13.4252 14.6438C13.4499 14.6179 13.4631 14.5996 13.4886 14.5748L14.0586 13.9905C14.1514 13.8973 14.2258 13.8151 14.311 13.7259C14.3541 13.6807 14.3907 13.6449 14.4425 13.5923L15.8372 12.1476C15.8217 12.1137 15.7128 12.0046 15.6726 11.9595C15.6684 11.9568 15.6564 11.9498 15.6473 11.9397C15.6173 11.9066 15.6397 11.9345 15.6307 11.9118C15.6028 11.8927 15.5277 11.8146 15.5016 11.7849C15.4671 11.7455 15.4111 11.6922 15.3799 11.6521C15.3493 11.6311 15.3197 11.5982 15.3008 11.5593C15.2303 11.525 15.1975 11.4595 15.1347 11.3938C15.0962 11.3536 14.999 11.2661 14.9819 11.2237C14.9991 11.209 15.0056 11.1957 15.0309 11.1882C15.0522 11.1509 15.06 11.1469 15.0906 11.1172C15.1143 11.0941 15.12 11.0811 15.1514 11.0726C15.1664 11.0359 15.1994 11.0135 15.2259 10.9879C15.2467 10.9679 15.2726 10.9346 15.2995 10.9276C15.327 10.8798 15.3433 10.8732 15.3843 10.8335L15.9774 10.2595C16.0495 10.1898 16.5987 9.63996 16.6669 9.60352C16.6746 9.5712 16.7441 9.50394 16.7666 9.47263C16.8011 9.42451 16.823 9.38232 16.8457 9.32822C16.8577 9.28666 16.8661 9.21779 16.8925 9.19171C16.8875 9.13304 16.8987 9.07207 16.896 9.00828C16.893 8.94062 16.8736 8.91694 16.88 8.85194C16.8471 8.82251 16.8458 8.7818 16.8247 8.73711C16.8068 8.69915 16.7903 8.67498 16.7672 8.6389C16.7111 8.5514 16.6685 8.54187 16.6167 8.46412C16.5907 8.46226 16.5307 8.40837 16.4898 8.38688C16.2474 8.25973 16.0343 8.31426 15.9577 8.30589C15.9435 8.31629 15.9582 8.30844 15.9327 8.31955C15.931 8.32028 15.9053 8.3293 15.905 8.32939C15.88 8.33651 15.8614 8.33885 15.8358 8.34285C15.8145 8.36106 15.7655 8.37431 15.7356 8.39122C15.5832 8.47713 15.4474 8.63361 15.3203 8.75809C15.2639 8.81335 15.2186 8.86396 15.1647 8.90691C15.1493 8.93274 15.0931 8.98038 15.0528 9.01995C15.0158 9.0563 14.9779 9.09952 14.9314 9.12453C14.9228 9.15392 14.8251 9.24065 14.7986 9.26252C14.7959 9.26585 14.7941 9.26852 14.7832 9.28021C14.7335 9.33338 14.5825 9.482 14.5403 9.50489C14.5329 9.53408 14.4536 9.60081 14.4327 9.61827C14.4049 9.65072 14.3461 9.70632 14.3085 9.74359C14.2675 9.78425 14.2279 9.83206 14.1736 9.86106C14.1684 9.88929 14.129 9.91799 14.1072 9.93945C14.0804 9.96585 14.0626 9.99047 14.0273 10.0052C14.0118 10.0443 13.9539 10.0943 13.9169 10.1087L13.6286 9.80917C13.5931 9.7765 13.5615 9.74483 13.5391 9.70077C13.5144 9.68921 13.4747 9.64351 13.4543 9.6231C13.4252 9.59398 13.3989 9.57025 13.3867 9.53879C13.3286 9.50514 13.2962 9.46031 13.2545 9.41352C13.2055 9.35862 13.1544 9.3254 13.1368 9.2822C13.1038 9.25709 13.0508 9.20094 13.0204 9.16717C13.0043 9.14928 12.9348 9.08134 12.9268 9.05393C12.8731 9.02608 12.8413 8.9892 12.82 8.941C12.7714 8.92379 12.6951 8.81561 12.6416 8.76398C12.6086 8.73208 12.4952 8.62585 12.4722 8.57863C12.5662 8.51611 12.6314 8.423 12.7177 8.35269C12.7371 8.32106 12.7779 8.28601 12.8094 8.25545C12.841 8.22483 12.8764 8.18561 12.9105 8.16687L13.0618 8.0222C13.0721 8.00106 13.1385 7.92963 13.1794 7.90591C13.2216 7.85694 13.2708 7.82526 13.3188 7.77785C13.3639 7.73312 13.3957 7.69279 13.4421 7.64868C13.6098 7.48915 14.0238 7.11915 14.1495 6.94826L14.2003 6.8769C14.203 6.84076 14.2192 6.8174 14.2301 6.79184C14.2668 6.7376 14.2754 6.64386 14.2822 6.56842C14.2898 6.48293 14.2604 6.39871 14.2629 6.32285L14.2397 6.27864C14.2311 6.26002 14.2301 6.25618 14.2209 6.23801C14.1741 6.14526 14.1783 6.13431 14.0997 6.03604C14.0087 5.92237 13.8984 5.89507 13.859 5.84032C13.8049 5.83688 13.7302 5.79718 13.6529 5.78244C13.3253 5.72008 13.0969 5.84618 12.8913 6.04869L12.4939 6.43352C12.1644 6.75619 11.7384 7.15063 11.4236 7.47028C11.3607 7.4379 10.8274 6.85023 10.721 6.74059C10.6818 6.70026 10.6638 6.66534 10.611 6.64838C10.5606 6.72607 9.64806 7.65561 9.50239 7.81055L9.03013 8.30005C8.89428 8.43781 8.17336 9.20309 8.07528 9.2848C8.07397 9.28708 8.07192 9.29025 8.07103 9.29147L8.05671 9.31097C8.02556 9.34887 8.01531 9.35971 7.98307 9.37109C7.97367 9.40137 7.98636 9.37104 7.97184 9.39503L7.93338 9.44072C7.67872 9.70944 7.57332 9.79719 7.33582 10.1282L7.1572 10.4065C7.14824 10.4321 7.1429 10.4476 7.12967 10.4735C7.12801 10.4768 7.11578 10.4979 7.1123 10.503C7.09321 10.5314 7.10969 10.5091 7.09693 10.5226C7.07429 10.59 7.02789 10.6686 6.99487 10.7458C6.89509 10.979 6.81903 11.2345 6.76646 11.4841C6.69542 11.8215 6.67828 12.3256 6.73466 12.6766C6.8271 13.2524 7.03986 13.8277 7.37906 14.2906C7.41732 14.3427 7.49671 14.4324 7.51601 14.4807C7.47083 14.5647 7.40681 14.6366 7.36216 14.7139C7.20152 14.9919 7.12754 15.1334 7.00364 15.4653C6.99539 15.493 6.98809 15.513 6.97956 15.5392L6.95274 15.602C6.95188 15.6001 6.9492 15.6079 6.94715 15.6107C6.95507 15.6937 6.72802 16.2362 6.81126 17.0088L6.87292 17.4649C6.87477 17.4675 6.87634 17.4714 6.87726 17.4734L6.91426 17.5952C6.92454 17.6413 6.93808 17.6884 6.9492 17.7377C6.98797 17.8369 7.01888 17.9564 7.05433 18.0515C7.32174 18.7692 7.82855 19.4077 8.40644 19.8916C8.83939 20.2541 9.36472 20.5559 9.89512 20.7585C10.1074 20.8396 10.3321 20.9127 10.5496 20.9703C10.6046 20.9799 10.5748 20.9762 10.5871 20.9884C10.6501 20.9911 11.1048 21.0997 11.308 21.1201C11.5641 21.1459 11.8192 21.1858 12.0836 21.1852C12.3563 21.1845 12.6416 21.188 12.906 21.1537C12.9886 21.143 13.0396 21.1505 13.1167 21.1432L13.6244 21.0307C13.9403 20.9565 14.3354 20.8805 14.6337 20.7654C14.8668 20.6755 15.1338 20.6007 15.4148 20.4926L16.1468 20.1835C16.1694 20.1562 16.3162 20.0813 16.3675 20.0708L17.5298 19.3676C17.5923 19.3238 17.8484 19.1294 17.894 19.1193C17.9199 19.0741 17.9554 19.0486 18.0113 19.0268C18.0163 19.0076 18.0472 18.9912 18.0811 18.9661C18.2356 18.8514 18.4706 18.6761 18.5992 18.556L18.8746 18.3019C19.2197 17.9676 19.3412 17.8326 19.655 17.483C19.7723 17.3522 20.0015 17.0361 20.1186 16.8901C20.2408 16.7377 20.6722 16.1028 20.7629 15.9385C20.798 15.875 20.8285 15.8231 20.8604 15.7722C20.8654 15.7642 20.8868 15.7296 20.8874 15.7277C20.9106 15.6601 20.8567 15.724 20.9225 15.5965C20.9829 15.4795 21.0502 15.362 21.1099 15.2454C21.1675 15.1329 21.2212 15.0064 21.2808 14.8894C21.3941 14.6667 21.5399 14.2518 21.5909 14.1583C21.606 14.1048 21.618 14.0714 21.639 14.0167L21.6917 13.8886C21.8147 13.4825 21.9632 13.0246 22.048 12.577C22.1406 12.0883 22.215 11.602 22.2211 11.0933C22.2282 11.0529 22.2119 11.0795 22.2402 11.0697V10.2174C22.2154 10.2053 22.2282 10.2378 22.221 10.1932C22.221 9.67112 22.1268 9.0084 22.0186 8.51324C21.9487 8.19328 21.8241 7.71375 21.7132 7.3999C21.6836 7.31614 21.6043 7.12014 21.5989 7.04734C21.5607 7.01608 21.544 6.93459 21.5289 6.8817C21.4964 6.82481 21.4581 6.70956 21.43 6.64343C21.3513 6.45763 21.1856 6.08897 21.1016 5.9435C21.0112 5.78701 20.9465 5.63149 20.8585 5.49099C20.7646 5.34105 20.6908 5.20068 20.5998 5.06677L20.3218 4.64967C20.2278 4.51025 20.1223 4.38622 20.0296 4.25715C19.9288 4.11669 19.407 3.5218 19.4047 3.51135C19.3572 3.4853 19.3621 3.49226 19.3443 3.45632C19.3154 3.43429 19.2962 3.40871 19.2637 3.37759C19.2361 3.35129 19.2179 3.33279 19.1904 3.30628C19.143 3.26053 19.0784 3.21281 19.0546 3.15733C19.0184 3.13505 18.9866 3.10657 18.9658 3.06918C18.9108 3.04476 18.7467 2.89275 18.7158 2.83637C18.6692 2.81535 18.6153 2.77155 18.5884 2.7253C18.5623 2.71887 18.5804 2.72889 18.5489 2.70767L18.4701 2.63103C18.4361 2.60203 18.386 2.56609 18.3489 2.53416L17.6061 1.97518C17.2845 1.73863 16.9041 1.52281 16.5266 1.31584C16.0671 1.06391 15.7913 0.964562 15.3322 0.767306C14.603 0.453963 13.3094 0.150784 12.524 0.075747C11.9854 0.0243 11.3873 -0.0208013 10.8365 0.0101207C10.3225 0.0389454 9.74349 0.0744922 9.25172 0.176024L8.53088 0.330544C8.2975 0.383981 8.05902 0.4552 7.85984 0.514714L7.85974 0.514803Z" fill="#555555"/>
</svg>
