<svg width="21" height="25" viewBox="0 0 21 25" fill="none" xmlns="http://www.w3.org/2000/svg">
<path fill-rule="evenodd" clip-rule="evenodd" d="M1.17743 3.69753L4.54377 2.68844C4.7252 2.63236 4.91171 2.58371 5.0985 2.52423L6.21789 2.18514C6.3153 2.15344 6.41764 2.12305 6.50212 2.09962L10.1542 1.00654C10.2346 1.00654 10.6183 1.14019 10.7132 1.16653C10.9044 1.21958 11.0973 1.27558 11.2814 1.33791L12.402 1.67574C13.3211 1.93825 14.2805 2.2566 15.1957 2.51798C16.1103 2.77917 17.1069 3.11511 18.0056 3.36451L19.131 3.69753C19.131 6.10778 19.131 8.51803 19.131 10.9283C19.131 13.7339 19.2499 15.5458 18.0423 17.9742C17.8253 18.4106 17.3004 19.2191 16.9584 19.6018C16.8117 19.7659 16.683 19.919 16.5274 20.0746C16.3914 20.2105 16.2122 20.4131 16.0703 20.5214L15.5838 20.9387C14.8119 21.561 13.6861 22.264 12.7777 22.6518C12.6703 22.6976 12.5817 22.7442 12.4684 22.7945C12.3539 22.8454 12.2692 22.8844 12.1527 22.9307C11.9282 23.02 11.7315 23.0968 11.504 23.1858C11.2824 23.2726 11.0702 23.3489 10.8399 23.4255C10.7198 23.4655 10.6111 23.5037 10.501 23.5386C10.0866 23.6701 10.2144 23.6742 9.80763 23.5384C8.90976 23.2387 8.41776 23.0474 7.51892 22.6637C6.54843 22.2493 5.24967 21.4379 4.46894 20.7425C4.4191 20.6981 4.39631 20.6903 4.34562 20.6399C4.16082 20.4559 3.96717 20.3177 3.77177 20.0839C3.72686 20.0302 3.72101 20.0134 3.66842 19.9613C3.01548 19.3138 2.33403 18.1588 1.99617 17.3403C1.61282 16.4115 1.26984 15.0861 1.2189 14.0503C1.21137 13.8974 1.20665 13.7824 1.19804 13.6192L1.17743 3.69753ZM0.191406 3.34833V13.003C0.191406 15.9106 1.10066 18.8321 3.12377 20.8552C3.87736 21.6087 4.63315 22.2249 5.57237 22.7615C5.64659 22.8039 5.70837 22.8449 5.7923 22.8907C6.50334 23.279 7.32218 23.6884 8.08257 23.9693C8.41807 24.0933 8.73023 24.2133 9.0783 24.3294C9.39398 24.4346 9.91517 24.6503 10.1953 24.6503C10.3095 24.6503 11.0483 24.3899 11.2147 24.3344C12.3039 23.9715 13.0488 23.6431 14.0641 23.137L14.4884 22.9041C15.037 22.6209 16.0589 21.9099 16.4863 21.5125L17.1847 20.8552C17.4789 20.5609 17.8585 20.1097 18.1041 19.7614C18.4081 19.3305 18.6314 18.994 18.8777 18.5014C19.6938 16.8689 20.1171 15.118 20.1171 12.9825V3.34833C20.1171 2.87303 19.6111 2.81694 19.1397 2.68229C18.1067 2.38728 17.0024 2.02935 15.9544 1.71814L11.4715 0.367207C11.2494 0.298593 10.3535 0 10.1337 0C10.001 0 9.90084 0.0500208 9.80067 0.0778034C9.68875 0.108894 9.59618 0.135543 9.48407 0.172056L7.57464 0.748199C6.75516 0.982221 5.82495 1.29873 5.01877 1.52011C4.21179 1.74169 3.28198 2.05808 2.46287 2.29201C2.02334 2.41754 1.62091 2.54831 1.18478 2.67781C0.711678 2.81829 0.191406 2.87217 0.191406 3.34833H0.191406Z" fill="#555555"/>
<path fill-rule="evenodd" clip-rule="evenodd" d="M9.66122 2.56773C9.66122 2.99982 10.1479 3.05697 10.3725 3.13009L15.344 4.62931C15.4504 4.66092 17.2367 5.21525 17.3439 5.21764V13.0441C17.3439 14.5033 17.0757 15.8104 16.4198 17.0706L16.0457 17.6825C15.9117 17.8843 15.7709 18.0592 15.6212 18.2441C15.3614 18.5651 15.1722 18.7389 14.8837 19.0061C14.7938 19.0895 14.7208 19.1615 14.6262 19.2416L13.4822 20.0697C13.3895 20.1314 13.2734 20.2005 13.1739 20.2543C12.8274 20.4417 12.5677 20.5961 12.195 20.775L10.1666 21.5821C10.0902 21.5953 9.92652 21.5112 9.70655 21.7171C9.50623 21.9046 9.50133 22.26 9.74539 22.4503C10.1324 22.752 10.5148 22.4915 10.999 22.3317C11.6284 22.1239 12.0248 21.9211 12.5811 21.6951C13.2325 21.4305 14.0941 20.9037 14.6941 20.4804C15.0546 20.2262 15.7445 19.6434 16.0342 19.3144C16.4878 18.7993 16.5999 18.6462 16.9949 18.0566C17.1871 17.7697 17.3257 17.4535 17.4809 17.1457C18.0066 16.1036 18.3299 14.4186 18.3299 12.962V4.84789C18.3299 4.66484 18.1879 4.49943 18.0638 4.43608C17.9511 4.3785 16.6405 3.99947 16.4939 3.95177L14.3785 3.31461C13.6693 3.10405 12.9928 2.88504 12.2787 2.68232C11.9465 2.58801 10.2671 2.0542 10.1542 2.0542C10.0264 2.0542 9.88042 2.13568 9.80929 2.20227C9.7249 2.28124 9.66122 2.40995 9.66122 2.56773Z" fill="#555555"/>
<path fill-rule="evenodd" clip-rule="evenodd" d="M2.20459 5.03277V13.0235C2.20459 15.1563 2.72964 17.0159 3.99174 18.6315L4.98961 19.6673C5.24483 19.8655 5.52195 20.2132 5.86104 20.2132C6.03276 20.2132 6.17783 20.0927 6.24834 19.9843C6.37969 19.7822 6.33797 19.4908 6.14025 19.3383L5.31155 18.6264C4.5556 17.8704 3.9998 17.0229 3.65026 15.9739C3.45269 15.3808 3.25944 14.5563 3.23153 13.907C3.22415 13.7352 3.19015 13.506 3.1899 13.3324L3.19061 5.32034C3.19064 5.02937 3.20234 4.79137 2.94908 4.63748C2.75071 4.517 2.51498 4.55079 2.36283 4.698C2.2872 4.77115 2.20459 4.89417 2.20459 5.03277Z" fill="#555555"/>
<path fill-rule="evenodd" clip-rule="evenodd" d="M8.67525 14.8929L6.44132 12.6692C6.21195 12.4398 6.18656 12.4073 5.92264 12.4073C5.68335 12.4073 5.4707 12.6468 5.4707 12.8798C5.4707 13.1872 5.88419 13.5089 6.15372 13.7785L8.14631 15.771C8.35301 15.9777 8.41498 16.0843 8.71633 16.0843C8.93415 16.0843 9.09643 15.8788 9.21448 15.7608L14.6067 10.3685C14.7465 10.2288 14.8979 10.0907 14.8375 9.82027C14.7813 9.5679 14.5908 9.42871 14.3243 9.42871C14.076 9.42871 13.7628 9.81561 13.5488 10.0296C13.1425 10.436 8.78356 14.8203 8.67525 14.8929Z" fill="#555555"/>
</svg>
