<svg width="26" height="22" viewBox="0 0 26 22" fill="none" xmlns="http://www.w3.org/2000/svg">
<path fill-rule="evenodd" clip-rule="evenodd" d="M17.3984 19.1351C15.1369 20.3914 12.2641 20.4174 9.85192 19.6644C9.60164 19.5862 9.28943 19.4481 9.04416 19.3423C8.5026 19.1088 8.59969 19.2609 8.60081 18.6556C8.60235 17.8922 8.60931 17.1223 8.59952 16.3595C8.58142 14.9439 8.60729 13.8313 9.42363 12.6288C10.8257 10.5632 13.7694 10.1738 15.7012 11.7226C16.4834 12.3498 17.3367 13.623 17.3302 14.648C17.3209 16.1286 17.3984 17.6407 17.3984 19.1351ZM13.5333 21.0874H12.5023C10.8186 21.0056 9.14076 20.523 7.62545 19.6316C5.9336 18.6362 4.46486 17.0311 3.59411 15.2738C2.61107 13.2896 2.58237 12.1628 2.50994 10.0887C2.49134 9.55784 2.4029 8.73835 3.08957 8.58604C3.75741 8.43794 6.39981 8.55184 7.26587 8.55184H19.8288C20.5344 8.55184 21.2496 8.56543 21.9536 8.54933C22.563 8.53543 23.278 8.40883 23.4329 9.15791C23.6134 10.0303 23.4192 12.097 23.209 12.9956C22.726 15.0618 21.6793 16.8312 20.1437 18.2856C18.3032 20.0289 15.9451 20.97 13.5333 21.0874ZM7.60816 18.5529C6.36577 17.5725 5.20521 16.455 4.51215 15.006C3.50728 12.9053 3.43193 11.7579 3.43193 9.44232H3.22652C9.67343 9.44232 16.1204 9.44232 22.5673 9.44232C22.5673 11.6985 22.4652 12.9627 21.4871 15.006C20.9205 16.1899 19.4692 17.8529 18.3569 18.5529C18.3719 17.4757 18.3446 16.2 18.2938 15.1224C18.2452 14.0931 18.0852 13.2551 17.5183 12.3707C15.3158 8.93455 10.5288 9.07691 8.47632 12.366C7.2113 14.3932 7.92999 16.3235 7.60816 18.5529Z" fill="#232323"/>
<path fill-rule="evenodd" clip-rule="evenodd" d="M10.5519 15.2306C10.4655 13.955 11.6304 12.729 12.9125 12.729C14.2673 12.7288 15.4096 13.7006 15.4144 15.092C15.4254 18.3007 10.7689 18.4341 10.5519 15.2306ZM12.5373 11.8398C10.5802 12.1055 9.53643 13.6953 9.66432 15.6047C9.72059 16.4441 10.2271 17.2079 10.8486 17.7422C12.2357 18.9346 14.4842 18.658 15.6219 17.2551C16.2171 16.5211 16.4385 15.5961 16.3259 14.6599C16.105 12.8249 14.3176 11.5981 12.5373 11.8398Z" fill="#232323"/>
<path fill-rule="evenodd" clip-rule="evenodd" d="M14.112 15.3676C13.7078 16.927 11.5962 16.3333 11.8719 14.9418C12.1815 13.3786 14.4649 14.0061 14.112 15.3676ZM12.7085 13.1071C9.87876 13.602 10.7203 17.6209 13.3031 17.1954C16.0696 16.7397 15.2758 12.6582 12.7085 13.1071Z" fill="#232323"/>
<path fill-rule="evenodd" clip-rule="evenodd" d="M22.396 4.06509C21.5475 4.33179 21.8021 5.8934 23.0154 5.5411C23.778 5.31967 23.665 3.66629 22.396 4.06509Z" fill="#232323"/>
<path fill-rule="evenodd" clip-rule="evenodd" d="M1.29347 0.361816H24.7065C25.4179 0.361816 26 0.943873 26 1.65529V6.98658C26 7.69798 25.4179 8.28005 24.7065 8.28005H1.29347C0.582057 8.28005 0 7.69798 0 6.98658V1.65529C0 0.943873 0.582057 0.361816 1.29347 0.361816ZM1.48434 1.26021H24.6557C24.9833 1.26021 25.2514 1.52829 25.2514 1.85585V6.78592C25.2514 7.11358 24.9833 7.38164 24.6557 7.38164H1.48434C1.15668 7.38164 0.888607 7.11358 0.888607 6.78592V1.85585C0.888607 1.52829 1.15668 1.26021 1.48434 1.26021Z" fill="#232323"/>
</svg>
