<svg width="11" height="6" viewBox="0 0 11 6" fill="none" xmlns="http://www.w3.org/2000/svg">
<path d="M10.7106 0.266469C10.6195 0.181999 10.5112 0.114984 10.392 0.0692601C10.2728 0.0235359 10.1451 -3.73693e-08 10.0161 -4.30091e-08C9.88704 -4.86489e-08 9.75929 0.0235358 9.64011 0.06926C9.52093 0.114984 9.41267 0.181999 9.32153 0.266468L5.49914 3.80184L1.67675 0.266468C1.49255 0.0960984 1.24272 0.000385395 0.982218 0.000385383C0.721718 0.000385372 0.471884 0.0960983 0.287683 0.266468C0.103481 0.436838 -2.91952e-08 0.667909 -3.9727e-08 0.908848C-5.02588e-08 1.14979 0.103481 1.38086 0.287682 1.55123L4.80953 5.73353C4.90067 5.818 5.00893 5.88502 5.12811 5.93074C5.24729 5.97646 5.37504 6 5.50407 6C5.63309 6 5.76085 5.97646 5.88003 5.93074C5.9992 5.88502 6.10746 5.818 6.1986 5.73353L10.7205 1.55123C11.0948 1.20498 11.0948 0.621828 10.7106 0.266469Z" fill="#777777"/>
</svg>
