<svg width="105" height="115" viewBox="0 0 105 115" fill="none" xmlns="http://www.w3.org/2000/svg">
<path d="M0.316386 2.64343C0.987405 0.613174 3.12772 -0.478236 5.10607 0.202428L9.23631 1.62243C14.0029 3.48839 17.4505 6.22279 19.8569 13.9683L101.432 23.9787C103.48 24.2252 104.949 26.1146 104.741 28.227L100.483 70.9915C100.287 72.9631 98.6554 74.477 96.7233 74.477L33.8442 74.5239L29.633 83.7364C29.0082 85.2972 29.1355 86.0718 29.1933 86.1774C29.2628 86.2713 29.8875 86.6585 31.4609 86.6585H96.8968C98.0191 86.6585 99.1066 87.1749 99.8239 88.0785L103.919 93.1835C105.238 94.8382 105.018 97.2793 103.399 98.6406C102.693 99.2274 101.837 99.5208 101.004 99.5208C99.9048 99.5208 98.8173 99.0396 98.0769 98.1007L95.1383 94.4158H87.3753V96.1292C91.251 97.3262 94.1086 100.988 94.1086 105.342C94.1086 110.67 89.8743 115 84.6797 115C79.4735 115 75.2507 110.67 75.2507 105.342C75.2507 100.976 78.1083 97.3262 81.984 96.1292V94.4158H42.3129V96.1292C46.1886 97.3262 49.0462 100.988 49.0462 105.342C49.0462 110.67 44.8119 115 39.6173 115C34.4111 115 30.1883 110.67 30.1883 105.342C30.1883 100.976 33.0343 97.3262 36.9101 96.1292V94.4158H31.4609C26.5208 94.4158 24.0913 92.2916 22.9228 90.5196C21.7427 88.724 20.7362 85.5906 22.703 80.6382L27.5042 70.1348L12.7649 16.7027C11.099 11.0109 9.29416 9.94297 6.69107 8.92197L2.69966 7.54891C0.721311 6.86824 -0.343064 4.67369 0.316386 2.64343ZM80.6188 105.342C80.6188 107.618 82.4236 109.461 84.645 109.461C86.8663 109.461 88.6711 107.618 88.6711 105.342C88.6711 104.133 88.1504 103.053 87.3406 102.302V103.065C87.3406 104.591 86.1258 105.846 84.645 105.846C83.1525 105.846 81.9377 104.602 81.9377 103.065V102.29C81.1395 103.053 80.6188 104.133 80.6188 105.342ZM35.5912 105.342C35.5912 107.618 37.396 109.461 39.6173 109.461C41.8386 109.461 43.6318 107.618 43.6318 105.342C43.6318 104.133 43.1228 103.053 42.3129 102.302V103.065C42.3129 104.591 41.0981 105.846 39.6173 105.846C38.1248 105.846 36.9101 104.602 36.9101 103.065V102.302C36.1118 103.053 35.5912 104.133 35.5912 105.342ZM34.4342 66.7667L45.8531 66.755L44.673 60.0187L32.4906 59.7136L34.4342 66.7667ZM60.6618 44.7742L60.0833 37.8854L44.9391 36.4889L46.2349 43.8588L60.6618 44.7742ZM47.0216 48.3536L48.3058 55.6766L61.6105 56.0052L61.0436 49.2337L47.0216 48.3536ZM59.7016 33.3907L59.1347 26.5958L42.8567 24.6007L44.1409 31.9707L59.7016 33.3907ZM64.0863 33.7897L79.6702 35.2097L79.7974 29.1307L63.5194 27.1356L64.0863 33.7897ZM64.4565 38.2844L65.0234 45.0441L79.4503 45.9478L79.5776 39.6575L64.4565 38.2844ZM83.7657 46.2177L95.2656 46.9453L95.844 41.1596L83.8929 40.0682L83.7657 46.2177ZM83.6731 50.6537L83.5574 56.5567L94.2822 56.8267L94.8259 51.3579L83.6731 50.6537ZM79.3578 50.3838L65.4052 49.5037L65.9605 56.1108L79.2305 56.4394L79.3578 50.3838ZM66.3308 60.5586L66.8514 66.7432L79.0223 66.7315L79.1495 60.8754L66.3308 60.5586ZM61.9807 60.453L49.0925 60.1244L50.261 66.755L62.5245 66.7432L61.9807 60.453ZM31.2527 55.2541L43.8863 55.571L42.5674 48.0836L29.0429 47.2387L31.2527 55.2541ZM27.7935 42.7087L41.7807 43.5889L40.4618 36.0899L25.5837 34.7285L27.7935 42.7087ZM24.3342 30.1517L39.6751 31.5599L38.3562 24.0492L22.1014 22.0541L24.3342 30.1517ZM84.1128 29.6705L83.9971 35.6204L96.2952 36.7471L96.8506 31.2313L84.1128 29.6705ZM93.8425 61.2393L83.4649 60.9811L83.3492 66.7198L93.2988 66.708L93.8425 61.2393Z" fill="#E0E0E0"/>
</svg>
