<svg width="21" height="24" viewBox="0 0 21 24" fill="none" xmlns="http://www.w3.org/2000/svg">
<path d="M10.9444 1.5255e-08C11.9096 -8.6754e-05 12.838 0.369981 13.5385 1.03397C14.2389 1.69796 14.6581 2.6053 14.7095 3.56909L14.7146 3.77016H20.2441C20.4352 3.77022 20.6191 3.8428 20.7587 3.97322C20.8983 4.10365 20.9832 4.2822 20.9962 4.4728C21.0092 4.6634 20.9494 4.85184 20.8288 5.00004C20.7083 5.14824 20.5359 5.24515 20.3467 5.27119L20.2441 5.27823H19.1794L17.9529 20.4122C17.8763 21.3563 17.4472 22.237 16.7509 22.8792C16.0545 23.5213 15.142 23.8778 14.1948 23.8777H7.69401C6.74679 23.8778 5.83425 23.5213 5.13791 22.8792C4.44157 22.237 4.01245 21.3563 3.93591 20.4122L2.70835 5.27823H1.64466C1.46245 5.27822 1.2864 5.21223 1.14908 5.09247C1.01175 4.9727 0.922443 4.80727 0.897663 4.62675L0.890625 4.5242C0.890633 4.34199 0.956621 4.16594 1.07639 4.02862C1.19615 3.89129 1.36159 3.80198 1.54211 3.7772L1.64466 3.77016H7.17423C7.17423 2.77025 7.57144 1.8113 8.27849 1.10426C8.98553 0.397213 9.94449 1.5255e-08 10.9444 1.5255e-08ZM17.6674 5.27823H4.22144L5.43895 20.2905C5.48492 20.857 5.74244 21.3854 6.16029 21.7707C6.57813 22.1559 7.12568 22.3697 7.69401 22.3696H14.1948C14.7631 22.3697 15.3107 22.1559 15.7285 21.7707C16.1463 21.3854 16.4039 20.857 16.4498 20.2905L17.6663 5.27823H17.6674ZM8.6823 9.04839C8.86451 9.0484 9.04056 9.11439 9.17788 9.23415C9.3152 9.35392 9.40451 9.51936 9.42929 9.69988L9.43633 9.80243V17.8454C9.43627 18.0365 9.3637 18.2204 9.23327 18.36C9.10285 18.4996 8.92429 18.5845 8.73369 18.5975C8.54309 18.6105 8.35465 18.5507 8.20645 18.4301C8.05825 18.3096 7.96134 18.1373 7.9353 17.948L7.92827 17.8454V9.80243C7.92827 9.60245 8.00771 9.41066 8.14912 9.26925C8.29053 9.12784 8.48232 9.04839 8.6823 9.04839ZM13.2065 9.04839C13.3887 9.0484 13.5648 9.11439 13.7021 9.23415C13.8394 9.35392 13.9287 9.51936 13.9535 9.69988L13.9605 9.80243V17.8454C13.9605 18.0365 13.8879 18.2204 13.7575 18.36C13.627 18.4996 13.4485 18.5845 13.2579 18.5975C13.0673 18.6105 12.8789 18.5507 12.7307 18.4301C12.5825 18.3096 12.4855 18.1373 12.4595 17.948L12.4525 17.8454V9.80243C12.4525 9.60245 12.5319 9.41066 12.6733 9.26925C12.8147 9.12784 13.0065 9.04839 13.2065 9.04839ZM10.9444 1.50807C10.3712 1.508 9.81936 1.72552 9.40039 2.11669C8.98141 2.50786 8.72656 3.04349 8.68733 3.61534L8.6823 3.77016H13.2065L13.2015 3.61534C13.1622 3.04349 12.9074 2.50786 12.4884 2.11669C12.0694 1.72552 11.5176 1.508 10.9444 1.50807Z" fill="#007ABE"/>
</svg>
