<svg width="286" height="50" viewBox="0 0 286 50" fill="none" xmlns="http://www.w3.org/2000/svg">
<path d="M42.2966 0V49.7962H29.4447V22.4524L12.8821 49.7962H0V0H12.8821V27.5476L29.5352 0H42.2966Z" fill="#007ABE"/>
<path d="M48.3304 0H89.8728V12.2962H75.9348V49.7962H62.2684V12.2962H48.3304V0Z" fill="#007ABE"/>
<path d="M96.1177 0H121.701C125.965 0 129.233 1.18886 131.506 3.56658C133.799 5.94429 134.945 8.88813 134.945 12.3981C134.945 15.3419 134.13 17.8668 132.501 19.9728C131.415 21.3768 129.826 22.4864 127.735 23.3016C130.912 24.1621 133.245 25.6454 134.734 27.7514C136.242 29.8347 136.996 32.4615 136.996 35.6318C136.996 38.2133 136.463 40.5344 135.397 42.5951C134.332 44.6558 132.873 46.2862 131.023 47.4864C129.877 48.2337 128.147 48.7772 125.834 49.1168C122.757 49.5697 120.715 49.7962 119.71 49.7962H96.1177V0ZM109.905 19.5312H115.848C117.98 19.5312 119.458 19.1236 120.283 18.3084C121.128 17.4706 121.55 16.2704 121.55 14.7079C121.55 13.2586 121.128 12.1264 120.283 11.3111C119.458 10.4959 118.01 10.0883 115.939 10.0883H109.905V19.5312ZM109.905 39.0965H116.874C119.227 39.0965 120.886 38.6322 121.852 37.7038C122.817 36.7527 123.3 35.4846 123.3 33.8995C123.3 32.4275 122.817 31.25 121.852 30.3668C120.906 29.4611 119.237 29.0082 116.844 29.0082H109.905V39.0965Z" fill="#007ABE"/>
<path d="M186.503 0V49.7962H173.651V22.4524L157.089 49.7962H144.207V0H157.089V27.5476L173.742 0H186.503Z" fill="#007ABE"/>
<path d="M236.282 49.7962H222.615V12.2283H211.936V27.5476C211.936 33.8428 211.634 38.4737 211.031 41.4402C210.447 44.3841 209.06 46.5466 206.867 47.928C204.695 49.3093 201.175 50 196.308 50C194.82 50 193.11 49.8188 191.18 49.4565V39.3682H193.231C195.081 39.3682 196.389 38.9153 197.153 38.0095C197.917 37.0811 198.299 35.394 198.299 32.9484V0H236.282V49.7962Z" fill="#007ABE"/>
<path d="M286 49.7962H272.334V12.2283H261.654V27.5476C261.654 33.8428 261.352 38.4737 260.749 41.4402C260.165 44.3841 258.778 46.5466 256.585 47.928C254.413 49.3093 250.894 50 246.026 50C244.538 50 242.828 49.8188 240.898 49.4565V39.3682H242.949C244.8 39.3682 246.107 38.9153 246.871 38.0095C247.635 37.0811 248.018 35.394 248.018 32.9484V0H286V49.7962Z" fill="#007ABE"/>
</svg>
