<svg width="374" height="65" viewBox="0 0 374 65" fill="none" xmlns="http://www.w3.org/2000/svg">
<path d="M130.297 8V57.7962H117.445V30.4524L100.882 57.7962H88V8H100.882V35.5476L117.535 8H130.297Z" fill="#007ABE"/>
<path d="M136.33 8H177.873V20.2962H163.935V57.7962H150.268V20.2962H136.33V8Z" fill="#007ABE"/>
<path d="M184.118 8H209.701C213.965 8 217.233 9.18886 219.506 11.5666C221.799 13.9443 222.945 16.8881 222.945 20.3981C222.945 23.3419 222.13 25.8668 220.501 27.9728C219.415 29.3768 217.826 30.4864 215.735 31.3016C218.912 32.1621 221.245 33.6454 222.734 35.7514C224.242 37.8347 224.996 40.4615 224.996 43.6318C224.996 46.2133 224.463 48.5344 223.397 50.5951C222.332 52.6558 220.873 54.2862 219.023 55.4864C217.877 56.2337 216.147 56.7772 213.834 57.1168C210.757 57.5697 208.715 57.7962 207.71 57.7962H184.118V8ZM197.905 27.5312H203.848C205.98 27.5312 207.458 27.1236 208.283 26.3084C209.128 25.4706 209.55 24.2704 209.55 22.7079C209.55 21.2586 209.128 20.1264 208.283 19.3111C207.458 18.4959 206.01 18.0883 203.939 18.0883H197.905V27.5312ZM197.905 47.0965H204.874C207.227 47.0965 208.886 46.6322 209.852 45.7038C210.817 44.7527 211.3 43.4846 211.3 41.8995C211.3 40.4275 210.817 39.25 209.852 38.3668C208.906 37.4611 207.237 37.0082 204.844 37.0082H197.905V47.0965Z" fill="#007ABE"/>
<path d="M274.503 8V57.7962H261.651V30.4524L245.089 57.7962H232.207V8H245.089V35.5476L261.742 8H274.503Z" fill="#007ABE"/>
<path d="M324.282 57.7962H310.615V20.2283H299.936V35.5476C299.936 41.8428 299.634 46.4737 299.031 49.4402C298.447 52.3841 297.06 54.5466 294.867 55.928C292.695 57.3093 289.175 58 284.308 58C282.82 58 281.11 57.8188 279.18 57.4565V47.3682H281.231C283.081 47.3682 284.389 46.9153 285.153 46.0095C285.917 45.0811 286.299 43.394 286.299 40.9484V8H324.282V57.7962Z" fill="#007ABE"/>
<path d="M374 57.7962H360.334V20.2283H349.654V35.5476C349.654 41.8428 349.352 46.4737 348.749 49.4402C348.165 52.3841 346.778 54.5466 344.585 55.928C342.413 57.3093 338.894 58 334.026 58C332.538 58 330.828 57.8188 328.898 57.4565V47.3682H330.949C332.8 47.3682 334.107 46.9153 334.871 46.0095C335.635 45.0811 336.018 43.394 336.018 40.9484V8H374V57.7962Z" fill="#007ABE"/>
<path d="M32.056 12.6854C24.2352 12.6854 16.7404 17.0744 13.2598 24.5117C10.9526 29.444 10.7348 34.9659 12.647 40.0598C14.559 45.1533 18.3731 49.2095 23.3852 51.4804C33.729 56.1682 46.0249 51.6997 50.7899 41.5171C53.0972 36.5845 53.315 31.0626 51.403 25.9687C49.4907 20.8752 45.677 16.819 40.6646 14.5481C37.8754 13.2841 34.9432 12.6854 32.056 12.6854ZM31.987 57.3334C28.5328 57.3334 25.0264 56.6181 21.6885 55.1056C15.6924 52.3887 11.13 47.5366 8.84241 41.4427C6.55486 35.3491 6.81534 28.7434 9.57675 22.8427C15.2765 10.661 29.9842 5.31615 42.3611 10.9226C48.3573 13.6396 52.9197 18.492 55.2072 24.5856C57.4948 30.6792 57.2344 37.2849 54.4729 43.1857C50.3106 52.0824 41.3425 57.3334 31.987 57.3334Z" fill="#007ABE"/>
<path d="M15.0875 24.5986C14.2804 26.1856 13.689 27.9122 13.3593 29.7491C12.5428 34.3041 13.4685 38.7645 15.664 42.4698L29.0366 27.0213L15.0875 24.5986Z" fill="#007ABE"/>
<path d="M31.1615 14.2482C24.5929 14.5809 18.6783 18.2524 15.5039 23.8234L35.9237 27.3697L31.1615 14.2482Z" fill="#007ABE"/>
<path d="M49.2338 41.4305C50.0409 39.8434 50.6323 38.1169 50.9619 36.28C51.7783 31.7285 50.8543 27.2712 48.6624 23.5674L35.2852 39.0077L49.2337 41.4305H49.2338Z" fill="#007ABE"/>
<path d="M48.1955 22.819C45.4147 18.5853 40.9211 15.4573 35.4785 14.5118C34.328 14.3118 33.1831 14.2184 32.0547 14.2235L39.0184 33.4113L48.1954 22.819H48.1955Z" fill="#007ABE"/>
<path d="M16.1309 43.2172C18.9123 47.4465 23.4033 50.5716 28.8426 51.5162C30.0681 51.7291 31.2862 51.8204 32.4857 51.8015L25.3087 32.6146L16.1309 43.2171V43.2172Z" fill="#007ABE"/>
<path d="M33.3768 51.7673C39.8583 51.3653 45.6772 47.7147 48.8163 42.2056L28.479 38.6733L33.3768 51.7673Z" fill="#007ABE"/>
<path fill-rule="evenodd" clip-rule="evenodd" d="M0 52.425H2.98371V61.9762H12.4322V64.9124H0V52.425Z" fill="#007ABE"/>
<path fill-rule="evenodd" clip-rule="evenodd" d="M0 0H12.4322V2.93625H2.98371V12.4874H0V0Z" fill="#007ABE"/>
<path fill-rule="evenodd" clip-rule="evenodd" d="M64.7383 52.425V64.9124H52.3057V61.9762H61.7546V52.425H64.7383Z" fill="#007ABE"/>
<path fill-rule="evenodd" clip-rule="evenodd" d="M52.3057 0H64.7383V12.4874H61.7546V2.93625H52.3057V0Z" fill="#007ABE"/>
</svg>
