<svg width="11" height="15" viewBox="0 0 11 15" fill="none" xmlns="http://www.w3.org/2000/svg">
<path fill-rule="evenodd" clip-rule="evenodd" d="M5.24237 2.30438C6.20482 2.22026 7.02053 2.61217 7.49857 3.04596C8.06104 3.55639 8.4382 4.21821 8.51015 5.04906C8.59485 6.02713 8.19906 6.80872 7.76846 7.29746C6.59274 8.63186 4.52358 8.6608 3.31239 7.38044C3.17468 7.23485 3.08897 7.12799 2.97939 6.96163C2.71973 6.56741 2.54317 6.10857 2.4946 5.56679C2.45357 5.10917 2.52756 4.63548 2.67085 4.25652C2.82652 3.84482 3.10135 3.41209 3.42267 3.12028C3.9285 2.66093 4.49948 2.36932 5.24237 2.30438ZM5.06268 0.0142491L5.04866 0.0199868C4.98997 0.0335601 4.9222 0.0135924 4.86493 0.0340253C4.83323 0.0453364 4.78258 0.040511 4.74594 0.0435668L4.61844 0.0643555C4.5532 0.0729848 4.62587 0.0801272 4.53882 0.0836209L4.19949 0.149663C4.19638 0.150621 4.1885 0.154379 4.18541 0.155346L4.04734 0.195245C4.02379 0.202378 4.03005 0.198638 4.00593 0.203272C4.00298 0.203838 4.00037 0.204084 3.9975 0.204723C3.99473 0.205334 3.99219 0.205936 3.98952 0.206638L3.23673 0.482091C3.23472 0.483113 3.2322 0.484454 3.23021 0.485475L2.97982 0.610792C2.94731 0.627038 3.0127 0.594345 2.96663 0.617378L2.95345 0.623964C2.95142 0.624985 2.94888 0.626253 2.94686 0.627257L2.80156 0.709362C2.79978 0.71053 2.79728 0.712026 2.79544 0.713121L2.73584 0.74252C2.73312 0.743861 2.72519 0.747574 2.72247 0.748924L2.16241 1.12812C2.15838 1.13048 2.15341 1.1325 2.14936 1.13485C2.10433 1.16118 2.10424 1.17973 2.04411 1.21745L2.022 1.23489C1.99342 1.26156 1.97166 1.29053 1.93837 1.30945C1.87874 1.34335 1.80233 1.44255 1.77331 1.46078C1.76051 1.4688 1.76525 1.46438 1.75388 1.47101C1.73882 1.47979 1.75022 1.47126 1.73573 1.4825C1.72088 1.49403 1.7281 1.48936 1.72045 1.4969L1.67143 1.54674C1.61546 1.60269 1.51197 1.69728 1.49045 1.73159C1.48242 1.74438 1.48684 1.73964 1.48022 1.75101C1.47912 1.75289 1.47786 1.75554 1.47671 1.75738C1.47558 1.7592 1.47413 1.76173 1.47292 1.76348C1.44239 1.80741 1.39737 1.84049 1.35967 1.87763C1.34902 1.88811 1.34008 1.89707 1.33226 1.90954C1.3311 1.91138 1.32986 1.91403 1.32876 1.91592C1.30336 1.95944 1.2421 2.01429 1.23339 2.02818C1.22536 2.04098 1.22979 2.03624 1.22316 2.0476C1.20167 2.08442 1.16639 2.10842 1.14406 2.14647L1.08811 2.21905C1.07409 2.24357 1.08856 2.2261 1.06848 2.24886L0.982093 2.37011C0.979302 2.37443 0.963265 2.39457 0.960757 2.3982C0.959562 2.39994 0.957975 2.40238 0.956834 2.40417L0.752313 2.73356C0.751264 2.73549 0.749941 2.73807 0.748819 2.73995L0.527915 3.1617C0.526894 3.16371 0.525589 3.16625 0.524568 3.16825L0.459656 3.30108C0.453709 3.31875 0.454904 3.32208 0.448455 3.33931C0.447351 3.34227 0.443794 3.35037 0.442535 3.35316L0.397993 3.44704C0.397007 3.45012 0.394645 3.45941 0.393678 3.4625L0.380944 3.4992C0.377824 3.50883 0.377195 3.51306 0.374248 3.52216C0.373446 3.52462 0.372789 3.52732 0.371941 3.52974L0.363357 3.55082C0.362399 3.55288 0.360985 3.55532 0.359991 3.55734L0.32416 3.65004C0.323348 3.65242 0.322381 3.65497 0.321588 3.65736L0.264841 3.82802C0.262232 3.83563 0.260982 3.83988 0.257598 3.85042L0.101459 4.45558C0.0978469 4.47351 0.100255 4.48551 0.0995526 4.50312C0.0973725 4.5572 0.0865814 4.53975 0.0796396 4.63152C0.0752064 4.69005 0.0738837 4.65647 0.0667231 4.67792C0.0539433 4.71623 0.0632476 4.72973 0.0601371 4.77021C0.0537974 4.85262 0.046883 4.76622 0.0397041 4.84864C0.0351158 4.90128 0.0481966 4.95674 0.03019 5.00721C0.00274232 5.08414 0.0196086 5.23377 0.0203931 5.32369L0.0183407 5.40073C0.00326226 5.47062 -0.0115881 5.47389 0.0134331 5.54798C0.0395764 5.62544 0.0182677 5.80277 0.019563 5.89778C0.020083 5.93569 0.0303816 5.94227 0.0381078 5.97811C0.042842 6.00008 0.0400507 6.05059 0.0397223 6.07535L0.0499571 6.1541C0.0507598 6.15637 0.0521919 6.15866 0.0529673 6.16097C0.0646159 6.19573 0.0555579 6.22774 0.060356 6.26234C0.0693684 6.32742 0.0762736 6.25478 0.0797673 6.34181C0.0804697 6.35939 0.0780615 6.37143 0.0816738 6.38933L0.0865084 6.40428C0.0872746 6.4066 0.0887068 6.40888 0.0895095 6.41117L0.0952106 6.42525C0.104688 6.45985 0.0950282 6.48829 0.106275 6.52294L0.116848 6.55192C0.12046 6.56986 0.117805 6.58084 0.120205 6.59798C0.127985 6.65333 0.123388 6.60927 0.131735 6.6359L0.213375 6.95963C0.218465 6.97849 0.216595 6.98357 0.220655 7.00179C0.221266 7.00454 0.221868 7.00709 0.22257 7.00977C0.223245 7.01232 0.224166 7.0148 0.224914 7.01729C0.225653 7.01973 0.226766 7.02217 0.22756 7.02455C0.228344 7.02691 0.229503 7.02935 0.230296 7.03169L0.301812 7.2469C0.302614 7.24928 0.303572 7.25183 0.304384 7.25422L0.309666 7.26871C0.313442 7.27976 0.317082 7.29266 0.321588 7.30623L0.326796 7.3208C0.327608 7.32316 0.32863 7.32568 0.329424 7.32805L0.450991 7.63162C0.456975 7.64923 0.455761 7.6526 0.462201 7.66985L0.481613 7.70976C0.482644 7.71175 0.483939 7.71431 0.48496 7.7163L0.834164 8.37559C0.835258 8.37744 0.836754 8.37993 0.837913 8.38172L0.87409 8.43453C0.875212 8.43636 0.876571 8.43895 0.87773 8.44076L1.00419 8.63071C1.02431 8.6559 1.01152 8.63567 1.02892 8.65537L1.16042 8.85016C1.16175 8.8529 1.16541 8.86089 1.16682 8.86353C1.16788 8.86547 1.1692 8.86805 1.17031 8.86993L1.41163 9.23172C1.41437 9.23597 1.43092 9.25654 1.43311 9.25967L1.57531 9.48329C1.57647 9.4851 1.57784 9.48769 1.57895 9.48954L1.61486 9.54263C1.61603 9.54442 1.61738 9.54702 1.61851 9.54886L1.69395 9.66127C1.69511 9.66307 1.69647 9.66566 1.6976 9.66751L1.7335 9.72059C1.73466 9.72239 1.73601 9.72498 1.73715 9.72683L1.91146 9.99743C1.91263 9.99924 1.91398 10.0018 1.91511 10.0037C1.92181 10.0146 1.9179 10.0105 1.92575 10.0227L2.0301 10.1754C2.03127 10.1772 2.03264 10.1798 2.03377 10.1816C2.0349 10.1835 2.03613 10.1862 2.03725 10.188C2.03837 10.1899 2.03961 10.1926 2.04074 10.1944L2.10947 10.2938C2.11064 10.2956 2.11214 10.2981 2.11323 10.2999L2.21871 10.4713C2.21984 10.4731 2.22119 10.4757 2.22236 10.4775C2.2235 10.4793 2.22509 10.4817 2.22629 10.4835L2.25826 10.5306C2.25938 10.5324 2.26074 10.535 2.26191 10.5368L2.30145 10.5962C2.30261 10.5979 2.30418 10.6004 2.30537 10.6021C2.30788 10.6057 2.32394 10.6259 2.32671 10.6302C2.32788 10.632 2.32925 10.6346 2.33038 10.6364L2.33735 10.6492C2.33848 10.6511 2.33985 10.6537 2.341 10.6555L2.67351 11.1634C2.67464 11.1652 2.67599 11.1678 2.67715 11.1696L2.70608 11.2099L2.71305 11.2227L2.8633 11.458C2.865 11.4604 2.87051 11.4665 2.87222 11.4689L2.90285 11.5174C2.90455 11.5197 2.91006 11.5258 2.91177 11.5282L2.98194 11.636C2.98365 11.6384 2.98916 11.6445 2.99086 11.6468C2.99208 11.6485 2.99393 11.6508 2.99511 11.6525L3.177 11.9353C3.17816 11.9371 3.17953 11.9397 3.18064 11.9415L3.23901 12.0315C3.24071 12.0338 3.24622 12.04 3.24792 12.0423L3.27855 12.0908C3.28026 12.0932 3.28576 12.0993 3.28747 12.1016L3.34582 12.1916C3.34695 12.1934 3.3483 12.196 3.34947 12.1978L3.43441 12.3304C3.43541 12.3325 3.43654 12.3351 3.43756 12.3372L3.5203 12.4621C3.52142 12.4639 3.52264 12.4666 3.52379 12.4685L3.675 12.693C3.67613 12.6948 3.67738 12.6975 3.6785 12.6993L3.68564 12.712C3.69192 12.7217 3.68975 12.7175 3.69826 12.729L3.96797 13.1415C3.97582 13.1537 3.9719 13.1496 3.97861 13.1606L4.06528 13.2914C4.06528 13.2914 4.07477 13.3028 4.07852 13.3078L4.10675 13.3587L4.11665 13.3784L4.22503 13.537C4.23288 13.5492 4.22896 13.5451 4.23567 13.556L4.30414 13.6556C4.31198 13.6678 4.30807 13.6637 4.31476 13.6747L4.47392 13.9209C4.47514 13.9226 4.47699 13.9248 4.47817 13.9265L4.56119 14.0511C4.56904 14.0633 4.56512 14.0592 4.57183 14.0702C4.57296 14.072 4.57431 14.0746 4.57548 14.0764L4.6835 14.2353C4.69019 14.2463 4.68629 14.2422 4.69413 14.2544C4.69693 14.2587 4.71296 14.2788 4.71547 14.2825L4.76601 14.3604C4.76712 14.3624 4.7683 14.365 4.76942 14.3669L4.82204 14.433C4.85232 14.4845 4.89644 14.52 4.93905 14.5631L5.0498 14.6501C5.05159 14.6513 5.05407 14.6528 5.05593 14.6539L5.11543 14.6834C5.11743 14.6843 5.12661 14.6889 5.12861 14.6899L5.20798 14.7292C5.21029 14.7301 5.21293 14.731 5.2153 14.7318L5.42833 14.7758C5.50446 14.775 5.60663 14.7893 5.67589 14.766C5.67823 14.7652 5.68056 14.7639 5.68294 14.7631L5.93953 14.6737C5.94139 14.6726 5.94386 14.6711 5.94565 14.6699L6.11113 14.5487L6.30847 14.2912C6.31019 14.2888 6.31551 14.2825 6.31717 14.2801L6.4002 14.1555C6.40136 14.1537 6.40271 14.1511 6.40384 14.1493L6.49088 14.0089C6.49211 14.0072 6.49395 14.005 6.49513 14.0033L6.54227 13.9318C6.56212 13.8993 6.52939 13.9514 6.54924 13.919L6.57816 13.8787C6.57933 13.8769 6.58068 13.8743 6.58181 13.8724C6.58851 13.8615 6.5846 13.8656 6.59245 13.8534L7.05989 13.1443C7.06839 13.1328 7.06625 13.137 7.07252 13.1273L7.15873 12.9861C7.16047 12.9837 7.16579 12.9774 7.16745 12.975L7.67637 12.1986C7.6775 12.1968 7.67885 12.1942 7.68002 12.1924L7.74483 12.099C7.746 12.0972 7.74735 12.0946 7.74848 12.0928L7.8869 11.8753C7.89359 11.8643 7.88969 11.8684 7.89753 11.8562L7.95841 11.7688C7.95962 11.7671 7.96119 11.7646 7.96234 11.7628L8.33805 11.1894C8.33921 11.1876 8.34058 11.185 8.34169 11.1832L8.45695 11.0117C8.45812 11.0099 8.45961 11.0074 8.46071 11.0056L8.55555 10.8532C8.55671 10.8515 8.55806 10.8489 8.5592 10.847L8.83067 10.4264C8.83287 10.4233 8.84942 10.4027 8.85215 10.3984L9.07236 10.065C9.12828 9.98793 9.1557 9.9269 9.20653 9.85311L9.25031 9.78813C9.25202 9.78579 9.25753 9.77964 9.25924 9.7773L9.32941 9.6695C9.33112 9.66714 9.33662 9.66101 9.33833 9.65865L9.36896 9.61018C9.37067 9.60782 9.37618 9.60168 9.37788 9.59933L9.44807 9.49155C9.45214 9.48601 9.46137 9.47519 9.46137 9.47519L9.58647 9.27402C9.58818 9.27167 9.59369 9.26552 9.59539 9.26316L9.86816 8.84383C9.86958 8.84121 9.87328 8.83325 9.87462 8.83053L9.88103 8.81716C9.88202 8.81511 9.88329 8.81256 9.88427 8.81052C9.88562 8.80779 9.88948 8.8 9.89081 8.79728L10.07 8.53152C10.0712 8.52984 10.073 8.5276 10.0742 8.52589L10.1913 8.33647C10.1925 8.33469 10.194 8.33224 10.1952 8.3305L10.2701 8.19778C10.2713 8.19601 10.273 8.19365 10.2742 8.19194C10.2757 8.18971 10.294 8.16729 10.2959 8.16425C10.2971 8.16247 10.2986 8.15998 10.2997 8.15813L10.3358 8.08544C10.3386 8.07987 10.3418 8.07334 10.3456 8.06567L10.4083 7.94043C10.4123 7.9323 10.4108 7.93537 10.4149 7.92724L10.4874 7.78224C10.4884 7.78022 10.4896 7.77767 10.4907 7.77563L10.6634 7.35517C10.6642 7.35277 10.6652 7.35022 10.666 7.34785L10.7623 7.05854C10.7631 7.05616 10.764 7.0536 10.7649 7.05123L10.7727 7.02944C10.7771 7.01643 10.7815 7.00192 10.7849 6.99218C10.7859 6.98916 10.7893 6.98091 10.7903 6.9778C10.795 6.96203 10.7924 6.97253 10.796 6.95385L10.8394 6.76984C10.84 6.76711 10.8407 6.76457 10.8414 6.76195L10.8493 6.74024C10.8501 6.73776 10.8511 6.73535 10.8518 6.73282L10.897 6.50124C10.9051 6.44453 10.9 6.49105 10.9089 6.46365C10.9213 6.4254 10.9104 6.41039 10.9178 6.37373C10.9239 6.34401 10.9358 6.32516 10.9359 6.29294C10.936 6.2783 10.9341 6.25771 10.9361 6.24365C10.946 6.17168 10.95 6.23092 10.9547 6.10404C10.9567 6.04758 10.9762 6.07213 10.9751 5.92671C10.9748 5.8924 10.9714 5.85633 10.982 5.82487C11.0134 5.73163 10.9939 5.38313 10.9952 5.24419L10.982 5.15859C10.9644 5.10637 10.9767 5.02735 10.9759 4.96698C10.9753 4.92904 10.965 4.92239 10.9573 4.88666C10.9512 4.85836 10.9581 4.81849 10.9557 4.78939C10.9513 4.73687 10.9395 4.7698 10.9361 4.66068C10.9357 4.64956 10.9359 4.64442 10.9336 4.63352C10.9271 4.60285 10.929 4.62119 10.9257 4.61177C10.915 4.58159 10.9193 4.55532 10.9151 4.52345C10.9076 4.46661 10.9117 4.51326 10.903 4.48616C10.8944 4.45925 10.8988 4.47438 10.896 4.44368C10.8916 4.39468 10.8849 4.41726 10.8773 4.36355L10.8438 4.20915C10.8431 4.20668 10.842 4.20426 10.8414 4.20173C10.8406 4.19909 10.84 4.19656 10.8394 4.19383L10.807 4.0581C10.8063 4.05572 10.805 4.05338 10.8043 4.05096L10.7528 3.87508C10.752 3.87272 10.7509 3.87022 10.7501 3.86787L10.7283 3.78089C10.7275 3.77851 10.7264 3.77609 10.7256 3.77373L10.5444 3.31225C10.5406 3.30086 10.5413 3.29941 10.538 3.28898L10.4939 3.19464C10.4929 3.19262 10.4917 3.19007 10.4906 3.18804C10.4896 3.18602 10.4884 3.18348 10.4873 3.18145C10.4863 3.17944 10.4851 3.17688 10.4841 3.17487L10.1477 2.56204C10.1466 2.56016 10.1453 2.55759 10.1442 2.55565L10.1378 2.54228C10.1368 2.5402 10.1357 2.53758 10.1347 2.5355L10.0161 2.35753C10.0093 2.3506 10.0133 2.3576 10.0014 2.3426L9.97535 2.2994C9.97417 2.29768 9.97233 2.29544 9.9711 2.29375L9.95039 2.26502C9.94927 2.26315 9.94805 2.26047 9.94695 2.25858L9.80508 2.07418C9.80397 2.07228 9.80273 2.06963 9.80158 2.06779L9.72935 1.98183C9.7157 1.95784 9.7289 1.97398 9.70988 1.95186C9.70178 1.94243 9.69783 1.94004 9.6849 1.92742L9.64499 1.88824C9.61935 1.86297 9.61367 1.83952 9.59125 1.81345L9.44265 1.66545C9.38004 1.60289 9.23455 1.43493 9.1494 1.38524C9.08095 1.34527 9.07837 1.30592 9.01098 1.26659C8.96715 1.24101 8.9385 1.19756 8.88597 1.1642C8.87469 1.15705 8.86697 1.14887 8.8593 1.14143C8.85165 1.13398 8.84393 1.12582 8.83264 1.11865L8.79515 1.09682C8.76983 1.07666 8.79026 1.08953 8.77047 1.07207C8.74772 1.05198 8.76517 1.06647 8.74066 1.05244L8.67447 0.999985C8.66165 0.991766 8.66658 0.996418 8.65519 0.989586C8.65334 0.988464 8.65076 0.987114 8.64894 0.985956L8.39772 0.821926C8.39498 0.820613 8.38699 0.816946 8.38435 0.815514L8.24527 0.727196C8.24356 0.725992 8.2412 0.724304 8.23943 0.723155C8.23763 0.721987 8.23515 0.720491 8.23331 0.719397L8.08796 0.647233C8.08591 0.64623 8.08329 0.645053 8.08125 0.64405L7.94311 0.564681C7.94041 0.563331 7.93263 0.559445 7.92992 0.558076L7.76512 0.485594C7.76311 0.484572 7.76055 0.483304 7.75854 0.482292L7.64752 0.435114C7.64514 0.434311 7.6425 0.433444 7.64017 0.432569L7.61326 0.419935C7.61125 0.418931 7.60877 0.417554 7.60678 0.416532L7.50947 0.37542C7.50707 0.374636 7.50453 0.373678 7.50215 0.372875L7.34395 0.313547C7.33554 0.310719 7.33784 0.311138 7.32945 0.308283C7.31853 0.304562 7.30537 0.300831 7.29192 0.296361C7.28954 0.295558 7.287 0.2946 7.28463 0.293789C7.28225 0.292977 7.27974 0.291955 7.27737 0.291143L7.15873 0.251591C7.15638 0.250779 7.15385 0.249757 7.15148 0.248946L7.12152 0.239368C7.11911 0.238556 7.11652 0.237698 7.11412 0.236868L7.0272 0.215049C7.02476 0.21431 7.02233 0.213197 7.01995 0.212403L6.98309 0.199833C6.98069 0.199022 6.97809 0.198146 6.9757 0.197325C6.97336 0.196513 6.97085 0.195446 6.9685 0.194634L6.95411 0.189252C6.95161 0.188504 6.94915 0.187565 6.94658 0.18689L6.88903 0.175241C6.88662 0.174502 6.88428 0.173252 6.88189 0.172486L6.56587 0.102914C6.48472 0.0945215 6.56621 0.0895319 6.48642 0.0834932C6.47086 0.0823165 6.45331 0.0849071 6.43764 0.0828455C6.38027 0.0752653 6.42836 0.0798262 6.40042 0.0706314C6.36084 0.0576053 6.34107 0.0700749 6.30275 0.0595483C6.20626 0.0330493 6.18189 0.0520866 6.13735 0.0370903L5.91871 0.00855709C5.91467 0.00739862 5.10623 -0.0133901 5.06268 0.0142491Z" fill="#777777"/>
</svg>
