<svg width="16" height="16" viewBox="0 0 16 16" fill="none" xmlns="http://www.w3.org/2000/svg">
<path d="M15.9909 12.6269C15.9528 12.391 15.8049 12.1893 15.5834 12.0695L12.3068 10.1385L12.2798 10.1234C12.1425 10.0546 11.9907 10.0193 11.8371 10.0205C11.5626 10.0205 11.3004 10.1245 11.1185 10.307L10.1514 11.2748C10.11 11.3141 9.97515 11.371 9.93424 11.3731C9.92304 11.3722 8.80898 11.2919 6.758 9.24014C4.71068 7.1927 4.62382 6.07489 4.62314 6.07489C4.62428 6.01773 4.68051 5.88329 4.72051 5.84168L5.5452 5.01698C5.83571 4.7257 5.9228 4.24282 5.75045 3.86877L3.92919 0.440812C3.79685 0.168277 3.53971 0 3.25445 0C3.05262 0 2.85788 0.0836812 2.70565 0.235725L0.45764 2.47934C0.242096 2.6938 0.0564953 3.06877 0.0160381 3.37057C-0.00361912 3.51484 -0.402477 6.95857 4.31754 11.6806C8.32463 15.6884 11.4492 15.9998 12.3121 15.9998C12.4172 16.0012 12.5222 15.9957 12.6266 15.9836C12.9274 15.9433 13.3018 15.7581 13.516 15.5434L15.7621 13.2968C15.9455 13.1126 16.0291 12.8691 15.9909 12.6269Z" fill="#777777"/>
</svg>
