<svg width="85" height="56" viewBox="0 0 85 56" fill="none" xmlns="http://www.w3.org/2000/svg">
<path d="M42.5 55.081C13.7077 55.081 0.688513 29.7938 0.187776 28.542C-0.062592 27.7909 -0.062592 27.0398 0.187776 26.2887C0.688513 25.2872 13.7077 0 42.5 0C71.2923 0 84.3115 25.2872 84.8122 26.539C85.0626 27.2901 85.0626 28.0412 84.8122 28.7923C84.3115 29.7938 71.2923 55.081 42.5 55.081ZM5.19514 27.5405C7.94919 32.2975 19.9669 50.0736 42.5 50.0736C65.0331 50.0736 76.8004 32.2975 79.8049 27.5405C77.0508 22.7835 65.0331 5.00736 42.5 5.00736C19.9669 5.00736 8.19956 22.7835 5.19514 27.5405Z" fill="white" fill-opacity="0.8"/>
<path d="M42.4999 50.0738C29.9815 50.0738 19.9668 40.0591 19.9668 27.5406C19.9668 15.0222 29.9815 5.00751 42.4999 5.00751C55.0183 5.00751 65.0331 15.0222 65.0331 27.5406C65.0331 40.0591 55.0183 50.0738 42.4999 50.0738ZM42.4999 10.0149C32.7356 10.0149 24.9742 17.7763 24.9742 27.5406C24.9742 37.305 32.7356 45.0664 42.4999 45.0664C52.2643 45.0664 60.0257 37.305 60.0257 27.5406C60.0257 17.7763 52.2643 10.0149 42.4999 10.0149Z" fill="white" fill-opacity="0.8"/>
<path d="M42.5008 40.0587C35.4905 40.0587 29.9824 34.5506 29.9824 27.5403C29.9824 26.0381 30.9839 25.0366 32.4861 25.0366C33.9883 25.0366 34.9898 26.0381 34.9898 27.5403C34.9898 31.7966 38.2446 35.0513 42.5008 35.0513C46.7571 35.0513 50.0119 31.7966 50.0119 27.5403C50.0119 23.284 46.7571 20.0292 42.5008 20.0292C40.9986 20.0292 39.9972 19.0278 39.9972 17.5256C39.9972 16.0234 40.9986 15.0219 42.5008 15.0219C49.5111 15.0219 55.0192 20.53 55.0192 27.5403C55.0192 34.5506 49.5111 40.0587 42.5008 40.0587Z" fill="white" fill-opacity="0.8"/>
</svg>
