<svg width="22" height="19" viewBox="0 0 22 19" fill="none" xmlns="http://www.w3.org/2000/svg">
<path fill-rule="evenodd" clip-rule="evenodd" d="M5.9583 0.822876C6.28705 0.822876 6.60233 0.953471 6.8348 1.18593C7.06726 1.41839 7.19785 1.73368 7.19785 2.06243V4.54153C7.19785 4.87027 7.06726 5.18556 6.8348 5.41802C6.60233 5.65048 6.28705 5.78108 5.9583 5.78108C5.62955 5.78108 5.31427 5.65048 5.08181 5.41802C4.84935 5.18556 4.71875 4.87027 4.71875 4.54153V2.06243C4.71875 1.73368 4.84935 1.41839 5.08181 1.18593C5.31427 0.953471 5.62955 0.822876 5.9583 0.822876V0.822876Z" stroke="#555555" stroke-width="1.5" stroke-linecap="round" stroke-linejoin="round"/>
<path d="M20.8306 3.30145H7.19556" stroke="#555555" stroke-width="1.5" stroke-linecap="round" stroke-linejoin="round"/>
<path d="M4.71865 3.30145H1" stroke="#555555" stroke-width="1.5" stroke-linecap="round" stroke-linejoin="round"/>
<path fill-rule="evenodd" clip-rule="evenodd" d="M5.9583 13.2189C6.28705 13.2189 6.60233 13.3495 6.8348 13.582C7.06726 13.8144 7.19785 14.1297 7.19785 14.4585V16.9376C7.19785 17.2663 7.06726 17.5816 6.8348 17.8141C6.60233 18.0465 6.28705 18.1771 5.9583 18.1771C5.62955 18.1771 5.31427 18.0465 5.08181 17.8141C4.84935 17.5816 4.71875 17.2663 4.71875 16.9376V14.4585C4.71875 14.1297 4.84935 13.8144 5.08181 13.582C5.31427 13.3495 5.62955 13.2189 5.9583 13.2189Z" stroke="#555555" stroke-width="1.5" stroke-linecap="round" stroke-linejoin="round"/>
<path d="M20.8306 15.6974H7.19556" stroke="#555555" stroke-width="1.5" stroke-linecap="round" stroke-linejoin="round"/>
<path d="M4.71865 15.6974H1" stroke="#555555" stroke-width="1.5" stroke-linecap="round" stroke-linejoin="round"/>
<path fill-rule="evenodd" clip-rule="evenodd" d="M15.8724 7.01996C16.2011 7.01996 16.5164 7.15055 16.7489 7.38301C16.9813 7.61548 17.1119 7.93076 17.1119 8.25951V10.7386C17.1119 11.0674 16.9813 11.3826 16.7489 11.6151C16.5164 11.8476 16.2011 11.9782 15.8724 11.9782C15.5436 11.9782 15.2283 11.8476 14.9959 11.6151C14.7634 11.3826 14.6328 11.0674 14.6328 10.7386V8.25951C14.6328 7.93076 14.7634 7.61548 14.9959 7.38301C15.2283 7.15055 15.5436 7.01996 15.8724 7.01996V7.01996Z" stroke="#555555" stroke-width="1.5" stroke-linecap="round" stroke-linejoin="round"/>
<path d="M14.6351 9.50037H1" stroke="#555555" stroke-width="1.5" stroke-linecap="round" stroke-linejoin="round"/>
<path d="M20.8351 9.50037H17.1165" stroke="#555555" stroke-width="1.5" stroke-linecap="round" stroke-linejoin="round"/>
</svg>
