<svg width="24" height="25" viewBox="0 0 24 25" fill="none" xmlns="http://www.w3.org/2000/svg">
<path d="M20 2.37503H10C8.897 2.37503 8 3.27203 8 4.37503V8.37503H4C2.897 8.37503 2 9.27203 2 10.375V20.375C2 21.478 2.897 22.375 4 22.375H14C15.103 22.375 16 21.478 16 20.375V16.375H20C21.103 16.375 22 15.478 22 14.375V4.37503C22 3.27203 21.103 2.37503 20 2.37503ZM4 20.375V10.375H14L14.002 20.375H4ZM20 14.375H16V10.375C16 9.27203 15.103 8.37503 14 8.37503H10V4.37503H20V14.375Z" fill="#007ABE"/>
<path d="M6 12.375H12V14.375H6V12.375ZM6 16.375H12V18.375H6V16.375Z" fill="#007ABE"/>
</svg>
