<?xml version="1.0" encoding="utf-8"?><svg viewBox="0 0 27 27" xmlns="http://www.w3.org/2000/svg" xmlns:xlink="http://www.w3.org/1999/xlink"><style>:root>svg{display:none}:root>svg:target{display:block}</style><svg viewBox="0 0 25 22" id="favorites" xmlns="http://www.w3.org/2000/svg"><path d="M17.981 0c-1.75 0-3.412.7-4.637 1.925l-1.05 1.05-.963-.962C8.794-.612 4.594-.612 2.056 1.925l-.087.088a6.654 6.654 0 000 9.45l10.325 10.412 10.325-10.412a6.654 6.654 0 000-9.45A6.294 6.294 0 0017.98 0z"/></svg><svg fill="none" viewBox="0 0 22 22" id="grid" xmlns="http://www.w3.org/2000/svg"><path d="M7 1l-4 .006a2 2 0 00-2 2V7a2 2 0 001.768 1.986L3.004 9l4-.006a2 2 0 001.997-2V3.002a2 2 0 00-1.768-1.988L7 1zm11.998 0l-4 .006a2 2 0 00-2 2V7a2 2 0 001.769 1.986l.236.014 4-.006a2 2 0 001.997-2V3.002a2 2 0 00-1.768-1.988L18.998 1zM7 13l-4 .006a2 2 0 00-1.999 2V19a2 2 0 001.768 1.986l.236.014 4-.006a2 2 0 001.997-2v-3.992a2 2 0 00-1.768-1.988L7 13zm12 0l-4 .006a2 2 0 00-2 2V19a2 2 0 001.768 1.986l.236.014 4-.006a2 2 0 001.997-2v-3.992a2 2 0 00-1.768-1.988L18.998 13z"/></svg><svg viewBox="0 0 27 20" id="list" xmlns="http://www.w3.org/2000/svg"><path d="M27 20H7v-3.333h20V20zM3.668 20H.334v-3.333h3.333V20zm23.334-8.333H7V8.333h20v3.334zm-23.334 0H.334V8.333h3.333v3.334zm23.334-8.334H7.039V0h19.962v3.333zm-23.334 0H.334V0h3.333v3.333z"/></svg><svg fill="none" viewBox="0 0 17 20" id="price" xmlns="http://www.w3.org/2000/svg"><path d="M10.375 12.25a5.625 5.625 0 100-11.25H4.75a.75.75 0 00-.75.75v9H1.75a.75.75 0 100 1.5H4v1.5H1.75a.75.75 0 100 1.5H4v3a.75.75 0 101.5 0v-3H10a.75.75 0 100-1.5H5.5v-1.5h4.875zM5.5 2.5h4.875a4.125 4.125 0 010 8.25H5.5V2.5z" fill="#4B4B4B" stroke="#4B4B4B" stroke-width=".5"/></svg><svg viewBox="0 0 26 27" id="trace" xmlns="http://www.w3.org/2000/svg"><path fill-rule="evenodd" clip-rule="evenodd" d="M24.247 19.932c0 1.425-.106 2.444-.958 3.638-.465.65-.591.782-1.218 1.262-1.83 1.401-4.565 1.358-6.36-.093-2.565-2.074-2.768-5.898-.517-8.216 2.222-2.288 5.877-2.137 7.956.501.462.587 1.097 1.881 1.097 2.908zM1.054 6.591c.289.069 1.523.657 1.878.817.276.125 1.746.805 1.93.821v2.107c0 .693-.157 1.58.512 1.58.612 0 .512-.665.512-1.288V8.756c.51.122 3.523 1.614 3.809 1.638v10.182l-7.541-3.355c-.375-.172-.762-.323-1.1-.507V6.591zm9.209 2.926l-2.766-1.19c-.24-.116-.774-.311-.872-.449l7.466-3.315c.275-.126.477-.23.752-.344.273-.112.264-.07.744.168l3.032 1.326c-.174.244-3.596 1.655-4.15 1.931-.315.158-.712.325-1.03.46l-3.176 1.413zM1.85 5.83l8.179-3.759c.273-.117.177-.101.726.151l2.256 1.014c.236.113.529.252.776.312-.011.008-.03.004-.036.021l-.111.06c-.081.042-.129.063-.193.095-.124.061-.212.095-.357.159L5.642 7.22c-.286.132-.238.192-.761-.064C4.647 7.042 2.07 5.85 1.85 5.83zM.031 5.654v11.411c0 .444.521.549 1.042.8.45.216.86.369 1.308.585.45.216.859.37 1.307.585 1.21.582 2.72 1.176 3.922 1.756.45.216.86.369 1.308.585.23.11 1.153.546 1.345.546.066 0 2.206-.954 2.387-1.053 0 .75.38 1.886.624 2.4.44.925.958 1.497 1.665 2.149l.875.62c1.777.996 3.962 1.207 5.8.253.608-.316 1.544-.9 1.975-1.477.083-.112.102-.12.189-.215 1.036-1.141 1.492-2.805 1.492-4.433 0-1.284-.61-2.955-1.436-3.905-.441-.508-.21-.315-.763-.794-2.22-1.921-5.267-2.1-7.647-.462-.896.617-1.542 1.361-2.073 2.372-.538 1.023-.662 2.255-.7 2.321-.076.13-1.751.863-1.933.878V10.453l6.496-2.91c.272-.12 1.966-.932 2.201-.952 0 .452-.086 4.817.069 5.137.253.523.954.305.954-.28V5.772c0-.478-.559-.592-1.039-.803l-6.497-2.91C9.38.542 11.044.573 7.6 2.036c-.414.176-.852.392-1.266.568-.448.19-.886.408-1.308.586-.877.37-1.69.772-2.574 1.153l-1.908.845c-.177.08-.512.218-.512.468z"/><path fill-rule="evenodd" clip-rule="evenodd" d="M17.994 21.63c-.419-.29-1.494-1.756-1.933-1.756a.521.521 0 00-.511.527c0 .314.321.536.497.716.274.282 1.626 1.8 1.89 1.8.347 0 .482-.233.668-.424l3.297-3.394c.172-.177.469-.377.469-.688 0-.29-.23-.527-.512-.527-.278 0-.402.207-.554.366l-3.311 3.38z"/></svg><svg fill="none" viewBox="0 0 23 23" id="user" xmlns="http://www.w3.org/2000/svg"><mask id="fa" fill="#fff"><path fill-rule="evenodd" clip-rule="evenodd" d="M13.318 13.546c-.064-.113-.216-.245-.381-.388-.227-.197-.479-.416-.557-.634-.102-.282-.047-.662.1-.839.688-.827.85-1.288 1.074-1.93.072-.208.151-.434.256-.698.042-.103.118-.176.202-.256.074-.07.154-.148.221-.256.493-.797.237-1.414.05-1.865-.074-.178-.137-.33-.14-.457-.006-.319-.001-.645.004-.973.018-1.196.036-2.418-.494-3.38C12.554-.126 9.737-.315 7.997.331c-2.347.872-2.334 3.043-2.322 4.99l.002.531c0 .126.003.217.005.29.009.23.01.259-.151.54-.419.735-.228 1.646.335 2.19.147.142.183.269.235.454.02.068.04.143.07.23.341.998.709 1.492.968 1.84.206.278.344.463.342.736-.001.349-.083.502-.261.71-.732.847-2.444 1.82-3.45 2.36a28.73 28.73 0 01-2.575 1.226c-.605.257-.91.386-1.059.616-.152.233-.144.571-.128 1.252.006.263.014.577.014.955-.001 1.643.072 1.642 1.561 1.616.207-.003.442-.007.707-.008h.696c1.06 0 2.121-.002 3.181 0 .069-.072.13-.14.19-.21.076-.087.153-.174.245-.268l6.716-6.836zm7.083-.68c-1.21.135-1.985-.746-2.112-1.629a1.912 1.912 0 01.302-1.344 1.893 1.893 0 011.044-.751c-1.336-.27-2.801.439-3.335 1.81-.193.493-.228.828-.214 1.126.013.263.06.495.127.832.024.124.052.261.082.42l.097.516-.37.373-2.4 2.414c.152-.006.31-.003.449.003.192.008.325.017.434.025.108.007.192.013.288.015.12.002.22.005.304.008h.017l.08-.08 1.485-1.512.713.7-1.488 1.516c-.066.066-.118.12-.162.166-.096.102-.15.158-.215.188-.08.036-.177.032-.395.024-.094-.004-.21-.008-.356-.01-.098-.002-.227-.01-.369-.02-.384-.024-.857-.055-1.042.026-.044.117-.094.554-.15 1.05-.088.764-.191 1.67-.314 1.77-.072.06-.46.123-.886.192-.54.089-1.145.187-1.252.302-.124.163-.227.636-.325 1.085-.072.33-.142.647-.214.82L7.89 23c-.04-.15-.136-.366-.235-.592-.142-.324-.292-.666-.299-.853.098-.117.214-.23.331-.343l.153-.15c.247-.249.617-.63 1.015-1.044.749-.774 1.601-1.656 1.949-1.969l4.507-4.535a29.123 29.123 0 00-.07-.352c-.168-.843-.297-1.488.126-2.574.87-2.234 3.567-3.16 5.592-2.004 2.173 1.24 2.61 4.063 1.31 5.867-.839 1.163-2 1.703-3.471 1.66-.384-.012-.653-.1-.91-.184-.161-.053-.318-.104-.497-.134l.169-.986c.26.044.514.128.677.181.036.013.068.023.095.031.168.053.308.086.496.092 1.161.034 1.998-.37 2.63-1.245.465-.646.63-1.472.497-2.26-.246.677-.866 1.182-1.555 1.26zM8.556 21.97l-.047-.11-.016-.036.057-.058.006.204zm0 0l-.006-.204c.276-.278.669-.684 1.082-1.111l.001-.002c.728-.753 1.518-1.57 1.841-1.862l.02-.019.02-.019.785-.79-.018.137-.062.528-.045.394c-.028.237-.056.458-.084.646l-.226.037-.185.03c-.243.04-.518.087-.749.14a3.3 3.3 0 00-.363.104l-.005.002c-.075.026-.329.117-.53.331l-.034.038-.031.04c-.177.234-.268.529-.314.682a9.49 9.49 0 00-.152.612l-.042.194-.012.054-.89.038zm11.51-11.904c.491-.082.923.31.993.775.077.512-.333.98-.77 1.03-1.167.13-1.451-1.6-.222-1.805zM15.859 20.87c-.545.012-1.16.027-1.57-.026l.248-1.782c.189-.02.383-.014.576-.009.367.01.729.02 1.038-.14.242-.125.535-.438.758-.676l.16-.169.15-.151c.095-.095.184-.185.288-.294a3.06 3.06 0 00.083-.093c.128-.147.163-.187.498-.123.644.124 1.058.092 1.707.042h.01v.894c0 .46-.001.92.002 1.38.006.95-.189 1.14-1.108 1.137-.465-.002-.93-.002-1.395-.001h-.823c-.183 0-.396.005-.622.01z"/></mask><path fill-rule="evenodd" clip-rule="evenodd" d="M13.318 13.546c-.064-.113-.216-.245-.381-.388-.227-.197-.479-.416-.557-.634-.102-.282-.047-.662.1-.839.688-.827.85-1.288 1.074-1.93.072-.208.151-.434.256-.698.042-.103.118-.176.202-.256.074-.07.154-.148.221-.256.493-.797.237-1.414.05-1.865-.074-.178-.137-.33-.14-.457-.006-.319-.001-.645.004-.973.018-1.196.036-2.418-.494-3.38C12.554-.126 9.737-.315 7.997.331c-2.347.872-2.334 3.043-2.322 4.99l.002.531c0 .126.003.217.005.29.009.23.01.259-.151.54-.419.735-.228 1.646.335 2.19.147.142.183.269.235.454.02.068.04.143.07.23.341.998.709 1.492.968 1.84.206.278.344.463.342.736-.001.349-.083.502-.261.71-.732.847-2.444 1.82-3.45 2.36a28.73 28.73 0 01-2.575 1.226c-.605.257-.91.386-1.059.616-.152.233-.144.571-.128 1.252.006.263.014.577.014.955-.001 1.643.072 1.642 1.561 1.616.207-.003.442-.007.707-.008h.696c1.06 0 2.121-.002 3.181 0 .069-.072.13-.14.19-.21.076-.087.153-.174.245-.268l6.716-6.836zm7.083-.68c-1.21.135-1.985-.746-2.112-1.629a1.912 1.912 0 01.302-1.344 1.893 1.893 0 011.044-.751c-1.336-.27-2.801.439-3.335 1.81-.193.493-.228.828-.214 1.126.013.263.06.495.127.832.024.124.052.261.082.42l.097.516-.37.373-2.4 2.414c.152-.006.31-.003.449.003.192.008.325.017.434.025.108.007.192.013.288.015.12.002.22.005.304.008h.017l.08-.08 1.485-1.512.713.7-1.488 1.516c-.066.066-.118.12-.162.166-.096.102-.15.158-.215.188-.08.036-.177.032-.395.024-.094-.004-.21-.008-.356-.01-.098-.002-.227-.01-.369-.02-.384-.024-.857-.055-1.042.026-.044.117-.094.554-.15 1.05-.088.764-.191 1.67-.314 1.77-.072.06-.46.123-.886.192-.54.089-1.145.187-1.252.302-.124.163-.227.636-.325 1.085-.072.33-.142.647-.214.82L7.89 23c-.04-.15-.136-.366-.235-.592-.142-.324-.292-.666-.299-.853.098-.117.214-.23.331-.343l.153-.15c.247-.249.617-.63 1.015-1.044.749-.774 1.601-1.656 1.949-1.969l4.507-4.535a29.123 29.123 0 00-.07-.352c-.168-.843-.297-1.488.126-2.574.87-2.234 3.567-3.16 5.592-2.004 2.173 1.24 2.61 4.063 1.31 5.867-.839 1.163-2 1.703-3.471 1.66-.384-.012-.653-.1-.91-.184-.161-.053-.318-.104-.497-.134l.169-.986c.26.044.514.128.677.181.036.013.068.023.095.031.168.053.308.086.496.092 1.161.034 1.998-.37 2.63-1.245.465-.646.63-1.472.497-2.26-.246.677-.866 1.182-1.555 1.26zM8.556 21.97l-.047-.11-.016-.036.057-.058.006.204zm0 0l-.006-.204c.276-.278.669-.684 1.082-1.111l.001-.002c.728-.753 1.518-1.57 1.841-1.862l.02-.019.02-.019.785-.79-.018.137-.062.528-.045.394c-.028.237-.056.458-.084.646l-.226.037-.185.03c-.243.04-.518.087-.749.14a3.3 3.3 0 00-.363.104l-.005.002c-.075.026-.329.117-.53.331l-.034.038-.031.04c-.177.234-.268.529-.314.682a9.49 9.49 0 00-.152.612l-.042.194-.012.054-.89.038zm11.51-11.904c.491-.082.923.31.993.775.077.512-.333.98-.77 1.03-1.167.13-1.451-1.6-.222-1.805zM15.859 20.87c-.545.012-1.16.027-1.57-.026l.248-1.782c.189-.02.383-.014.576-.009.367.01.729.02 1.038-.14.242-.125.535-.438.758-.676l.16-.169.15-.151c.095-.095.184-.185.288-.294a3.06 3.06 0 00.083-.093c.128-.147.163-.187.498-.123.644.124 1.058.092 1.707.042h.01v.894c0 .46-.001.92.002 1.38.006.95-.189 1.14-1.108 1.137-.465-.002-.93-.002-1.395-.001h-.823c-.183 0-.396.005-.622.01z" fill="#83C150"/><path d="M8.05 21.784l.007.203 1-.032-.007-.204-1 .032zm4.887-8.626l-.656.755.656-.755zm.38.388l.714.701.528-.537-.37-.656-.871.492zm-.938-1.022l.942-.338-.941.338zm.1-.839l-.768-.64.768.64zm1.075-1.93l.944.329.015-.043.01-.044-.97-.243zm0 0l-.944-.33-.015.042-.011.045.97.242zm.256-.698l-.928-.371.928.371zm.202-.256l.691.723.008-.008.008-.008-.707-.707zm0 0l-.692-.722-.008.007-.007.008.707.707zm.221-.256l-.85-.526.85.526zm.05-1.865l-.929.37.005.013.924-.383zm0 0l.928-.372-.005-.012-.923.384zm-.14-.457l1-.02-1 .02zm.004-.973l1 .015V5.25h-1zm0 0l-1-.015v.015h1zm-.494-3.38l-.876.482.876-.483zM7.997.331l-.349-.937.349.937zm-2.322 4.99h1v-.005l-1 .006zm0 0h-1v.007l1-.006zm.002.531l-1-.004 1 .004zm.005.29l1-.038-1 .037zm-.151.54l.868.497-.868-.496zm.335 2.19l-.695.719.695-.719zm.235.454l-.962.272.962-.272zm.07.23l-.946.324.946-.324zm.968 1.84l-.803.597.803-.597zm.342.736l1 .005-1-.005zm-.261.71l.757.653-.757-.654zm-3.45 2.36l.472.882-.473-.882zM1.194 16.43l-.391-.92.39.92zm-1.059.616l.839.545-.839-.545zm-.128 1.252l1-.023-1 .023zm.014.955h1-1zm1.561 1.616l.018 1-.018-1zm.707-.008v1-1zm.694 0v-1 1zm.002 0v1-1zm3.181 0l-.002 1 .432.001.296-.313-.726-.688zm.19-.21l-.75-.662-.003.003.753.66zm0 0l.749.663.003-.004-.752-.659zm.245-.268l.712.703.002-.002-.713-.701zm13.799-7.517l-.11-.994h-.002l.112.994zm0 0l.11.994h.001l-.111-.994zm-2.112-1.628l.99-.142-.99.142zm.302-1.344l-.828-.56.828.56zm1.044-.751l.285.959-.087-1.94-.198.981zm-3.335 1.81l-.932-.364-.003.007.935.356zm0 0l.931.363.003-.008-.934-.356zm-.214 1.126l-.999.05 1-.05zm.127.832l-.98.196.98-.196zm.082.42l-.983.184.983-.184zm.097.516l.709.705.37-.373-.097-.516-.982.184zm-.37.373l-.71-.705.71.705zm-2.4 2.414l-.71-.705-1.805 1.816 2.558-.112-.043-.999zm.449.003l-.042.999.042-1zm.434.025l.087-.997h-.017l-.07.997zm0 0l-.086.996.014.001.014.001.059-.998zm0 0l.1-.995-.02-.002-.02-.002-.06.999zm0 0l-.099.995.015.001.015.001.07-.997zm.288.015l-.017 1 .017-1zm.304.008l.036-1-.036 1zm.017 0l-.036 1 .444.016.31-.319-.718-.697zm.08-.08l.707.707.006-.006-.714-.7zm1.485-1.512l.701-.713-.713-.701-.701.713.713.7zm-.775 2.216l.707.707.006-.006-.713-.7zm-.162.166l-.725-.688-.002.002.727.686zm0 0l.726.689.001-.002-.727-.686zm-.215.188l.412.91-.412-.91zm-.395.024l-.053.998h.007l.008.001.038-1zm0 0l.052-.999h-.014l-.038.999zm-.356-.01l-.017 1 .017-1zm-.369-.02l-.065.998.065-.998zm0 0l.065-.997-.065.997zm-1.042.026l-.4-.916-.387.168-.149.395.936.353zm-.15 1.05l-.994-.112.993.113zm-.314 1.77l.634.773-.634-.773zm-.886.192l-.162-.986.162.986zm-1.252.302l-.73-.683-.035.038-.031.04.796.605zm-.325 1.085l-.977-.214-.005.025-.004.025.986.164zm0 0l.977.213.005-.024.004-.025-.986-.164zm-.214.82l.042 1 .633-.028.246-.584-.921-.388zM7.89 23l-.966.26.208.773.8-.034L7.891 23zm-.235-.592l-.928.372.006.015.007.016.915-.403zm0 0l.929-.371-.006-.016-.007-.015-.916.402zm-.299-.853l-.768-.64-.244.293.013.38 1-.033zm.331-.343l-.696-.718.696.718zm.153-.15l-.71-.704.71.705zm1.015-1.044l.72.695-.72-.695zm1.949-1.969l.67.743.02-.019.019-.019-.71-.705zm4.507-4.535l.71.705.37-.373-.097-.516-.983.184zm-.07-.352l-.983.179.002.009.001.008.98-.196zm0 0l.985-.18-.002-.008-.002-.009-.98.197zm.126-2.574l.932.363-.932-.363zm5.592-2.004l-.495.869.495-.869zm1.31 5.867l-.811-.585.81.585zm-3.471 1.66l-.03.999.03-1zm-.91-.184l.31-.95-.31.95zm-.328-1.12l.168-.986-.985-.168-.169.986.986.168zm.677.181l-.313.95.313-.95zm.095.031l-.297.955.297-.955zm.496.092l-.03 1 .03-1zm2.63-1.245l-.79-.614-.01.014-.011.015.81.585zm0 0l.79.614.01-.015.01-.014-.81-.585zm.497-2.26l.986-.166-.63-3.737-1.295 3.562.94.341zM8.51 21.861l-.918.397v.002l.918-.399zm.047.11l-.915.402.275.626.683-.029-.043-1zm-.063-.146l-.705-.71-.484.48.27.627.919-.397zm.057-.058l1-.032-.075-2.318-1.635 1.646.71.704zm0 0l-.71-.704-.303.305.014.43.999-.03zm1.082-1.111l-.719-.696v.001l.719.695zm0 0l.719.695v-.002l-.719-.694zm.001-.002l-.719-.695.72.695zm1.841-1.862l-.67-.743.67.743zm.02-.019l.67.743.02-.018.02-.02-.71-.705zm.02-.019l-.71-.705.71.705zm.785-.79l.991.131.388-2.937-2.089 2.101.71.705zm-.018.137l-.992-.123.992.123zm-.062.528l.994.114-.993-.114zm0 0l-.993-.113.993.114zm-.045.394l.993.117-.993-.117zm-.084.646l.165.986.715-.12.108-.717-.988-.15zm-.226.037l-.161-.987h-.001l.162.987zm-.185.03l-.162-.987.162.987zm-.749.14l-.225-.974.225.975zm-.363.104l.336.942-.336-.942zm-.005.002l.335.942-.335-.942zm-.53.331l-.73-.683.73.683zm-.034.038l-.73-.683-.036.037-.03.041.796.605zm-.031.04l-.797-.604.797.604zm-.314.682l.96.283-.96-.284zm-.152.612l.976.217-.976-.217zm-.042.194l.976.213-.976-.213zm-.012.054l.042 1 .77-.033.165-.753-.977-.214zm11.612-11.091l-.989.149.989-.15zm-.992-.775l.165.986-.165-.986zm.222 1.805l.112.993-.112-.993zm-6 8.972l-.991-.137-.139 1 1.002.129.127-.992zm1.57.026l.023 1-.024-1zm-1.323-1.808l-.102-.995-.781.08-.108.778.99.137zm.576-.009l.027-1-.027 1zm1.038-.14l-.459-.889.459.889zm.758-.676l-.73-.683.73.683zm.16-.169l-.713-.701.713.701zm.15-.151l-.708-.706.708.706zm.288-.294l.727.686-.727-.686zm.083-.093l.753.658-.753-.658zm.498-.123l.189-.982-.19.982zm1.707.042l-.076-.997.076.997zm.01 0l1-.003-.002-1.077-1.074.082.076.997zm0 .894l-1-.001 1 .001zm.002 1.38l-1 .006 1-.006zm-1.108 1.137l.005-1-.005 1zm-1.395-.001v-1 1zm-.823 0v-1 1zm-4.199-6.946a13.172 13.172 0 01.186.166l.024.025-.012-.016a.534.534 0 01-.032-.05l1.741-.984a1.86 1.86 0 00-.324-.406c-.092-.09-.195-.178-.271-.245l-1.312 1.51zm-.843-1.05c.11.305.308.536.439.674.14.148.298.284.404.376l1.312-1.51a3.958 3.958 0 01-.265-.242.518.518 0 01-.042-.049c-.003-.004.016.021.035.074l-1.883.676zm.273-1.817a1.748 1.748 0 00-.367.894c-.035.277-.02.606.095.922l1.882-.677c.007.022.007.032.007.026v-.02l-.003.01a.524.524 0 01-.077.125l-1.537-1.28zm.899-1.622c-.204.584-.317.922-.9 1.622l1.538 1.279c.795-.955 1.005-1.54 1.25-2.241l-1.888-.66zm-.026.088l1.94.485-1.94-.485zm.298-.826c-.114.286-.2.531-.272.738l1.888.66c.072-.208.145-.415.24-.655l-1.856-.743zm.438-.607c-.056.054-.303.27-.438.607l1.857.743a.51.51 0 01-.08.136c-.005.007-.006.008.002 0l.042-.041-1.383-1.445zm-.015.015l1.414 1.414-1.414-1.414zm.077-.075c.006-.008.009-.01.002-.003a.69.69 0 01-.02.021l-.044.042 1.383 1.445c.07-.067.239-.223.38-.453l-1.7-1.052zm-.023-.956c.098.237.146.369.157.502.008.098 0 .238-.133.454l1.7 1.052c.36-.581.47-1.148.426-1.671-.04-.487-.214-.89-.303-1.104l-1.847.767zm-.005-.012l1.857-.743-1.857.743zm-.21-.808c.004.21.055.39.094.505.038.117.088.235.121.315l1.847-.767a6.793 6.793 0 01-.07-.18c-.005-.013-.004-.013-.002-.001a.474.474 0 01.01.088l-2 .04zm.003-1.008c-.005.325-.01.669-.003 1.008l2-.04c-.007-.298-.002-.607.003-.938l-2-.03zm0 .015h2-2zm0 0h2-2zm-.37-2.898c.378.686.389 1.615.37 2.883l2 .03c.017-1.124.064-2.638-.618-3.878l-1.752.965zM8.345 1.27c.698-.26 1.648-.358 2.52-.18.865.176 1.544.594 1.912 1.262l1.752-.965c-.731-1.327-2.01-2-3.264-2.256-1.245-.254-2.574-.123-3.617.264l.697 1.875zm-1.67 4.047c-.006-1.011-.002-1.872.228-2.586.204-.631.582-1.142 1.442-1.461L7.648-.605C6.162-.053 5.374.958 5 2.117c-.347 1.076-.33 2.275-.325 3.212l2-.012zm0 .006h-2 2zm.002.535c0-.18 0-.363-.002-.541l-2 .012.002.52 2 .009zm.005.247a5.41 5.41 0 01-.005-.247l-2-.01c-.001.148.003.257.006.332l1.999-.075zM6.399 7.18c.07-.122.18-.312.238-.532.064-.242.047-.465.045-.543l-1.999.075a8.892 8.892 0 01.002.076v-.002a.453.453 0 01.018-.115c.013-.049.027-.075.022-.064a4.463 4.463 0 01-.062.114l1.736.99zm.162.974c-.267-.258-.332-.676-.162-.974l-1.737-.992c-.667 1.169-.35 2.574.509 3.404l1.39-1.438zm.502.901c-.055-.194-.146-.556-.502-.9l-1.39 1.437a.25.25 0 01-.045-.06.316.316 0 01-.013-.025c-.006-.013-.006-.016-.001 0a1.264 1.264 0 01.027.092l1.924-.544zm.054.179a3.289 3.289 0 01-.054-.179L5.14 9.6c.019.067.046.166.086.282l1.892-.647zm.824 1.567c-.228-.307-.53-.707-.824-1.568l-1.892.648c.388 1.135.822 1.724 1.111 2.113l1.605-1.193zm.54 1.337c.003-.662-.374-1.114-.54-1.337l-1.605 1.193c.054.073.09.122.12.166.03.042.042.062.045.07.003.005-.004-.007-.01-.032a.276.276 0 01-.01-.07l2 .01zm-.504 1.358c.117-.136.266-.326.37-.586.103-.262.133-.522.134-.772l-2-.01c0 .05-.003.072-.003.076 0 .001.002-.012.01-.033a.243.243 0 01.011-.024l.006-.01a.63.63 0 01-.042.052l1.514 1.307zm-3.735 2.589c.513-.276 1.22-.669 1.899-1.107.657-.424 1.371-.944 1.836-1.482l-1.514-1.307c-.267.309-.774.7-1.408 1.11-.612.395-1.264.758-1.758 1.023l.945 1.763zM1.585 17.35a29.712 29.712 0 002.657-1.265l-.945-1.763c-1.155.619-1.942.953-2.493 1.187l.781 1.84zm-.61.24c-.055.084-.106.092 0 .034a7.91 7.91 0 01.61-.274l-.781-1.841c-.283.12-.565.238-.789.36a1.92 1.92 0 00-.717.63L.975 17.59zm.033.684a8.254 8.254 0 01-.002-.695c.01-.126.025-.075-.031.011L-.702 16.5c-.208.32-.265.656-.286.928-.02.26-.011.573-.004.893l2-.047zm.014.978c0-.391-.008-.715-.014-.978l-2 .047c.007.262.014.565.014.93l2 .001zm.544.616a7.626 7.626 0 01-.754-.005c-.144-.015-.01-.03.135.112.138.137.122.26.1.097-.02-.154-.026-.395-.025-.82h-2c0 .397.002.772.042 1.078.04.3.134.728.477 1.067.348.344.78.426 1.069.456.29.029.644.021.99.015l-.034-2zm.723-.008c-.274 0-.516.005-.723.008l.035 2c.207-.003.434-.007.69-.008l-.002-2zm.694 0H2.29l.002 2h.694l-.002-2zm.003 0h-.002v2h.002v-2zm3.184 0c-1.062-.002-2.125 0-3.185 0l.002 2c1.06 0 2.12-.002 3.178 0l.005-2zm-.566.131c-.061.071-.11.126-.162.181l1.451 1.377c.084-.089.157-.172.216-.24l-1.505-1.318zm.004-.003l1.498 1.325-1.498-1.325zm.283-.31c-.116.119-.211.228-.287.313L7.11 21.31a4.88 4.88 0 01.205-.224L5.89 19.679zm6.713-6.833L5.89 19.681l1.427 1.402 6.715-6.836-1.427-1.402zm7.907 1.014l-.22-1.988.22 1.988zm-3.212-2.48c.188 1.31 1.363 2.687 3.213 2.48l-.223-1.987c-.321.036-.54-.06-.694-.194a.974.974 0 01-.316-.583l-1.98.284zm.464-2.046a2.912 2.912 0 00-.464 2.046l1.98-.284a.913.913 0 01.14-.641l-1.656-1.121zm1.587-1.15a2.893 2.893 0 00-1.587 1.15l1.656 1.12a.894.894 0 01.501-.352l-.57-1.918zm-2.119 3.132c.348-.891 1.317-1.372 2.206-1.193l.396-1.96c-1.784-.36-3.744.575-4.465 2.426l1.863.727zm.003-.008l-1.869-.712 1.87.712zm-.149.723c-.007-.149.001-.343.146-.715l-1.863-.727c-.24.616-.303 1.09-.28 1.54l1.997-.098zm.108.684c-.07-.352-.1-.51-.108-.684l-1.998.097c.017.35.08.656.145.98l1.961-.393zm.084.431c-.03-.165-.059-.307-.084-.43l-1.96.391.079.408 1.966-.369zm.097.517l-.096-.517-1.966.37.097.516 1.965-.369zm-.644 1.262l.37-.373-1.418-1.41-.37.373 1.418 1.41zm-2.4 2.414l2.4-2.414-1.418-1.41-2.4 2.414 1.419 1.41zm-.218-1.701c-.15-.007-.34-.011-.534-.003l.087 1.998c.112-.005.237-.002.364.003l.083-1.998zm.463.026a15.177 15.177 0 00-.463-.026l-.083 1.998c.178.007.3.016.407.023l.139-1.995zm.017.002l-.173 1.992.173-1.992zm-.028-.003l-.117 1.997.117-1.997zm.041.004l-.199 1.99.2-1.99zm.205.01a4.35 4.35 0 01-.235-.013l-.139 1.995c.104.008.214.015.34.017l.034-2zm.323.009a15.483 15.483 0 00-.323-.01l-.034 2c.111.002.205.005.284.008l.073-1.998zm.018 0h-.018l-.073 1.998h.018l.073-1.998zm-.665.213a9.81 9.81 0 00-.09.09l1.436 1.393a6.95 6.95 0 01.069-.07l-1.415-1.413zm1.48-1.507l-1.486 1.512 1.427 1.402 1.485-1.512-1.426-1.402zm2.127.688l-.713-.7-1.402 1.426.714.701 1.401-1.427zm-1.476 2.93l1.489-1.515-1.427-1.402-1.489 1.515 1.427 1.402zm-.15.154l.143-.148-1.413-1.414c-.076.076-.136.139-.18.185l1.45 1.377zm.002-.002l-1.454-1.373 1.454 1.373zm-.53.412c.285-.129.487-.367.529-.41l-1.451-1.377a4.564 4.564 0 01-.055.057l-.011.012a.646.646 0 01.164-.104l.824 1.822zm-.845.112c.092.004.218.01.329.005.126-.006.313-.025.516-.117l-.824-1.822a.711.711 0 01.225-.06h-.043c-.032 0-.07-.002-.127-.004l-.076 1.998zm-.015 0l.105-1.998-.105 1.997zm-.32-.01c.135.003.242.007.335.01l.076-1.998c-.095-.004-.22-.009-.377-.011l-.033 2zm-.416-.02c.132.008.289.018.416.02l.034-2a8.07 8.07 0 01-.322-.017l-.128 1.996zm-.002 0l.132-1.996-.132 1.995zm-.577-.056a.558.558 0 01-.103.035 1.515 1.515 0 01.148-.004c.153 0 .335.012.534.024l.128-1.995c-.184-.012-.43-.029-.656-.03a3.41 3.41 0 00-.37.017 1.644 1.644 0 00-.48.12l.8 1.833zm.444.247c.028-.252.054-.474.077-.648.012-.087.022-.151.03-.195.011-.066.01-.033-.015.033l-1.87-.707a1.84 1.84 0 00-.084.32c-.015.085-.03.183-.043.282-.027.198-.055.444-.082.689l1.987.226zm-.672 2.43c.221-.183.313-.413.335-.468.04-.097.068-.194.088-.27.04-.158.073-.341.1-.518.056-.359.106-.798.149-1.174l-1.987-.226c-.045.387-.09.782-.138 1.092a3.921 3.921 0 01-.062.332c-.009.034-.01.03 0 .005a.897.897 0 01.246-.32l1.269 1.546zm-1.36.405c.207-.033.43-.07.612-.106.09-.018.19-.04.282-.067.046-.014.107-.032.17-.059.05-.02.172-.073.295-.174l-1.268-1.546a.898.898 0 01.212-.13l.035-.012a1.76 1.76 0 01-.12.027c-.138.028-.32.058-.54.093l.322 1.974zm-.682-.003c-.106.114-.208.164-.223.171-.028.014-.041.017-.026.012.029-.01.09-.026.192-.048.202-.044.461-.086.739-.132l-.322-1.974c-.263.043-.577.094-.838.15-.13.029-.273.064-.404.107a1.808 1.808 0 00-.232.094 1.21 1.21 0 00-.347.255l1.461 1.366zm-.08.616c.052-.231.096-.434.141-.597.022-.081.04-.135.052-.166.017-.045.007-.002-.047.07l-1.593-1.21a1.717 1.717 0 00-.226.42c-.045.118-.083.241-.114.355-.062.226-.118.484-.166.701l1.954.427zm.01-.049l-1.972-.328 1.972.328zm-.279 1.044c.118-.28.209-.714.27-.995l-1.954-.427c-.037.17-.069.316-.1.44a3.268 3.268 0 01-.04.15l-.019.056 1.843.776zM7.933 24l2.333-.099-.085-1.998-2.332.099.084 1.998zm-1.192-1.188c.113.258.169.39.184.449l1.932-.52c-.065-.24-.2-.542-.285-.734l-1.831.805zm-.013-.031l1.857-.743-1.857.743zm-.37-1.192c.01.276.106.547.162.694.067.18.152.373.22.529l1.832-.805a9.113 9.113 0 01-.18-.428 1.42 1.42 0 01-.04-.118c-.008-.03.003-.001.005.062l-1.999.067zm.634-1.094c-.108.105-.265.255-.403.422l1.537 1.279c.058-.07.133-.144.258-.265l-1.392-1.436zm.139-.136a10.19 10.19 0 01-.139.136l1.392 1.436c.05-.048.108-.104.166-.163l-1.419-1.41zm1.006-1.035c-.4.415-.764.791-1.006 1.035l1.419 1.41c.254-.256.629-.644 1.025-1.055l-1.438-1.39zm1.998-2.016c-.38.343-1.267 1.26-1.998 2.017l1.438 1.39c.767-.793 1.585-1.639 1.9-1.922l-1.34-1.485zm4.467-4.498l-4.507 4.535 1.419 1.41 4.507-4.535-1.419-1.41zm-.34.55l.067.34 1.966-.37-.072-.364-1.96.393zm-.003-.018l1.968-.358-1.968.358zm.177-3.116c-.252.646-.353 1.202-.353 1.742.001.518.098.985.18 1.391l1.96-.393c-.087-.436-.14-.712-.14-1 0-.265.045-.574.217-1.014l-1.864-.726zm7.02-2.51c-2.555-1.457-5.927-.294-7.02 2.51l1.864.726c.648-1.664 2.669-2.352 4.165-1.498l.991-1.737zm1.625 7.32c1.63-2.26 1.09-5.77-1.625-7.32l-.991 1.738c1.63.93 1.965 3.066.994 4.413l1.622 1.17zM18.77 17.11c1.78.053 3.266-.624 4.312-2.075l-1.622-1.17c-.632.877-1.469 1.28-2.63 1.246l-.06 1.999zm-1.19-.233c.267.088.652.217 1.19.233l.06-2c-.23-.006-.382-.053-.63-.134l-.62 1.901zm-.355-.099c.096.017.186.045.354.1l.62-1.902c-.153-.05-.376-.125-.637-.17l-.337 1.972zm-.649-2.14l-.168.986 1.971.337.169-.986-1.972-.336zm1.975-.6c-.157-.051-.477-.158-.82-.217l-.338 1.972c.177.03.364.09.533.145l.625-1.9zm.08.027l-.08-.026-.625 1.9.11.035.595-1.91zm.228.046a.74.74 0 01-.228-.046l-.594 1.91c.215.066.45.126.763.135l.06-1.999zm1.79-.83c-.233.323-.476.522-.735.646-.262.124-.598.198-1.055.184l-.06 2c.706.02 1.369-.09 1.974-.378.607-.289 1.099-.73 1.498-1.283l-1.622-1.169zm.021-.03l1.579 1.229-1.579-1.228zm.301-1.478c.093.549-.028 1.1-.322 1.508l1.622 1.17c.636-.882.846-1.984.672-3.01l-1.972.332zm-.458 2.086c1.09-.122 2.016-.899 2.384-1.91l-1.88-.684c-.123.34-.437.574-.727.607l.223 1.987zm-12.92 8.4l.049.114 1.831-.804a30.124 30.124 0 01-.046-.106l-1.835.797zm-.017-.038l.016.037 1.835-.793-.015-.037-1.836.793zm.265-1.158a7.982 7.982 0 01-.052.052l1.41 1.42.061-.063-1.419-1.41zm1.716.876l-.007-.204-1.999.065.007.203 1.999-.064zm-2.005-.14l.006.203 1.999-.063-.006-.203-2 .063zm1.361-1.838c-.414.43-.801.83-1.071 1.102l1.418 1.41c.283-.285.681-.697 1.092-1.122l-1.439-1.39zm.002-.001h-.001l1.437 1.391-1.436-1.391zm0 0h-.001l1.439 1.39v-.001l-1.438-1.39zm1.89-1.91c-.356.321-1.18 1.175-1.89 1.91l1.438 1.389c.746-.772 1.501-1.552 1.792-1.815l-1.34-1.485zm.02-.02l-.02.02 1.34 1.484.02-.018-1.34-1.485zm-.02.02l-.019.019 1.419 1.41.02-.02-1.42-1.41zm.785-.79l-.784.79 1.418 1.41.785-.79-1.419-1.41zm1.685.964l.016-.129-1.983-.261-.018.144 1.985.246zm-.061.518l.06-.518-1.984-.246c-.02.16-.042.351-.063.538l1.987.227zm0 .001l-1.987-.227 1.987.227zm-.046.397l.046-.397-1.987-.227-.045.39 1.986.234zm-.088.678c.03-.203.06-.437.088-.678l-1.986-.235c-.028.234-.054.443-.08.614l1.977.299zm-1.054.875l.23-.038-.33-1.973-.222.037.322 1.974zm-.184.03l.185-.03-.324-1.974-.184.03.323 1.974zm-.686.128c.197-.045.443-.088.687-.128l-.326-1.974c-.242.04-.545.092-.81.153l.45 1.95zm-.251.07c.067-.024.153-.047.251-.07l-.45-1.949c-.13.03-.302.074-.475.136l.674 1.883zm-.006.002l.005-.001-.672-1.884-.005.002.672 1.883zm-.134.073a.232.232 0 01.055-.039.524.524 0 01.078-.034l-.67-1.884c-.094.034-.549.189-.925.591l1.462 1.366zm-.035.037l.035-.037-1.462-1.366-.035.038 1.462 1.365zm.035-.037l.03-.041-1.593-1.209-.03.041 1.593 1.209zm-.151.36a2.1 2.1 0 01.071-.21.71.71 0 01.08-.15L9.17 19.787c-.3.395-.431.852-.476 1.002l1.918.567zm-.136.546a8.58 8.58 0 01.136-.546l-1.919-.567a10.47 10.47 0 00-.17.68l1.953.433zm-.042.19l.042-.19-1.952-.434-.043.197 1.954.427zm-.011.055l.011-.055-1.953-.427-.012.055 1.954.427zm-1.825.823l.89-.038-.085-1.998-.89.038.085 1.998zm13.449-12.277c-.136-.905-.998-1.804-2.146-1.613l.33 1.973a.217.217 0 01-.095-.006.145.145 0 01-.05-.024.04.04 0 01-.01-.012.058.058 0 01-.007-.02l1.978-.298zM20.4 12.865c.976-.109 1.812-1.075 1.647-2.172l-1.978.298a.146.146 0 01.003-.062.054.054 0 01.008-.017l.002-.002a.062.062 0 01.01-.007.217.217 0 01.085-.025l.223 1.987zm-.5-3.785c-.554.093-1.016.38-1.31.813a1.912 1.912 0 00-.302 1.344c.127.883.901 1.764 2.112 1.628l-.223-1.987c-.02.002-.017-.002.004.004.02.006.04.018.058.032a.11.11 0 01.026.031l.003.008-.001.015a.157.157 0 01-.065.09c-.013.008-.008.001.029-.005l-.33-1.973zm-5.74 12.756c.503.065 1.207.045 1.72.033l-.046-2c-.578.014-1.102.024-1.42-.017l-.254 1.984zm-.616-2.911l-.247 1.782 1.98.275.248-1.782-1.981-.275zm1.594-.871c-.181-.005-.44-.013-.705.013l.203 1.99c.114-.012.244-.01.448-.004l.054-2zm.552-.03a.389.389 0 01-.131.027c-.105.01-.226.008-.421.003l-.053 1.999c.308.008.944.047 1.522-.251l-.917-1.778zm.486-.47a7.59 7.59 0 01-.326.335c-.116.11-.167.14-.16.135l.917 1.778c.25-.13.467-.318.614-.456.158-.15.308-.31.416-.426l-1.46-1.366zm.178-.187c-.058.059-.121.127-.178.187l1.461 1.366c.062-.066.106-.114.143-.15l-1.426-1.403zm.155-.156l-.155.156 1.426 1.402.145-.146-1.416-1.412zm.268-.275c-.092.098-.173.18-.268.275l1.416 1.412c.094-.094.193-.193.307-.314l-1.455-1.373zm.057-.063l-.057.064 1.455 1.372c.047-.05.086-.095.11-.121l-1.508-1.315zm1.44-.448c-.145-.028-.472-.094-.807.008-.39.12-.616.42-.633.44l1.507 1.315.026-.03a.774.774 0 01-.54.219c-.013 0 .001 0 .07.012l.377-1.964zm1.443.027c-.643.05-.941.07-1.442-.027l-.378 1.965c.787.15 1.318.107 1.973.056l-.153-1.994zm.01 0h-.01l.153 1.994h.01l-.153-1.995zm1.076 1.893v-.898l-2 .004v.891l2 .003zm.002 1.371c-.003-.455-.003-.91-.002-1.371l-2-.003c0 .46-.001.923.002 1.387l2-.013zm-2.112 2.144c.251 0 .523-.01.78-.066.268-.058.579-.18.839-.445.258-.263.374-.575.43-.842.054-.257.065-.532.063-.79l-2 .012c0 .103-.002.184-.006.248a.904.904 0 01-.014.12c-.004.017-.003.005.01-.024a.474.474 0 01.215-.217c.034-.017.05-.019.036-.016a.815.815 0 01-.108.014c-.06.004-.137.006-.236.006l-.009 2zm-1.39-.001h1.39l.009-2h-1.4l.002 2zm-.825 0h.826l-.003-2h-.822l-.001 2zm-.597.01c.229-.005.429-.01.597-.01l.001-2c-.197 0-.424.006-.645.01l.047 2z" fill="#83C150" mask="url(#fa)"/></svg></svg>