<svg width="20" height="20" viewBox="0 0 20 20" fill="none" xmlns="http://www.w3.org/2000/svg">
<path fill-rule="evenodd" clip-rule="evenodd" d="M0.963093 16.614V3.38599C0.963093 2.00778 2.0071 0.963093 3.38599 0.963093H16.614C17.9922 0.963093 19.0369 2.00897 19.0369 3.38599V16.614C19.0369 17.99 17.9895 19.0369 16.614 19.0369H3.38599C2.0103 19.0369 0.963093 17.9904 0.963093 16.614ZM0 3.2806V16.7344C0 18.4588 1.52625 20 3.26561 20H16.7344C17.6685 20 18.5146 19.5456 19.1162 18.9206C19.6343 18.3824 20 17.4979 20 16.7344V3.26561C20 2.6458 19.7574 1.9196 19.3957 1.43199C19.2435 1.22644 19.2055 1.1693 19.018 0.981962L18.8074 0.786382C18.5031 0.496037 17.905 0.206042 17.466 0.0960968C17.2584 0.0441602 16.9831 0 16.7344 0H3.26561C2.6146 0 1.89854 0.259146 1.43199 0.604277C1.11264 0.840328 1.14637 0.818259 0.883834 1.0796C0.559954 1.4018 0.19203 2.07691 0.0939016 2.547C0.0446739 2.78321 0 2.99717 0 3.2806H0Z" fill="#007ABE"/>
<path fill-rule="evenodd" clip-rule="evenodd" d="M5.71853 12.3401V15.2296H4.2889V8.57798H6.21525C6.38521 8.57798 6.52196 8.46922 6.59209 8.3679C6.68889 8.22811 6.66661 8.08379 6.66661 7.85549C6.66661 7.71792 6.64842 6.71165 6.68011 6.68012C6.71147 6.64859 7.70425 6.66662 7.84049 6.66662C8.0777 6.66662 8.19977 6.69429 8.35759 6.59682C8.46737 6.52889 8.57797 6.3859 8.57797 6.21526V4.77047H11.4221V6.21526C11.4221 6.38861 11.5307 6.51842 11.6323 6.59194C11.7695 6.69142 11.9169 6.66662 12.1445 6.66662C12.2821 6.66662 13.2884 6.64843 13.3199 6.68012C13.3514 6.71148 13.3334 7.70426 13.3334 7.8405C13.3334 8.05749 13.3079 8.22187 13.4019 8.35895C13.4761 8.46719 13.6106 8.57798 13.7848 8.57798H15.7111V15.2296H14.2815V12.3401C14.2815 12.0916 14.0481 11.8886 13.7999 11.8886C13.5767 11.8886 13.3334 12.0904 13.3334 12.31V15.2296H12.3853V12.3552C12.3853 12.1043 12.1547 11.8886 11.9038 11.8886C11.651 11.8886 11.4221 12.0997 11.4221 12.3552V15.2296H10.474V12.3401C10.474 12.0746 10.2202 11.8886 10.0076 11.8886C9.75469 11.8886 9.52605 12.0882 9.52605 12.3401V15.2296H8.57797V12.3552C8.57797 12.1029 8.34647 11.8886 8.09625 11.8886C7.84369 11.8886 7.61471 12.0997 7.61471 12.3552V15.2296H6.66661V12.31C6.66661 12.0852 6.41557 11.8886 6.20009 11.8886C5.94987 11.8886 5.71853 12.0906 5.71853 12.3401ZM7.61471 4.27392V5.71854H6.13989C5.93571 5.71854 5.71853 5.93572 5.71853 6.1399V7.61472H3.79235C3.57351 7.61472 3.34082 7.82244 3.34082 8.03608V15.7713C3.34082 15.9808 3.56421 16.1778 3.76267 16.1923C4.01425 16.2105 5.10295 16.1927 5.44776 16.1927C5.68701 16.1927 5.93756 16.1834 6.17564 16.2006C6.2323 16.2047 6.20801 16.1927 6.27545 16.1927L8.0831 16.2016C8.12324 16.2025 8.11395 16.1927 8.17163 16.1927L9.99429 16.2016C10.0346 16.2025 10.0251 16.1927 10.0828 16.1927L11.8904 16.2016C11.9308 16.2025 11.9213 16.1927 11.979 16.1927L13.9045 16.1923C14.588 16.1681 15.5621 16.2225 16.223 16.193C16.4533 16.1826 16.6592 15.9568 16.6592 15.7713V8.03608C16.6592 7.82244 16.4265 7.61472 16.2077 7.61472H14.2815V6.1399C14.2815 5.93572 14.0643 5.71854 13.8601 5.71854H12.3853V4.27392C12.3853 4.02621 12.1682 3.80737 11.9188 3.80737H8.08125C7.94637 3.80737 7.82059 3.87414 7.75347 3.94614C7.68199 4.02252 7.61471 4.13093 7.61471 4.27392Z" fill="#007ABE"/>
</svg>
