<svg width="21" height="29" viewBox="0 0 21 29" fill="none" xmlns="http://www.w3.org/2000/svg">
<path fill-rule="evenodd" clip-rule="evenodd" d="M9.9139 16.7802C9.53286 16.9872 9.44181 17.0279 9.17032 17.3142C8.97557 17.5195 8.86758 17.8132 8.75824 18.15L8.70738 18.6945C8.71173 18.7017 8.71546 18.7116 8.71768 18.7174L8.76264 18.8903C8.88175 19.514 9.18826 19.682 9.29589 19.9301C9.37648 19.979 9.79377 20.6265 9.89504 20.7683C10.0863 21.0361 10.2995 21.3304 10.4794 21.616C10.6518 21.8206 11.2485 22.7313 11.4642 23.0321C11.825 23.5352 11.782 23.4197 11.7818 23.909C11.7817 24.301 11.7818 24.6929 11.7819 25.0865L11.6672 25.0911L11.0823 25.0913H10.5005H9.91216H9.33031H8.74199H8.16015H7.57182H6.98996H6.40163H5.81979H5.23147H4.6496H4.06128L3.48124 25.0914C3.23037 25.0867 3.08292 25.0598 2.88413 24.9701C2.69801 24.8522 2.58883 24.7896 2.47411 24.6241C2.11617 24.2348 2.22544 23.4115 2.22027 22.7973C2.19145 19.3754 2.23089 15.8746 2.2216 12.441C2.22039 11.9957 2.16996 10.7531 2.2709 10.4153C2.42181 9.91017 2.84787 9.57244 3.48323 9.56172L4.05944 9.56181H4.65138H5.22964H5.82157H6.3998H6.99174H7.56999H8.16193H8.74016H9.3321H9.91033H10.5023H11.0805L11.667 9.56207C12.449 9.56236 12.9569 10.0242 12.9744 10.7728C12.9936 11.593 12.9747 12.4372 12.9749 13.2601C12.9754 14.9259 12.9774 16.5933 12.9748 18.2596C12.8399 18.1882 12.2972 17.6394 12.2442 17.5426C12.0687 17.4297 11.9316 17.2003 11.7514 17.0688C11.6608 17.0027 11.5572 16.9283 11.4488 16.8735C11.3479 16.8225 11.2279 16.7831 11.1423 16.7372C10.9122 16.6966 10.7594 16.6559 10.5043 16.6649C10.266 16.6759 10.1291 16.7199 9.91387 16.7802H9.9139ZM2.89502 8.42044C2.715 8.47973 2.45802 8.58172 2.27836 8.6389C2.25895 8.66728 1.90872 8.8899 1.83896 8.95898C1.76198 9.03518 1.71201 9.08995 1.63605 9.16617C1.54909 9.25343 1.53545 9.30511 1.46016 9.35872C1.38859 9.53311 1.26325 9.68413 1.18016 9.90941C1.09968 10.1276 1.06812 10.2948 1.03392 10.536L1.02344 11.1279V11.7062V12.2981V12.8764V13.4683V14.0465V14.6385V15.2167V15.8087V16.3869V16.9788V17.5571V18.149V18.7273V19.3192V19.8974V20.4894V21.0676V21.6595V22.2378V22.8297V23.408L1.02589 23.9999L1.12525 24.5669C1.17311 24.9328 1.50304 25.3494 1.69469 25.5449C1.84615 25.6995 1.92367 25.7739 2.12368 25.9065C2.97955 26.4737 4.45685 26.2878 5.67176 26.2878C7.7575 26.2878 9.84324 26.2878 11.9278 26.2883L12.1718 26.9249C12.3309 27.1578 12.4203 27.384 12.5894 27.6104C12.9881 28.1444 13.2425 28.7597 13.7629 28.6656C14.0782 28.6086 14.2547 28.3386 14.2433 27.9889C14.1788 27.6668 13.7429 27.2494 13.6001 26.9592C13.3782 26.7535 13.1143 26.1611 13.0342 25.7572C13.0058 25.6091 12.9701 25.456 12.9958 25.3034C12.9004 25.144 12.9923 23.586 12.9593 23.236C12.9089 23.1536 12.9074 23.0543 12.858 22.9539C12.7744 22.784 12.4377 22.418 12.4137 22.2691C12.4075 22.2643 12.3995 22.2575 12.3957 22.254L11.1612 20.491L10.2633 19.1998C10.1708 19.059 9.98689 18.9049 9.98245 18.7601L9.92211 18.6351C9.91186 18.5847 9.91227 18.5205 9.91596 18.4693C9.92273 18.3749 9.94461 18.2999 9.98627 18.2184C10.0496 18.0945 10.1669 17.9659 10.3166 17.9045C10.7685 17.7192 11.035 18.0242 11.2217 18.2125C11.6656 18.6604 12.0921 19.0832 12.5373 19.5299C12.9827 19.9767 13.4068 20.4014 13.8522 20.848C14.1931 21.1898 14.5652 21.7239 15.0677 21.427C15.224 21.3346 15.2683 21.2433 15.3419 21.071C15.3936 20.8087 15.3288 20.6468 15.1963 20.4934C15.1547 20.5037 15.1641 20.5108 15.1717 20.4681L14.6124 19.907C14.5698 19.9176 14.5781 19.9257 14.5875 19.8828C14.5001 19.8293 14.4468 19.761 14.371 19.6856C14.3318 19.6465 14.3023 19.6225 14.2665 19.5848C14.1773 19.4911 14.2098 19.5584 14.1962 19.4588C14.1518 19.3947 14.1644 19.2979 14.1655 19.1994C14.1666 19.1017 14.1661 19.0039 14.1661 18.9062C14.1661 17.9795 14.1221 15.6263 14.1715 15.0309C14.2864 15.1193 14.5132 15.2863 14.5994 15.3883C14.6875 15.4423 14.7794 15.5241 14.845 15.5844C14.904 15.6388 14.8998 15.6345 14.9557 15.6801C15.0201 15.7326 15.0222 15.7043 15.0335 15.776C15.1298 15.8348 15.1583 15.845 15.2126 15.9293C15.3273 15.9722 15.3576 16.0475 15.4532 16.1457C15.5333 16.2279 15.6163 16.2804 15.6564 16.3747C15.7651 16.4134 15.7531 16.4144 15.8023 16.4972C15.9109 16.6218 16.0679 16.8004 16.1551 16.9706C16.6216 17.6051 16.5559 18.4216 16.5579 19.3113L16.5561 23.5285C16.5517 24.3676 16.8323 24.3163 16.8871 24.566L16.9683 24.6401C17.0616 24.7442 17.2916 25.0168 17.3476 25.129C17.5254 25.298 19.1232 27.3909 19.1844 27.507C19.2666 27.5414 19.3827 27.7377 19.4535 27.8262C19.5571 27.9557 19.6212 28.0436 19.7235 28.1706C19.9154 28.4088 20.0175 28.6753 20.4476 28.6739C20.7275 28.6424 20.9117 28.4852 20.9766 28.2455C21.0722 27.8921 20.8491 27.7083 20.7416 27.5072C20.6608 27.471 19.7093 26.2045 19.5488 26.0051L19.4048 25.7843C19.315 25.7176 19.2227 25.5861 19.1504 25.4963L18.0652 24.0944C17.7137 23.6561 17.7547 23.7646 17.7541 23.4114L17.754 22.8229V22.2447V21.6527V21.0745V20.4825V19.9043V19.3124V18.7341L17.7432 18.1422L17.6663 17.5314C17.5983 17.341 17.5653 17.1513 17.4845 16.9528C17.4443 16.8538 17.409 16.7618 17.3603 16.6658C17.3062 16.5591 17.2558 16.5125 17.2436 16.4069L16.7445 15.7606C16.5726 15.5512 16.1937 15.2188 16.0395 15.0615C15.9819 15.0028 15.9722 14.9828 15.9088 14.9306L14.3808 13.6494C14.2666 13.5575 14.1661 13.5157 14.164 13.3208C14.1542 12.4106 14.2036 11.4242 14.1561 10.5238L14.0334 9.95045C13.7924 9.51338 13.9165 9.59988 13.5368 9.13937C13.2829 8.83142 12.8669 8.6689 12.7918 8.56558C12.5512 8.54897 12.4405 8.37027 11.6983 8.36503L7.92441 8.365C6.97375 8.365 3.57788 8.30925 2.895 8.42035L2.89502 8.42044Z" fill="#007ABE"/>
<path fill-rule="evenodd" clip-rule="evenodd" d="M4.61887 0.418576L4.06676 0.600706C3.8741 0.673241 3.66665 0.748753 3.47553 0.825363C3.27218 0.906849 3.06089 1.02468 2.86358 1.0863C2.78056 1.15554 2.40545 1.33593 2.29433 1.39849C2.19123 1.45653 2.11231 1.50648 2.01954 1.56231C1.93888 1.61083 1.81059 1.69998 1.72979 1.73725C1.53617 1.90368 1.14794 2.1314 0.819504 2.4107C0.649345 2.5554 0.0686677 3.02939 0 3.16998C0.105954 3.25753 0.190805 3.35401 0.292593 3.45619C0.395252 3.55923 0.51201 3.64163 0.577908 3.7694C0.653122 3.80101 0.761731 3.92006 0.81044 3.9893C0.965835 3.90987 0.973983 3.80172 1.10631 3.76631L1.29414 3.55889C1.35202 3.50547 1.4276 3.446 1.5011 3.38502C1.6377 3.27172 1.79285 3.15526 1.9495 3.04239C2.18771 2.8707 2.63313 2.53933 2.92181 2.43317C2.96654 2.34374 3.84446 1.92501 4.01061 1.92116C4.14877 1.77128 4.96738 1.57462 5.23102 1.49611L5.82367 1.3674L6.46166 1.27198C6.59632 1.24991 6.74819 1.22982 6.8871 1.24831C6.98978 1.17754 7.41236 1.20317 7.57009 1.20292L8.16203 1.21897C8.35162 1.22995 8.69199 1.21219 8.82864 1.30418C8.97414 1.28235 9.16144 1.32098 9.2997 1.35946L9.91047 1.48531C10.1249 1.53175 10.9358 1.77051 11.055 1.85652C11.2904 1.91574 12.1704 2.30241 12.2771 2.44931C12.4705 2.46389 13.0766 2.92495 13.217 3.02372C13.3997 3.15235 13.98 3.60819 14.0523 3.71763L14.3524 3.98941L14.556 3.80383L15.1754 3.16364C14.9826 2.78445 13.4465 1.73306 13.4244 1.70195C13.2517 1.63498 13.0126 1.468 12.8289 1.36436C12.7125 1.29874 12.6362 1.26381 12.521 1.20288L12.2133 1.02654C12.185 1.02423 11.1641 0.618399 11.1133 0.586239L10.4981 0.400791C10.1531 0.335076 9.82141 0.234203 9.45734 0.168968C9.09708 0.104467 8.70899 0.0618239 8.33404 0.0329834L7.57902 0.00856058C7.40909 0.0110326 7.20588 0.0407429 7.04893 0C6.91335 0.0750081 6.59725 0.0549342 6.41229 0.0744358C6.19926 0.0968673 6.00216 0.126669 5.79551 0.160431C5.37726 0.228755 5.00977 0.339493 4.61894 0.418507L4.61887 0.418576Z" fill="#007ABE"/>
<path fill-rule="evenodd" clip-rule="evenodd" d="M5.31126 2.68703C5.21059 2.78132 4.77002 2.89121 4.61874 2.92769C4.56424 2.97196 4.16412 3.12303 4.04766 3.18092C3.85152 3.2784 3.66971 3.3746 3.47957 3.4649C3.35574 3.56591 3.11577 3.68842 2.97781 3.77995C2.66608 3.98678 1.82971 4.6177 1.69336 4.86495C1.81197 4.94451 1.91541 5.07232 2.02187 5.17883C2.13361 5.29064 2.26605 5.38343 2.33659 5.52304L2.42948 5.58944C2.49364 5.64696 2.46496 5.63753 2.54273 5.6785C2.59266 5.62352 2.78996 5.41955 2.85536 5.38623C2.92086 5.303 3.16051 5.11602 3.26789 5.03449C3.40124 4.93323 3.54537 4.83439 3.70246 4.73663C3.96251 4.5748 4.36421 4.3067 4.67695 4.22194C4.79433 4.12004 5.58357 3.84647 5.76776 3.85159C5.87008 3.75773 6.23637 3.7157 6.40301 3.69547C6.55355 3.66138 6.74831 3.62149 6.9065 3.64509C7.04299 3.55909 7.38216 3.59425 7.56791 3.59043L8.07083 3.60915L8.74014 3.68297L9.32276 3.80591C9.63126 3.85462 10.2793 4.07582 10.5008 4.20823C10.834 4.33069 11.175 4.54164 11.4435 4.70843C11.6022 4.80699 11.7299 4.89617 11.8783 5.00617C11.971 5.07491 12.217 5.26345 12.2626 5.31912C12.4199 5.45384 12.5274 5.53963 12.6637 5.6687L12.7979 5.56007L13.4987 4.84059C13.4509 4.77014 13.1821 4.51959 13.0871 4.44129C12.7714 4.18111 12.5136 3.9703 12.1512 3.73843C12.0158 3.65182 11.7845 3.53309 11.6631 3.44142C11.4757 3.36355 11.296 3.24496 11.0937 3.15839C10.8903 3.07141 10.6966 2.98311 10.4892 2.9119L9.9429 2.71979C9.81076 2.69617 9.35979 2.60825 9.27851 2.54176C8.952 2.57138 7.9256 2.21922 6.21543 2.50692C5.99363 2.54425 5.46862 2.69379 5.31128 2.68701L5.31126 2.68703Z" fill="#007ABE"/>
<path fill-rule="evenodd" clip-rule="evenodd" d="M5.81646 5.04653C5.71309 5.09227 5.34386 5.22763 5.25466 5.23136C5.20976 5.28783 4.56737 5.5934 4.30126 5.77489L3.66695 6.25342C3.57704 6.33424 3.58226 6.36196 3.47796 6.41932L3.45143 6.43184C3.42032 6.49009 3.43073 6.47865 3.38965 6.53145C3.54541 6.76362 3.98058 7.05275 4.09445 7.27606C4.13646 7.2919 4.10508 7.27425 4.15946 7.31397C4.1769 7.32669 4.20359 7.35233 4.21984 7.36558C4.3548 7.20838 4.95802 6.72466 5.2291 6.60829C5.54163 6.39924 5.99841 6.21025 6.43248 6.12459L6.98544 6.01665L7.55286 5.97591L8.12955 6.00859L8.73591 6.11718C9.03643 6.1646 9.72308 6.43234 9.91636 6.58222C10.114 6.66615 10.5877 7.00276 10.7489 7.15992C10.8441 7.25269 10.8828 7.29568 10.9736 7.36538L11.0458 7.31369L11.8089 6.53427L11.7449 6.4493C11.6652 6.39331 11.6847 6.41229 11.6515 6.33593C11.5684 6.30347 11.0857 5.8936 10.8296 5.73243L9.94307 5.24636L9.29235 5.0022C9.18088 5.01032 8.88859 4.93216 8.77286 4.89201C8.21816 4.83389 7.80547 4.75561 7.21586 4.79624C6.95705 4.81407 6.73755 4.84538 6.4835 4.88903C6.24396 4.93016 6.03633 5.00577 5.81641 5.04656L5.81646 5.04653Z" fill="#007ABE"/>
<path fill-rule="evenodd" clip-rule="evenodd" d="M4.62308 22.2472C4.72082 22.4807 4.79471 22.6034 5.03523 22.675C5.29028 22.751 5.50798 22.6512 5.64397 22.506C6.0025 22.1232 5.73987 21.5658 5.24372 21.5113C4.81153 21.5066 4.58603 21.8039 4.62308 22.2472Z" fill="#007ABE"/>
<path fill-rule="evenodd" clip-rule="evenodd" d="M10.1478 15.5163C10.2074 15.4873 10.2737 15.4605 10.3237 15.4255C10.3851 15.3827 10.4143 15.3304 10.472 15.3078L10.5162 15.216C10.6329 14.9023 10.5472 14.9225 10.5406 14.6611C10.4539 14.6022 10.5004 14.653 10.4701 14.559C10.3307 14.4571 10.2168 14.3319 9.91396 14.3445C9.59953 14.4058 9.35317 14.631 9.39534 15.0105C9.43608 15.3773 9.73492 15.5609 10.1479 15.5164L10.1478 15.5163Z" fill="#007ABE"/>
<path fill-rule="evenodd" clip-rule="evenodd" d="M9.91381 13.1381C10.2078 13.1511 10.3358 13.0474 10.4664 12.9116L10.4877 12.8768C10.6129 12.5818 10.5505 12.6352 10.5698 12.3438C10.4971 12.2823 10.5087 12.2683 10.474 12.1778C10.4082 12.1459 10.3598 12.0711 10.2503 12.0154C10.1476 11.9632 10.0417 11.9488 9.91381 11.9543C9.21209 12.0985 9.20605 13.003 9.91381 13.1381Z" fill="#007ABE"/>
<path fill-rule="evenodd" clip-rule="evenodd" d="M4.63538 19.8938L4.68328 20.0188C4.86592 20.1812 4.86535 20.2993 5.24213 20.3109C5.98619 20.228 6.00052 19.2061 5.23093 19.1218C4.80718 19.1349 4.54533 19.4347 4.63538 19.8938Z" fill="#007ABE"/>
<path fill-rule="evenodd" clip-rule="evenodd" d="M7.57354 13.1419C7.81486 13.1335 7.96186 13.0383 8.06928 12.9073C8.24527 12.6926 8.1655 12.5747 8.17175 12.3136L8.1284 12.2571C7.97554 12.0719 7.88369 11.9591 7.57354 11.9508C6.79835 12.0425 6.8233 13.0651 7.57354 13.1419V13.1419Z" fill="#007ABE"/>
<path fill-rule="evenodd" clip-rule="evenodd" d="M4.64738 17.5605L4.63541 17.5682C4.7516 17.6665 4.73592 17.7304 4.87977 17.8254C5.01725 17.9163 5.13183 17.9241 5.32074 17.9155C5.58577 17.8207 5.80166 17.6827 5.80168 17.3266C5.80173 16.9702 5.58817 16.8327 5.32074 16.7374C4.78771 16.7145 4.54983 17.0392 4.64738 17.5605Z" fill="#007ABE"/>
<path fill-rule="evenodd" clip-rule="evenodd" d="M5.22971 15.5312C5.99801 15.4501 5.9884 14.4252 5.24525 14.344C4.43024 14.3379 4.3821 15.5011 5.22971 15.5312Z" fill="#007ABE"/>
<path fill-rule="evenodd" clip-rule="evenodd" d="M7.7198 17.9144C7.82667 17.8739 7.86254 17.8755 7.95968 17.8006C8.05128 17.73 8.05824 17.6722 8.1313 17.619L8.15167 17.5611C8.25616 17.0766 8.08985 16.879 7.7198 16.7387C7.31628 16.7164 7.00272 16.9176 7.00293 17.3267C7.00316 17.7333 7.31464 17.937 7.7198 17.9144Z" fill="#007ABE"/>
<path fill-rule="evenodd" clip-rule="evenodd" d="M7.63606 20.3107C7.99258 20.2669 7.95955 20.1362 8.12683 20.0179C8.15148 19.9294 8.13896 19.9179 8.19991 19.8537C8.17215 19.616 8.17766 19.4667 8.04404 19.3134C7.94925 19.2047 7.78008 19.1277 7.57156 19.1218C6.79943 19.2027 6.80399 20.2953 7.63603 20.3107H7.63606Z" fill="#007ABE"/>
<path fill-rule="evenodd" clip-rule="evenodd" d="M4.63931 12.3009C4.6411 12.547 4.56762 12.6884 4.72336 12.893C4.83273 13.0367 4.98469 13.1334 5.2297 13.1418C6.01525 13.0544 5.97209 12.0158 5.2297 11.951C4.81075 11.964 4.78443 12.1792 4.63931 12.3008V12.3009Z" fill="#007ABE"/>
<path fill-rule="evenodd" clip-rule="evenodd" d="M7.57349 15.5314C8.38265 15.5081 8.39618 14.4377 7.63784 14.3424C6.81483 14.3567 6.79043 15.4415 7.57349 15.5314Z" fill="#007ABE"/>
<path fill-rule="evenodd" clip-rule="evenodd" d="M7.01762 22.2704L7.02458 22.2686C7.10932 22.4978 7.29767 22.7024 7.60265 22.6967C7.93729 22.6905 8.08868 22.4974 8.1765 22.2413C8.24385 21.8255 7.99863 21.5525 7.63378 21.5099C7.18947 21.5188 6.96582 21.8008 7.0176 22.2704H7.01762Z" fill="#007ABE"/>
</svg>
