<svg width="31" height="19" viewBox="0 0 31 19" fill="none" xmlns="http://www.w3.org/2000/svg">
<g clip-path="url(#clip0_0_5046)">
<path fill-rule="evenodd" clip-rule="evenodd" d="M11.818 13.5035L11.8201 16.4024L14.7181 16.3988L14.7135 14.1591L11.818 13.5035ZM10.844 14.5419L3.19369 14.5421L3.20051 15.3268L10.8346 15.3343L10.844 14.5419ZM10.6055 10.8886L10.3458 12.1229L16.2915 13.4977L16.5685 12.2607L10.6055 10.8885V10.8886ZM27.9112 9.69632C27.8295 9.99183 27.6127 10.8584 27.6087 11.1421L28.4037 11.3155C28.4118 11.3148 28.4349 11.3199 28.4407 11.3062C28.4465 11.2924 28.4657 11.3005 28.4771 11.2949C28.5673 11.1122 28.7819 10.1384 28.7797 9.8867L27.9112 9.69632H27.9112ZM26.9275 9.55907C25.8182 9.65478 25.4017 9.56011 24.389 9.32701L17.7079 7.76316C16.8086 7.54596 9.60732 5.81235 8.79095 5.68943L8.01447 9.24552L26.0625 13.4464L26.9275 9.55912L26.9275 9.55907ZM29.8699 5.94479C26.3965 5.17389 22.9941 4.33866 19.4477 3.50789L11.6304 1.67946C11.0951 1.55574 9.48438 1.10133 9.03214 1.10088L8.27471 4.51804C8.56256 4.66337 13.2841 5.71778 14.0057 5.88298L22.6487 7.90581C24.6952 8.38025 26.6167 9.19655 28.3745 7.94184C28.9272 7.5473 29.8953 6.52282 29.8699 5.94479ZM7.8267 5.44735C7.43121 5.36056 7.15202 5.29042 7.20628 4.78322L7.91959 1.61562C8.15372 0.59174 8.13239 -0.12384 8.87263 0.0178184C9.58243 0.153629 10.2638 0.346836 10.9522 0.505991C13.6916 1.13949 16.4762 1.79936 19.2239 2.44168C22.0001 3.0906 24.7316 3.72444 27.4908 4.37668L30.5942 5.10361C30.9683 5.21112 31.0777 5.43183 30.9481 5.89706C30.7603 6.57115 30.4712 7.1653 30.1067 7.63166C29.4746 8.44027 29.2067 8.48305 28.8951 8.77886C28.8253 8.84523 28.8632 8.80513 28.8255 8.865C29.3354 9.0999 29.9578 8.917 29.8546 9.6869C29.7969 10.1179 29.6093 10.7764 29.5107 11.2077C29.4002 11.691 29.3722 12.405 28.8742 12.438C28.5164 12.4618 27.7858 12.1539 27.3579 12.135C27.2262 12.6045 27.1249 13.1537 27.0128 13.6496C26.8889 14.1972 26.8546 14.6675 26.1709 14.5142C25.4024 14.3418 17.8481 12.5039 17.512 12.5088C16.9736 15.1984 17.0434 14.5664 15.7049 14.4042C15.4633 17.4531 16.3787 17.4043 14.1801 17.4043C10.5426 17.4043 10.9522 17.66 10.8294 16.321L3.20713 16.3276C3.06199 18.2661 3.668 18.9904 2.38292 18.9849C1.99707 18.9834 0.439288 19.0549 0.204328 18.8984C-0.0269304 18.7444 -0.0835761 18.3517 0.150556 18.1329C0.41966 17.8815 1.75383 18.0151 2.22623 17.9885L2.21488 11.7815C1.69538 11.7535 0.37899 11.9246 0.110422 11.5904C-0.100526 11.3278 0.026598 10.9464 0.293558 10.8338C0.488579 10.7516 1.11948 10.786 1.36505 10.786C2.22989 10.786 3.09793 10.6105 3.18794 11.2484C3.28156 11.9121 3.10743 12.8961 3.21678 13.5546L10.8411 13.5343L10.8237 13.2668C10.3246 13.0539 9.33812 13.1213 9.27421 12.5416C9.22064 12.0557 9.72241 10.9859 9.61594 10.6627C9.48297 10.5556 8.12362 10.283 7.86991 10.2247C7.00376 10.0258 6.8082 10.0552 7.03732 9.04418C7.16985 8.45931 7.80128 5.82905 7.8267 5.4474V5.44735Z" fill="#007ABE"/>
</g>
<defs>
<clipPath id="clip0_0_5046">
<rect width="31" height="19" fill="white"/>
</clipPath>
</defs>
</svg>
