<svg width="22" height="22" viewBox="0 0 22 22" fill="none" xmlns="http://www.w3.org/2000/svg">
<path fill-rule="evenodd" clip-rule="evenodd" d="M4.71025 2.37773C5.29646 2.30098 6.19889 2.35404 6.81804 2.35404H13.2923C14.2171 2.35404 16.7855 2.24115 17.526 2.42808C18.5996 2.69905 19.4199 3.58063 19.585 4.6806C19.6703 5.24887 19.614 6.20347 19.614 6.81188V13.2862C19.614 14.1759 19.7233 16.8279 19.5402 17.521C19.2574 18.5914 18.3937 19.4162 17.2874 19.5791C16.7383 19.6599 9.43557 19.6078 8.68185 19.6078C7.73848 19.6078 5.21349 19.7222 4.44846 19.5304C3.37718 19.2619 2.54345 18.3773 2.3861 17.2748C2.30454 16.7034 2.3602 15.7599 2.3602 15.15V8.67568C2.3602 7.74198 2.24683 5.18985 2.43558 4.43786C2.7015 3.3784 3.61785 2.52075 4.71025 2.37773ZM1.60453 17.3081C1.75215 18.5274 2.45677 19.4955 3.55317 20.0382C4.64625 20.5793 6.64689 20.4036 7.89709 20.4036C8.7765 20.4036 16.6311 20.4573 17.2926 20.3722C18.4758 20.2199 19.5426 19.5133 20.0468 18.418C20.5884 17.2415 20.4098 15.3855 20.4098 14.0709C20.4098 13.1982 20.4611 5.32712 20.3809 4.67368C20.2328 3.4658 19.5102 2.4601 18.423 1.92246C17.3205 1.3772 15.3391 1.55825 14.0771 1.55825C13.21 1.55825 5.32531 1.50984 4.67901 1.584C3.49973 1.71931 2.43785 2.47451 1.92856 3.54521C1.38187 4.69457 1.56443 6.59724 1.56443 7.89091V14.9538C1.56443 15.6969 1.51685 16.5839 1.60453 17.3081Z" fill="#007ABE"/>
<path fill-rule="evenodd" clip-rule="evenodd" d="M10.582 16.4615C7.69765 16.1718 5.51321 13.9237 5.49875 10.9811C5.48471 8.12296 7.74149 5.70485 10.5857 5.49653C10.5978 5.94779 10.5893 6.40861 10.5892 6.86091C10.5891 7.18928 10.488 7.84066 10.9871 7.84075C11.6102 7.84085 11.3381 6.50438 11.3922 5.49134C12.7425 5.67505 14.0624 6.1582 14.9603 7.2068C15.9472 8.35933 16.4676 9.37588 16.4756 10.9808C16.4898 13.8691 14.2396 16.2232 11.3922 16.4615C11.367 16.0243 11.3848 15.543 11.3849 15.1009C11.385 14.7726 11.4862 14.1208 10.9871 14.1207C10.361 14.1206 10.6404 15.448 10.582 16.4615ZM10.3972 4.72526C6.91661 5.06718 4.41479 8.10334 4.73631 11.5879C5.05667 15.06 8.14679 17.5493 11.6001 17.2278C15.0769 16.9042 17.5466 13.8233 17.2324 10.3689C16.9203 6.93766 13.8292 4.38811 10.3972 4.72526Z" fill="#007ABE"/>
<path fill-rule="evenodd" clip-rule="evenodd" d="M21.2004 14.3161C21.2966 14.6945 21.8562 14.7198 21.9618 14.3022C22.0278 14.0412 21.9947 5.13981 21.9625 5.0099C21.8628 4.60784 21.3042 4.60069 21.2005 5.01102C21.1339 5.27453 21.1706 14.1986 21.2004 14.3161Z" fill="#007ABE"/>
<path fill-rule="evenodd" clip-rule="evenodd" d="M21.9317 17.5043C21.9617 17.1837 22.1135 16.5809 21.6622 16.4844C21.1429 16.3732 21.1867 17.0136 21.1575 17.3291C21.0344 18.6599 20.1437 20.0389 18.9754 20.6349C17.6992 21.2859 17.4614 21.0266 16.7885 21.1948C16.3753 21.2981 16.3899 21.8589 16.7873 21.9571C17.0203 22.0147 17.7564 21.8948 18.0168 21.8392C18.7152 21.6899 19.3258 21.395 19.8968 20.9723C20.9844 20.1672 21.802 18.892 21.9317 17.5043Z" fill="#007ABE"/>
<path fill-rule="evenodd" clip-rule="evenodd" d="M5.43907 0.58286C5.73238 0.0841903 5.11646 -0.0242415 4.75898 0.00417684C4.29522 0.0410345 4.05244 0.0987888 3.61282 0.220707C1.54976 0.792841 0.142292 2.727 0.00200776 4.84899C-0.0262716 5.27672 0.247067 5.72492 0.639794 5.39347C0.954773 5.12764 0.583041 3.77396 1.74354 2.37284C3.35001 0.433247 5.18317 1.01798 5.43907 0.58286Z" fill="#007ABE"/>
<path fill-rule="evenodd" clip-rule="evenodd" d="M14.1026 11.177C13.7598 12.2319 12.3029 11.6895 12.5863 10.7641C12.9019 9.73405 14.3927 10.2847 14.1026 11.177ZM13.0292 9.45136C10.924 9.94447 11.6957 12.9528 13.6892 12.5116C14.5054 12.331 15.0779 11.4881 14.8757 10.6261C14.6863 9.81907 13.8507 9.25895 13.0292 9.45136Z" fill="#007ABE"/>
<path fill-rule="evenodd" clip-rule="evenodd" d="M8.45459 10.2106C9.42904 9.98027 9.8189 11.5175 8.80993 11.7408C7.80109 11.9642 7.47406 10.4424 8.45459 10.2106ZM8.36598 9.44772C6.31441 9.8157 6.89298 12.9287 8.93891 12.515C9.77042 12.3468 10.3537 11.5374 10.1757 10.6648C10.007 9.83786 9.21232 9.29591 8.36598 9.44772Z" fill="#007ABE"/>
<path fill-rule="evenodd" clip-rule="evenodd" d="M4.5796 4.356C4.99535 4.1533 5.33476 4.84091 4.86156 5.05372C4.46156 5.23362 4.03729 4.62039 4.5796 4.356ZM4.46259 3.54807C2.95606 3.87196 3.40138 6.19113 4.97418 5.84813C6.47362 5.52114 5.9894 3.21982 4.46259 3.54807Z" fill="#007ABE"/>
<path fill-rule="evenodd" clip-rule="evenodd" d="M4.57932 16.9122C4.996 16.7083 5.32535 17.4004 4.86107 17.6086C4.46083 17.7881 4.03228 17.18 4.57932 16.9122ZM4.44567 16.1219C2.895 16.4773 3.47823 18.7926 5.0162 18.402C6.45163 18.0374 5.99346 15.7673 4.44567 16.1219Z" fill="#007ABE"/>
<path fill-rule="evenodd" clip-rule="evenodd" d="M17.1356 16.9121C17.5514 16.7094 17.8908 17.397 17.4176 17.6099C17.0176 17.7898 16.5933 17.1765 17.1356 16.9121ZM17.0325 16.1181C15.4889 16.4238 15.965 18.7464 17.5303 18.4043C18.9886 18.0856 18.5924 15.8092 17.0325 16.1181Z" fill="#007ABE"/>
<path fill-rule="evenodd" clip-rule="evenodd" d="M16.8885 4.80089C16.7718 4.30508 17.532 4.12031 17.6387 4.62226C17.7441 5.11798 16.9962 5.25889 16.8885 4.80089ZM17.0322 3.56197C15.5027 3.86414 15.9755 6.18745 17.5336 5.85476C18.9736 5.54726 18.6101 3.25023 17.0322 3.56197Z" fill="#007ABE"/>
<path fill-rule="evenodd" clip-rule="evenodd" d="M4.72061 21.6733C4.8341 22.1263 5.8194 21.9731 6.1804 21.9731C6.53287 21.9731 7.58312 22.1365 7.44554 21.4941C7.34352 21.0176 6.35387 21.1773 5.98421 21.1773C5.63283 21.1773 4.55599 21.0162 4.72061 21.6733Z" fill="#007ABE"/>
</svg>
