<svg width="22" height="23" viewBox="0 0 22 23" fill="none" xmlns="http://www.w3.org/2000/svg">
<path fill-rule="evenodd" clip-rule="evenodd" d="M9.90708 7.68164C9.88063 7.73394 9.70008 7.85758 9.63355 7.90825C9.52223 7.99303 9.46644 8.03814 9.35731 8.12104L8.2514 9.01963C8.1592 9.10086 7.80098 9.43938 7.72021 9.45695C7.65418 9.57445 7.59114 9.60417 7.49457 9.68069L6.63051 10.5033C6.56069 10.5787 6.49114 10.6282 6.41586 10.704L5.57824 11.5527C5.38679 11.7119 5.32709 11.8464 5.17581 11.9817C5.02866 12.1132 4.71584 12.4924 4.67353 12.5304C4.50914 12.678 4.49861 12.7627 4.36219 12.8394C4.34547 12.9163 4.33829 12.9069 4.27868 12.9662L3.22341 14.2341C3.1772 14.2951 2.90881 14.6608 2.86028 14.6771C2.79911 14.8022 2.67706 14.95 2.58703 15.0633L2.04712 15.7939C2.01363 15.8408 2.00584 15.8583 1.97889 15.8975C1.95225 15.9361 1.9406 15.9498 1.91776 15.9834C1.86805 16.0564 1.83955 16.0904 1.78688 16.149C1.7178 16.2774 1.63629 16.3746 1.5509 16.4964C1.25509 16.9183 0.647945 17.8559 0.402835 18.282C0.288333 18.481 0.179609 18.6304 0.0792512 18.8394C0.047849 18.9048 0.0284528 18.9782 0 19.0313V19.3443C0.181144 19.6846 -0.0616861 19.5936 0.608243 20.4482C0.730793 20.6046 0.878638 20.7254 1.02613 20.8854C1.15953 21.0302 1.44206 21.195 1.48222 21.2922C1.59173 21.3067 1.73306 21.4468 1.83735 21.517C1.95585 21.5968 2.07377 21.6613 2.1948 21.7414C2.4145 21.8094 2.85925 22.1516 3.60913 22.2864C3.88053 22.3352 4.26426 22.3709 4.52518 22.3048C4.93491 22.2009 5.15123 21.6224 5.4097 21.211L6.59513 19.4165L7.15233 18.6512C7.23395 18.5484 7.65741 17.9733 7.72867 17.9454C7.76576 17.8423 7.93306 17.6554 8.00331 17.571L8.73475 16.7139C8.79983 16.6391 8.82856 16.6454 8.89234 16.5536L9.64962 15.7215C9.70648 15.6593 9.75556 15.6315 9.81724 15.5722C9.92479 15.4688 10.0111 15.3685 10.1181 15.2617L12.4219 13.1412C12.5325 13.0535 12.6584 12.9209 12.7843 12.8678C12.7998 12.7763 14.0509 11.8812 14.1621 11.8016C14.2381 11.7471 14.5526 11.5018 14.641 11.4857C14.6591 11.4578 14.6745 11.4334 14.6953 11.3972C14.0806 11.4017 13.5588 11.0507 13.2135 10.7767C12.9064 10.5329 12.4275 10.0548 12.1872 9.72549C11.743 9.11682 11.3045 8.38433 11.2124 7.56617C11.1567 7.07157 11.256 7.02137 11.3422 6.70386C11.2007 6.76491 11.0919 6.86963 10.9692 6.94698C10.7711 7.07185 10.0172 7.64378 9.90708 7.68164Z" fill="#007ABE"/>
<path fill-rule="evenodd" clip-rule="evenodd" d="M13.9031 4.04688C13.77 4.44 13.3185 5.46391 13.1253 5.87438C12.9732 6.19772 12.5589 7.09316 12.3686 7.39098C12.2426 7.58812 12.3035 7.54102 12.2221 7.56072C12.167 7.39247 12.206 6.98835 12.2764 6.83627C12.3824 6.60727 12.647 6.76318 12.6839 6.43031C12.5333 6.36125 12.3113 6.29653 12.0999 6.2937C11.3453 6.28359 11.3968 7.21121 11.5151 7.73501C11.7565 8.804 12.6997 10.0883 13.6061 10.7503C14.6942 11.545 15.7181 11.383 15.5019 10.0527C15.1169 9.98727 15.3451 10.393 14.9291 10.5178C14.7159 10.5819 14.2036 10.4145 14.1132 10.277C14.2949 10.0049 17.0592 9.10436 17.5999 8.94955L20.0468 8.27475C20.2251 8.22974 20.7349 8.06714 20.8937 8.08441C20.9149 8.06741 20.9098 8.06885 20.9474 8.05207C20.9747 8.03989 20.9971 8.03396 21.0237 8.02692C21.1751 7.98679 21.2778 7.96971 21.4132 7.89029L21.3781 7.61387C21.5049 7.53126 21.8413 7.53555 21.9999 7.51357V7.47291L21.8833 7.13068L21.3123 7.15843L21.3421 6.87719L21.2208 6.88863L20.8999 6.95994C20.681 7.01343 20.3967 7.06471 20.1644 7.12136C19.992 7.1634 19.6082 7.28652 19.4492 7.28502C19.3736 7.34836 18.857 7.47155 18.726 7.50077C18.6295 7.53336 18.5059 7.57823 18.3981 7.57716C18.3184 7.65064 18.1073 7.68794 17.9911 7.70818C17.9365 7.74387 17.3311 7.92146 17.2542 7.92056C17.2054 7.96856 17.267 7.93062 17.1732 7.96957C17.1463 7.98076 17.1062 7.99126 17.0806 7.99975C17.012 8.02243 16.9609 8.0407 16.8883 8.05792L16.1395 8.28953L15.791 8.42661C15.3572 8.5733 14.8932 8.74382 14.4681 8.9043L13.151 9.42509C13.0829 9.36715 12.923 9.2009 12.9118 9.07919C13.0482 8.95885 14.1764 8.47565 14.4997 8.32477C14.6138 8.2715 14.9241 8.09432 15.0321 8.0867C15.0363 8.08163 15.0435 8.06796 15.0459 8.0725L15.7664 7.70998C15.7949 7.66538 16.418 7.35517 16.4692 7.35108C16.5094 7.30553 16.4868 7.32401 16.5428 7.28878C16.5769 7.2673 16.6077 7.25722 16.6424 7.24051C16.7871 7.17069 17.0653 6.98232 17.1994 6.94596C17.2746 6.89729 18.1985 6.3407 18.3177 6.32912C18.3656 6.25365 18.9331 5.92476 19.042 5.87898C19.0425 5.87819 20.0465 5.19497 20.141 5.17781C20.1962 5.10838 20.1644 5.12661 20.2573 5.09898C20.2902 5.0394 20.383 4.99261 20.4306 4.95361C20.4064 4.85481 20.3962 4.87287 20.3202 4.81876C20.2634 4.77832 20.2355 4.74573 20.1924 4.70984C20.398 4.6173 20.6054 4.54176 20.6407 4.38702L20.5635 4.30532C20.5379 4.27292 20.533 4.2634 20.512 4.23593C20.4617 4.17017 20.4487 4.15951 20.4152 4.08829C20.2428 4.15469 20.0919 4.33751 19.8872 4.36141C19.8361 4.30648 19.8084 4.21943 19.751 4.1685C19.5213 4.2101 18.8995 4.67636 18.7034 4.76299C18.5434 4.85813 17.7464 5.38015 17.6255 5.40279C17.5814 5.46558 17.532 5.48313 17.4494 5.53174C17.3872 5.56841 17.3278 5.60305 17.2656 5.64098C17.1674 5.70084 16.9728 5.8282 16.8737 5.84829C16.8372 5.90741 15.8855 6.44206 15.7922 6.4539C15.7289 6.53964 15.6987 6.52865 15.5906 6.58271C15.4332 6.6614 15.1491 6.8462 14.9886 6.85052C15.0026 6.79436 15.1631 6.64195 15.2656 6.52526C15.3139 6.47023 15.3538 6.42001 15.405 6.37082L15.8455 5.90667C15.8964 5.85149 15.9483 5.8237 16.0001 5.76896C16.0506 5.71567 16.084 5.6633 16.1315 5.60613C16.1906 5.53495 16.2269 5.51801 16.292 5.44975C16.3507 5.38823 16.3706 5.34512 16.4234 5.2869C16.4846 5.21945 16.5096 5.21466 16.5679 5.13843L17.271 4.36565C17.289 4.27053 17.2836 4.31539 17.356 4.24073L18.1473 3.27131C18.2199 3.18016 18.6135 2.69045 18.6546 2.59491L18.4093 2.50364C18.4385 2.34071 18.7167 2.10447 18.7394 1.92642C18.6644 1.84187 18.4993 1.72607 18.3535 1.75504L17.9609 2.30024L17.7221 2.07158C17.6765 2.11077 17.6691 2.1205 17.6091 2.15253C17.5903 2.22517 16.2484 3.84446 15.9995 4.10463L15.1663 5.05657C15.0075 5.20238 14.4858 5.86572 14.2974 5.97722C14.3252 5.82644 14.5862 5.24957 14.6619 5.09474L14.823 4.75136C14.8223 4.63827 15.1412 3.91781 15.2049 3.75122C15.3387 3.40165 15.46 3.09143 15.5859 2.73732C15.8241 2.0674 16.0719 1.35612 16.2676 0.641634L16.1332 0.62909C15.799 0.620878 16.0298 0.526123 16.0701 0.0591897C15.9733 0.00745929 15.7986 -0.0147218 15.6664 0.0103101C15.609 0.160666 15.5841 0.385087 15.4915 0.517439C15.3268 0.529511 15.366 0.465873 15.2288 0.417563C15.0982 0.56167 14.6184 2.06807 14.5574 2.24736L14.0649 3.61335C14.0167 3.74125 13.932 3.92057 13.9031 4.04688Z" fill="#007ABE"/>
</svg>
