<svg width="26" height="22" viewBox="0 0 26 22" fill="none" xmlns="http://www.w3.org/2000/svg">
<path fill-rule="evenodd" clip-rule="evenodd" d="M11.5593 6.04376C11.8404 6.40975 12.0989 7.79659 12.1448 8.3808C12.1932 8.99772 12.183 10.4505 11.9256 10.967C11.7726 11.2741 11.4302 11.5507 11.023 11.222C10.1651 10.5299 11.0524 8.03342 11.0205 7.57018L10.8688 7.55298C10.4427 7.89914 10.0304 8.18385 9.58635 8.62597C9.19952 9.01111 8.67344 9.85999 8.55302 9.93391C8.52988 10.1454 8.32306 10.4776 8.22739 10.7216C8.12202 10.9903 8.05895 11.2441 7.95812 11.5298C7.94018 11.6655 7.87472 12.1287 7.80273 12.2435V13.4046L7.8643 13.5601C7.89239 13.8705 7.98392 14.2053 8.08326 14.4622C8.16947 14.6852 8.37998 15.0931 8.40357 15.2508C8.76861 15.5073 8.61916 15.9632 10.2181 17.097C10.8692 17.4509 11.4303 17.7326 12.3277 17.8414C13.4089 17.9724 13.8842 17.7899 14.8157 17.5539C15.1076 17.4087 15.5666 17.2035 15.8187 17.039C16.2448 16.7608 16.699 16.3516 17.0125 15.949C17.5598 15.2461 17.4268 15.375 17.8544 14.5153C18.096 13.5617 18.2942 13.1114 18.1301 11.988C18.071 11.5834 17.9588 11.1994 17.8264 10.868C17.6621 10.4569 17.5321 10.2547 17.3633 9.90826L16.253 8.73175C16.0945 8.62233 16.0613 8.54829 15.8152 8.61076C15.7547 8.88877 15.8645 8.91512 15.9502 9.17565C16.0415 9.33214 16.0995 9.57862 16.1388 9.80353C16.2011 10.2395 16.2468 10.7556 16.1584 11.1892C16.0755 11.5953 15.7254 11.9383 15.4466 11.5176C15.2709 11.2524 15.2757 10.6444 15.2126 10.2808C15.1372 9.84514 14.9926 9.48717 14.9183 9.11152C14.7935 8.8888 14.729 8.60384 14.5949 8.36018C14.4881 8.16606 14.3393 7.88318 14.2541 7.68801C13.7056 6.973 13.8674 7.01756 13.0987 6.29858C12.8411 6.05767 12.7297 5.94432 12.3969 5.73207C12.261 5.6454 12.122 5.54932 11.9889 5.47794C11.7543 5.35211 11.5479 5.34737 11.526 5.64406C11.5198 5.72749 11.5287 5.71266 11.5353 5.77679C11.5493 5.91119 11.5691 5.86717 11.5592 6.04366L11.5593 6.04376Z" fill="#007ABE"/>
<path fill-rule="evenodd" clip-rule="evenodd" d="M21.5712 13.2048C21.5343 13.4154 21.5143 13.6236 21.408 13.7665C21.4385 14.1181 21.0318 14.9501 20.9141 15.2861C20.7396 15.6466 20.266 16.6188 19.9726 16.7871C19.935 16.9452 19.804 17.0945 19.6716 17.2393C19.5288 17.3954 19.4563 17.4775 19.3383 17.6187C19.1128 17.8882 18.8835 18.0627 18.5948 18.2979L18.473 18.4246C18.4261 18.4639 18.3871 18.4909 18.3291 18.5361C17.8344 18.9213 16.8677 19.5189 16.2978 19.6994C14.5232 20.3208 13.7577 20.4182 11.6783 20.2549C10.2739 20.0094 9.40997 19.6362 8.38553 19.0348C6.60629 17.9904 5.07515 15.9144 4.57449 13.9115C4.35917 13.0501 4.05804 10.5603 4.48668 9.95269C4.45958 9.6621 4.80007 8.53174 4.94048 8.38198C5.02365 8.04255 5.49643 7.0985 5.69954 6.92105C5.94404 6.41983 6.66491 5.61996 7.02501 5.30278C7.28379 5.07489 7.52773 4.84718 7.82306 4.63008C8.08778 4.43553 8.4278 4.26275 8.68318 4.06041C8.91261 3.90988 9.82926 3.47385 10.1551 3.42117C10.2951 3.30294 10.6833 3.22291 10.8981 3.19596L11.4752 3.05808L12.2367 2.9562L13.9297 3.00121C13.9363 2.99 13.9546 3.01115 13.9659 3.01812L14.2165 3.00732C14.4066 3.03192 14.4924 3.02361 14.6259 3.11966C14.9277 3.088 15.2899 3.2168 15.5366 3.31963C15.9497 3.38591 16.9113 3.76887 17.0881 3.99384C17.3523 4.01729 17.9969 4.49597 18.2278 4.67497C18.9849 5.26175 20.5946 6.874 20.6862 7.64268C20.9078 7.80231 21.175 8.56616 21.2666 8.88982C21.3513 9.14201 21.5314 9.69736 21.5096 9.95264C21.5431 10.0045 21.5157 9.93451 21.561 10.0663C21.5741 10.1043 21.5861 10.1534 21.5941 10.1925C21.6093 10.2675 21.6144 10.3347 21.6219 10.4127C21.6922 11.5638 21.7386 12.0326 21.5712 13.2048L21.5712 13.2048ZM10.1139 2.25634C9.92038 2.36495 9.65981 2.41673 9.41581 2.5154C9.18482 2.6088 8.98047 2.70988 8.73418 2.78426C8.60331 2.88985 8.12584 3.12359 7.94549 3.22751C7.69505 3.37176 7.45367 3.59776 7.20452 3.70903C7.11465 3.83431 6.26615 4.46111 5.94526 4.82988L4.89246 6.11037C4.5983 6.62749 4.22491 7.10547 4.00961 7.72226L3.75328 8.38219C3.6055 8.80536 3.39277 9.44759 3.34678 9.9559C3.33372 10.0306 3.31961 10.1446 3.30412 10.2137L3.25161 10.3787C3.24926 10.3717 3.24169 10.4044 3.23446 10.416C3.28119 10.7054 3.19203 11.4041 3.19438 11.7835C3.20645 13.7209 3.84433 14.8858 3.8353 15.2508C3.97547 15.3593 4.13999 15.8009 4.22723 15.9822C4.28874 16.1101 4.34374 16.2255 4.41235 16.3572C4.48304 16.493 4.53751 16.5333 4.58381 16.6909C4.82589 17.0065 5.03422 17.3764 5.29912 17.7041C5.42639 17.8614 5.55926 18.017 5.68486 18.1848C5.82312 18.3695 5.97197 18.442 6.12254 18.6086C6.43241 18.9514 6.65777 19.1256 7.03548 19.4208C7.16495 19.522 7.99196 20.0697 8.02346 20.1197C8.39607 20.2433 8.74376 20.4833 9.11567 20.6394C9.50961 20.8046 9.86564 20.9273 10.2794 21.0483C11.2064 21.3191 12.0832 21.4188 13.0996 21.4348L14.264 21.3948C14.2753 21.3877 14.2936 21.3666 14.3001 21.3776L14.4653 21.3251C14.5378 21.3101 14.6512 21.2997 14.7238 21.2902C15.0041 21.2251 15.303 21.1778 15.5624 21.1016C15.7821 21.037 16.1786 20.8927 16.364 20.8955C16.4981 20.7221 16.8522 20.6491 17.059 20.5795C17.1817 20.4541 17.4859 20.3479 17.662 20.2588C17.8602 20.1585 18.0365 20.0407 18.2404 19.9207C18.6227 19.6959 18.9967 19.3999 19.331 19.1276L19.5363 18.9304C20.0393 18.5387 20.7342 17.6179 20.8665 17.5165C20.9764 17.2908 21.1891 17.0169 21.344 16.7765C21.5171 16.5079 21.6136 16.2644 21.7752 15.9968C21.8727 15.7526 21.9898 15.5481 22.092 15.2942C22.1778 15.0813 22.2731 14.7213 22.3583 14.5547L22.5986 13.6109C22.8232 12.3267 22.8758 11.2505 22.6494 9.9559C22.6269 9.67192 22.4834 9.37087 22.5079 9.09614C22.3578 8.92398 22.1077 8.06784 22.0479 7.82404C21.9653 7.72418 21.715 7.11395 21.6061 6.93209C21.5115 6.77426 21.4616 6.66574 21.3643 6.51342C21.2773 6.37724 21.1839 6.26514 21.1037 6.11035L20.2708 5.07034C19.7746 4.45656 18.7077 3.69245 18.6439 3.59889C18.4197 3.50211 18.0503 3.23505 17.7868 3.08371C17.4686 2.90092 17.2359 2.79964 16.9069 2.65088L15.501 2.11295C15.254 2.13671 13.9781 1.79106 12.7431 1.83424C11.2125 1.88776 11.2518 2.05376 10.1139 2.25631L10.1139 2.25634Z" fill="#007ABE"/>
<path fill-rule="evenodd" clip-rule="evenodd" d="M17.7157 0.767538L17.8207 0.973279C18.0653 1.09199 19.234 1.65158 19.3434 1.7828C19.6847 1.93359 20.1838 2.29758 20.4548 2.50104C21.792 3.50517 22.1341 4.01802 23.1165 5.32378C23.4163 5.77194 23.7066 6.28589 23.9597 6.8085C24.0796 7.17325 24.5254 7.97353 24.4961 8.3469C24.8099 8.6303 24.9972 10.9822 25.0765 11.2758C25.1748 11.4874 25.1609 11.4391 25.3846 11.5463C25.7414 11.5537 25.8968 11.5185 25.9665 11.2018C26.1415 10.4059 25.5852 8.20312 25.3333 7.4204C25.1785 6.93929 24.9054 6.39033 24.8292 6.14857C24.6995 5.87348 24.572 5.63169 24.4147 5.34373C24.2618 5.06359 24.0855 4.8362 23.9629 4.57488C23.7487 4.34787 23.4707 3.93093 23.2622 3.65126C23.0055 3.30695 22.7562 3.08954 22.521 2.8204L21.9084 2.21477C21.8259 2.12336 21.7903 2.10714 21.6839 2.02948C21.5176 1.90811 21.4118 1.79569 21.2407 1.66193C21.1274 1.57337 20.9034 1.45039 20.8375 1.29781C20.5863 1.23431 19.4944 0.371866 18.5311 0.0507144C18.0268 -0.0674028 17.6222 0.242849 17.7157 0.767562L17.7157 0.767538Z" fill="#007ABE"/>
<path fill-rule="evenodd" clip-rule="evenodd" d="M6.44957 0.502747C6.4089 0.567303 5.79359 0.920648 5.67145 1.00164C5.38262 1.19322 5.16305 1.33879 4.88818 1.54563C4.61997 1.79384 4.30126 1.99355 4.02047 2.2993C3.87874 2.45363 3.75111 2.53141 3.59924 2.6896C3.43262 2.8631 3.41846 2.98726 3.16256 3.08075C3.12586 3.19156 2.48207 3.9761 2.31449 4.19803C2.04549 4.55433 1.77627 5.00284 1.53773 5.40374C1.48001 5.60011 1.26698 5.9221 1.17368 6.15445C1.08769 6.36858 0.921996 6.74394 0.822731 6.92874C0.737958 7.19099 0.654454 7.42387 0.567525 7.68339C0.482752 7.93649 0.433526 8.17871 0.343723 8.43322C0.239739 9.20171 0.0658804 9.86447 0.0198887 10.6666C-0.000208703 11.0566 -0.0345827 11.1248 0.0923017 11.439L0.214635 11.513C0.593779 11.5771 0.807209 11.5539 0.914714 11.2717C0.990457 11.0729 1.01872 10.6418 1.02366 10.4128C1.049 10.2104 1.03762 10.0414 1.13603 9.90191C1.09329 9.63387 1.18427 9.24241 1.28523 8.99113C1.37662 8.3158 1.89539 6.99886 2.17862 6.49649C2.95581 5.11808 3.50433 4.38246 4.50873 3.34597C5.10913 2.72637 6.41151 1.90758 7.16005 1.48153C7.37707 1.40576 7.55522 1.30022 7.77799 1.1868C8.05016 1.04823 8.18394 1.02621 8.28297 0.767606C8.32678 0.306348 8.10405 0.302323 7.99422 0.0287448L7.76922 0C7.30258 0.0113542 6.8607 0.36652 6.4496 0.502795L6.44957 0.502747Z" fill="#007ABE"/>
</svg>
