<svg width="26" height="20" viewBox="0 0 26 20" fill="none" xmlns="http://www.w3.org/2000/svg">
<path fill-rule="evenodd" clip-rule="evenodd" d="M13.1901 18.684C13.1811 18.6888 13.1694 18.6931 13.1615 18.6955L12.7578 18.7052C12.6103 18.6821 12.4897 18.6648 12.4022 18.5756C12.0227 18.5592 11.466 17.906 11.4439 17.1633L14.5622 17.1618C14.5063 18.2161 13.5875 18.7865 13.1901 18.684V18.684ZM6.71534 16.1275C6.75396 16.0045 7.05291 15.5511 7.16355 15.4044C7.22526 15.3226 7.17099 15.3779 7.23549 15.3283C7.24734 15.2308 7.4869 14.8108 7.55196 14.6838C7.60238 14.5853 7.82443 14.0798 7.85451 14.0476L8.096 13.3423C8.13858 13.2508 8.107 13.3115 8.13894 13.2705C8.12481 13.0805 8.23671 12.7671 8.27054 12.5463C8.44879 11.3827 8.141 7.61646 8.44107 6.65694C8.46491 6.50105 8.56693 6.04263 8.67672 5.90837C8.67695 5.70121 8.97172 5.23667 9.06994 5.07653C9.21416 4.84136 9.44082 4.57062 9.60652 4.40323C9.88836 4.11846 10.5462 3.61055 11.089 3.45915L11.7714 3.25007C12.1585 3.14718 12.6792 3.11741 13.1041 3.11926C13.437 3.12471 14.2974 3.15274 14.5068 3.34345C14.8182 3.32724 15.6277 3.78129 15.7966 3.91827C16.1426 4.11686 16.9072 4.86998 17.0381 5.29418C17.2134 5.47069 17.4921 6.30023 17.5466 6.63073L17.6529 7.29572L17.6815 7.96796V8.64021V9.31242V9.98466V10.6569V11.3291L17.6822 12.0014L17.7412 12.707C17.8047 12.9299 17.8365 13.1641 17.9075 13.3831C17.9799 13.6061 18.0572 13.7963 18.1272 14.0135L18.4439 14.7237C18.4992 14.7761 18.7847 15.3194 18.8519 15.4298C18.9367 15.5691 19.2574 16.0052 19.2838 16.122L6.71534 16.1275L6.71534 16.1275ZM12.5143 1.46584C12.5115 1.34397 12.5058 1.31171 12.5953 1.26096C12.637 1.16476 12.6365 1.1565 12.7551 1.09749C12.966 0.992588 13.2136 1.0359 13.3656 1.18583C13.5765 1.39393 13.5239 1.79104 13.5239 2.13851C13.3628 2.12654 13.1042 2.08022 12.9711 2.08398C12.8061 2.08865 12.6712 2.1432 12.4795 2.11152C12.4795 1.94296 12.4219 1.57654 12.5143 1.46584H12.5143ZM11.4684 1.24416L11.4376 2.27067C11.2475 2.37034 10.7847 2.47696 10.5375 2.57816C10.2317 2.70326 10.0226 2.82783 9.75522 2.97229C9.15729 3.36249 8.66335 3.80899 8.2678 4.40911C8.2351 4.45871 8.22728 4.47534 8.18852 4.52966L8.08453 4.64996C8.07064 4.75383 7.85746 5.126 7.78798 5.27365C7.68268 5.4974 7.6281 5.72178 7.54159 5.95127L7.34856 6.66724C7.38634 6.8709 7.29492 7.25486 7.28429 7.49695C7.25349 8.19833 7.27928 9.38031 7.27723 10.1191C7.27547 10.7604 7.35698 12.8117 6.98385 13.3124C6.89013 13.7238 6.55862 14.3684 6.35928 14.6989C6.25733 14.9204 5.66062 15.7982 5.4876 16.0487C5.34652 16.253 5.10447 16.5089 5.23819 16.8425C5.3567 17.1382 5.5979 17.1664 5.97819 17.1653C7.45112 17.1614 8.92378 17.1651 10.3967 17.1651C10.4029 17.6205 10.5001 17.9848 10.7012 18.3699C10.7701 18.5018 10.8517 18.5943 10.8705 18.6915C11.0013 18.787 10.9914 18.8161 11.0876 18.9252L11.5615 19.3246C11.696 19.4154 11.7425 19.407 11.8274 19.5099L12.3984 19.7C12.6676 19.7363 12.8412 19.7665 13.1297 19.7615L13.7718 19.6496C14.2696 19.427 14.4448 19.3601 14.7988 19.0401C15.0771 18.7885 15.2443 18.4795 15.4486 18.0464C15.539 17.7287 15.5912 17.5381 15.602 17.1643L19.1542 17.1618C19.5177 17.1618 19.933 17.1777 20.2909 17.1577C20.6385 17.1383 20.8155 16.905 20.7916 16.5394C20.7569 16.4248 20.7354 16.382 20.6772 16.2928C20.6491 16.2498 20.62 16.2168 20.5954 16.1729C20.5393 16.0727 20.5669 16.1421 20.5508 16.0574C20.4206 15.9777 19.9966 15.2695 19.8704 15.0831C19.7071 14.842 19.3742 14.2932 19.2878 13.9952C19.1489 13.8672 18.8627 12.9521 18.8091 12.6867C18.691 12.1013 18.7245 11.5651 18.7245 10.9594L18.725 7.33805L18.6025 6.6239C18.5385 6.41013 18.5035 6.19394 18.4319 5.96769C18.3782 5.79807 18.2232 5.49908 18.2239 5.35384L18.0107 4.97726C17.9464 4.86006 17.8405 4.71334 17.8228 4.59694C17.7852 4.57139 17.807 4.59096 17.7667 4.54976L17.5083 4.20271C17.385 4.04539 17.3132 3.98045 17.1911 3.84769L16.489 3.18737C16.4079 3.16215 15.7684 2.75839 15.4376 2.61039C15.3376 2.56567 15.1674 2.5167 15.0883 2.44363C14.9471 2.44136 14.741 2.37782 14.6164 2.31123C14.5272 2.25072 14.5553 2.23941 14.5557 2.08833C14.5559 1.9991 14.5599 1.90713 14.5605 1.81703C14.5618 1.62789 14.5686 1.48273 14.5296 1.2958C14.5349 1.07991 14.3742 0.795964 14.2705 0.65103C14.2082 0.563984 14.1212 0.483666 14.0456 0.40535C13.9788 0.33618 13.8466 0.278695 13.8098 0.207204C13.5359 0.114853 13.3886 0.00537625 13.0375 0.000187765C12.7519 -0.00401244 12.4925 0.0624593 12.2724 0.179023C11.8474 0.404013 11.6383 0.714333 11.4684 1.24415L11.4684 1.24416Z" fill="#007ABE"/>
<path fill-rule="evenodd" clip-rule="evenodd" d="M1.35574 2.5954C1.27625 2.81257 1.13284 3.06379 1.03191 3.28991C0.956028 3.4599 0.833151 3.88576 0.721374 3.99533C0.723883 4.13698 0.606055 4.45676 0.540053 4.60162L0.214409 5.95126L0.104928 6.61208L0.0362516 7.3095L0.000750901 7.96797L0 8.64021L0.0338826 9.29471L0.102936 10.0181L0.209109 10.6431L0.349372 11.3261C0.401529 11.5193 0.723307 12.5541 0.721756 12.645C0.846556 12.771 0.940763 13.142 1.02232 13.3274C1.12199 13.5538 1.28365 13.8384 1.3478 14.0515C1.40219 14.0874 1.6776 14.6772 1.81084 14.8177L2.68245 14.2971L2.59951 14.0791C2.41103 13.9458 1.95096 12.9341 1.87628 12.6402C1.77445 12.5326 1.47877 11.551 1.43114 11.3279L1.26936 10.6353L1.15375 9.98467L1.07675 9.279C1.06208 9.14305 1.03592 8.97245 1.07684 8.8607L1.05652 8.80312C1.00866 8.5855 1.01701 7.71436 1.08221 7.60415L1.07966 7.32919L1.15779 6.62351L1.27499 5.9847L1.43454 5.26527C1.58716 4.82532 1.7007 4.31412 1.89594 3.92991C1.97935 3.68728 2.10715 3.42475 2.21593 3.1977C2.28024 3.06347 2.48705 2.64373 2.59913 2.55985L2.68409 2.34334L1.81084 1.82278C1.64392 1.9974 1.49383 2.39728 1.35575 2.5954L1.35574 2.5954Z" fill="#007ABE"/>
<path fill-rule="evenodd" clip-rule="evenodd" d="M23.4393 2.58415C23.5082 2.68262 23.7345 3.05735 23.7465 3.19344C23.8256 3.26434 23.8802 3.40634 23.9369 3.52303C23.9927 3.6379 24.0357 3.74382 24.0896 3.87453C24.182 4.09905 24.3113 4.40454 24.3622 4.64025C24.4251 4.7287 24.5377 5.11852 24.5252 5.23152C24.597 5.32525 24.6137 5.45406 24.6429 5.57286L24.8399 6.63294C24.8839 6.82018 24.9207 7.05249 24.8906 7.23583C24.9837 7.3828 24.9522 7.75869 24.9584 7.96234L24.9598 8.60676C24.9552 8.82576 24.9934 9.24592 24.8904 9.40568C24.945 9.74078 24.5266 11.7688 24.3731 11.9738C24.3259 12.1821 23.9863 13.0961 23.8311 13.3198C23.801 13.3632 23.8115 13.3495 23.7795 13.3789C23.7698 13.5037 23.532 13.9422 23.4577 13.9972C23.4188 14.1356 23.3731 14.1581 23.3193 14.2962L24.2057 14.8239C24.2507 14.7365 24.6244 14.0295 24.7143 13.9517C24.7178 13.9116 25.2081 12.7465 25.2397 12.707C25.2792 12.545 25.4284 12.0071 25.5204 11.9079C25.511 11.7603 25.5959 11.4972 25.6476 11.3626L25.8973 9.98468L25.9664 9.31244L26.0001 8.64022L26 7.96798L25.9642 7.29574L25.8932 6.62353L25.6405 5.24561C25.5825 5.12423 25.4878 4.75511 25.4892 4.62555C25.4033 4.54113 25.2673 4.06025 25.2279 3.90704C25.2031 3.87679 24.6855 2.65993 24.6815 2.62175C24.5907 2.5443 24.2452 1.89473 24.2008 1.80331L23.3197 2.35746L23.4393 2.58416L23.4393 2.58415Z" fill="#007ABE"/>
<path fill-rule="evenodd" clip-rule="evenodd" d="M3.57992 4.00433C3.57446 4.08232 3.38401 4.52392 3.33189 4.58516L2.91585 5.8433C2.91301 5.85276 2.88924 5.92019 2.88818 5.9227C2.84712 6.02009 2.87322 5.96094 2.84564 6.0009C2.87052 6.17103 2.7777 6.45864 2.73872 6.62922C2.54846 7.94231 2.58701 8.72591 2.74609 10.0181C2.79475 10.1782 2.86486 10.4194 2.84459 10.5765C2.87547 10.6193 2.84456 10.5528 2.8871 10.6533C2.90341 10.6918 2.91146 10.7223 2.92171 10.7598C3.04565 11.2116 3.27486 11.8012 3.32814 12.012C3.38994 12.0989 3.57056 12.5122 3.57809 12.61C3.67673 12.6965 3.9448 13.271 4.06296 13.4243L4.9364 12.9169L4.82478 12.6739C4.75127 12.5882 4.52227 12.1613 4.5146 12.0291C4.3314 11.8562 4.00787 10.8134 3.96927 10.6235L3.80907 9.99149L3.69715 9.27901L3.64361 8.64022L3.64414 7.96798L3.69436 7.3292C3.70745 7.13441 3.74084 6.65532 3.84119 6.53307C3.82777 6.35641 3.9048 6.12387 3.95745 5.96308L4.46251 4.63391C4.49264 4.58903 4.4803 4.60388 4.51329 4.57319C4.52244 4.44771 4.75416 4.01862 4.83771 3.95752C4.87319 3.8419 4.90059 3.83537 4.93316 3.73024L4.05916 3.20258C3.9345 3.39063 3.67085 3.92407 3.57992 4.00433V4.00433Z" fill="#007ABE"/>
<path fill-rule="evenodd" clip-rule="evenodd" d="M21.8544 3.24046C21.6435 3.37725 21.2831 3.62837 21.0586 3.72215L21.1722 3.96807C21.2866 4.05341 21.7598 5.00479 21.7654 5.2054L21.918 5.54128C22.0257 5.85535 22.1596 6.3417 22.2031 6.65699C22.248 6.81687 22.3148 7.08695 22.2735 7.2484C22.2783 7.25711 22.2826 7.2686 22.2851 7.27595C22.2876 7.28336 22.2931 7.29481 22.296 7.30415C22.3411 7.45155 22.3507 7.83395 22.3562 7.98571L22.3565 8.62255C22.3483 8.83569 22.3759 9.25045 22.2674 9.40319C22.2931 9.62433 22.2018 9.81168 22.1985 10.001C22.1294 10.2467 22.0774 10.4851 22.0121 10.7252C21.9803 10.8417 21.9496 10.9414 21.9087 11.0574C21.8733 11.158 21.838 11.2884 21.7664 11.3729C21.7666 11.5821 21.2937 12.5469 21.175 12.6538L21.061 12.9048C21.2756 13.0688 21.7442 13.2559 21.8694 13.43C21.9463 13.4236 21.9553 13.4009 22.0089 13.3656C22.0815 13.1549 22.2476 12.9063 22.3548 12.6815C22.4641 12.4523 22.5643 12.2111 22.6711 11.9993L22.9174 11.3411C22.9528 11.1968 23.2859 9.87955 23.3009 9.85983C23.2843 9.69468 23.3214 9.5076 23.3501 9.34592C23.4066 8.59247 23.4041 8.01545 23.3516 7.26235C23.3208 7.093 23.2693 6.86223 23.2975 6.69752C23.2362 6.60468 23.2547 6.57877 23.1978 6.30975C23.1717 6.18647 23.1452 6.07669 23.1159 5.95564C23.0584 5.71765 22.9688 5.47594 22.9205 5.24565C22.8632 5.16963 22.7279 4.77993 22.7267 4.68363L22.6196 4.50121C22.4299 4.049 22.0438 3.39335 21.9817 3.22895C21.8877 3.20182 21.9554 3.19434 21.8544 3.24047L21.8544 3.24046Z" fill="#007ABE"/>
</svg>
