<svg width="22" height="18" viewBox="0 0 22 18" fill="none" xmlns="http://www.w3.org/2000/svg">
<path fill-rule="evenodd" clip-rule="evenodd" d="M1.29101 1.30837H20.615L20.6057 16.6919H1.29969L1.29101 1.30837ZM0.0307069 17.4649C0.185718 18.173 1.25424 17.9743 2.02628 17.9743H19.4221C22.2547 17.9743 21.897 18.2899 21.897 15.4563C21.897 14.6748 21.9354 0.819387 21.8824 0.545254C21.743 -0.175746 20.6612 0.0259652 19.8884 0.0259652H2.4926C-0.340363 0.0259652 0.0177257 -0.289804 0.0177257 2.544C0.0177257 4.20588 0.0177257 5.86771 0.0177257 7.52959C0.0177257 8.07106 -0.0297783 17.1885 0.0307471 17.4649H0.0307069Z" fill="#007ABE"/>
<path fill-rule="evenodd" clip-rule="evenodd" d="M10.2703 14.1243L6.43106 14.1278C6.40047 13.2727 6.37728 12.7632 6.79184 12.151C7.45947 11.165 9.09586 11.0188 9.90118 12.1374C10.3208 12.7203 10.296 13.2812 10.2703 14.1243V14.1243ZM7.08277 8.96429C6.95874 8.21279 7.53892 7.58458 8.16636 7.50497C9.86682 7.28919 10.1839 9.78231 8.53622 10.0367C7.77073 10.155 7.18807 9.60234 7.08277 8.96429ZM6.54539 10.6142C6.45738 10.7098 6.30369 10.814 6.21114 10.8903C5.92764 11.1238 5.60444 11.5782 5.43636 11.9413C5.08238 12.7061 5.17095 13.2191 5.1423 14.1252L3.86564 14.1266L3.86355 3.88048L12.8332 3.87256L12.8371 14.1277L11.5591 14.1278C11.5281 13.2482 11.6216 12.7374 11.2828 11.9782C11.0744 11.5113 10.8417 11.2207 10.5115 10.9164L10.157 10.6142C10.4292 10.219 10.6811 10.0363 10.8384 9.39396C11.2132 7.86342 10.106 6.22349 8.37458 6.21509C7.21403 6.20946 6.38098 6.91209 6.01377 7.71737C5.79072 8.20664 5.71978 8.7883 5.85655 9.36856C6.04379 10.163 6.47221 10.4436 6.54531 10.6142L6.54539 10.6142ZM3.08062 2.618C2.58383 2.76204 2.58102 3.07323 2.58126 3.62005L2.5813 14.3086C2.58122 14.8246 2.55723 15.2059 3.0049 15.3697C3.26995 15.4666 10.9872 15.4102 12.1049 15.4102C14.3533 15.4102 14.1198 15.7344 14.1198 12.838V3.69179C14.12 2.39363 13.8099 2.59023 12.1766 2.59023C11.1811 2.59023 3.35001 2.53992 3.08062 2.618Z" fill="#007ABE"/>
<path fill-rule="evenodd" clip-rule="evenodd" d="M17.2558 12.8422C18.0171 12.622 18.3587 13.842 17.5693 14.0688C16.7947 14.2913 16.3395 13.1072 17.2558 12.8422ZM17.0222 11.5688C16.0964 11.7488 15.2689 12.6807 15.5059 13.8441C15.6903 14.7499 16.6145 15.5685 17.7605 15.3406C18.6835 15.157 19.493 14.2473 19.2759 13.0947C19.1044 12.1844 18.2013 11.3394 17.0222 11.5687V11.5688Z" fill="#007ABE"/>
<path fill-rule="evenodd" clip-rule="evenodd" d="M18.4817 5.86416C17.6541 6.14545 18.0814 7.31926 18.8593 7.07865C19.6642 6.82967 19.281 5.59248 18.4817 5.86416Z" fill="#007ABE"/>
<path fill-rule="evenodd" clip-rule="evenodd" d="M15.9081 8.41724C15.0486 8.66554 15.4503 9.86672 16.2344 9.64938C17.0344 9.42761 16.7046 8.18716 15.9081 8.41724Z" fill="#007ABE"/>
<path fill-rule="evenodd" clip-rule="evenodd" d="M18.5225 8.41298C17.6801 8.64459 18.0293 9.85389 18.8219 9.65254C19.1209 9.57658 19.3865 9.27163 19.2895 8.87435C19.2215 8.59572 18.9025 8.30852 18.5226 8.41298H18.5225Z" fill="#007ABE"/>
<path fill-rule="evenodd" clip-rule="evenodd" d="M18.5243 3.28504C17.6847 3.51521 18.0229 4.72684 18.8222 4.52449C19.122 4.44861 19.3869 4.14269 19.2891 3.74541C19.221 3.46867 18.9024 3.18143 18.5243 3.28504Z" fill="#007ABE"/>
<path fill-rule="evenodd" clip-rule="evenodd" d="M15.8889 3.30297C14.9957 3.62203 15.5281 4.76353 16.2617 4.5103C17.0717 4.23062 16.6421 3.03398 15.8889 3.30297Z" fill="#007ABE"/>
<path fill-rule="evenodd" clip-rule="evenodd" d="M15.8525 5.87852C15.0027 6.24341 15.559 7.35609 16.2977 7.06219C17.0826 6.74995 16.5985 5.55825 15.8525 5.87852Z" fill="#007ABE"/>
</svg>
