<svg width="21" height="24" viewBox="0 0 21 24" fill="none" xmlns="http://www.w3.org/2000/svg">
<path d="M19.8226 12.2849C19.613 12.2849 19.4453 12.4526 19.4453 12.6623V22.8741C19.4453 22.9999 19.3428 23.1024 19.217 23.1024H0.978321C0.852537 23.1024 0.750046 22.9999 0.750046 22.8741V0.978321C0.750046 0.852537 0.852537 0.750046 0.978321 0.750046H19.217C19.3428 0.750046 19.4453 0.852537 19.4453 0.978321V11.4277C19.4453 11.6374 19.613 11.8051 19.8226 11.8051C20.0323 11.8051 20.2 11.6374 20.2 11.4277V0.978321C20.2 0.437915 19.7621 0 19.2217 0H0.978321C0.437915 0 0 0.437915 0 0.978321V22.8741C0 23.4145 0.437915 23.8524 0.978321 23.8524H19.217C19.7574 23.8524 20.1953 23.4145 20.1953 22.8741V12.6576C20.2 12.4526 20.0323 12.2849 19.8226 12.2849Z" fill="#007ABE"/>
<path d="M6.46606 21.9051H17.8472C18.0568 21.9051 18.2245 21.7374 18.2245 21.5277V19.4826C18.5926 19.3335 18.8535 18.9748 18.8535 18.5508V16.5942C18.8535 16.1749 18.5926 15.8115 18.2245 15.6625V8.18529C18.5926 8.03621 18.8535 7.67749 18.8535 7.25355V5.29691C18.8535 4.87763 18.5926 4.51425 18.2245 4.36518V2.32468C18.2245 2.11504 18.0568 1.94733 17.8472 1.94733H2.35245C2.14281 1.94733 1.9751 2.11504 1.9751 2.32468V21.5324C1.9751 21.742 2.14281 21.9097 2.35245 21.9097H5.23151C5.44115 21.9097 5.60886 21.742 5.60886 21.5324C5.60886 21.3227 5.44115 21.155 5.23151 21.155H2.7298V2.69737H17.4652V4.36518C17.4605 4.36518 17.4605 4.36984 17.4559 4.36984C17.4465 4.37449 17.4419 4.37449 17.4372 4.37915C17.4186 4.38847 17.3953 4.39779 17.3767 4.4071C17.3673 4.41176 17.358 4.41642 17.3534 4.42108C17.3347 4.4304 17.3161 4.44437 17.2975 4.45835C17.2928 4.46301 17.2882 4.46767 17.2788 4.46767C17.2555 4.4863 17.2322 4.50028 17.209 4.51891C17.2043 4.52357 17.1996 4.52823 17.195 4.53289C17.1763 4.54686 17.1624 4.56084 17.1437 4.57948C17.1391 4.58413 17.1298 4.59345 17.1251 4.59811C17.1111 4.61209 17.0971 4.63072 17.0832 4.6447C17.0785 4.64936 17.0739 4.65401 17.0692 4.66333C17.0506 4.68663 17.0319 4.70992 17.0179 4.73321C17.0133 4.73787 17.0133 4.74253 17.0086 4.74719C16.9947 4.76582 16.9807 4.78912 16.9714 4.80775C16.9667 4.81707 16.962 4.82173 16.9574 4.83104C16.9481 4.84968 16.9388 4.86831 16.9294 4.89161C16.9248 4.90092 16.9248 4.90558 16.9201 4.9149C16.9108 4.94285 16.8968 4.9708 16.8875 4.99876C16.8875 5.00341 16.8875 5.00341 16.8828 5.00807C16.8735 5.03137 16.8689 5.05932 16.8642 5.08727C16.8642 5.09659 16.8596 5.10591 16.8596 5.11522C16.8549 5.13852 16.8502 5.15715 16.8502 5.18044C16.8502 5.18976 16.8502 5.19908 16.8456 5.2084C16.8409 5.24101 16.8409 5.26896 16.8409 5.30157V7.25821C16.8409 7.29082 16.8409 7.31877 16.8456 7.35138C16.8456 7.3607 16.8456 7.37002 16.8502 7.37934C16.8549 7.40263 16.8549 7.42126 16.8596 7.44456C16.8596 7.45388 16.8642 7.46319 16.8642 7.47251C16.8689 7.50046 16.8782 7.52376 16.8828 7.55171C16.8828 7.55637 16.8828 7.55637 16.8875 7.56102C16.8968 7.58898 16.9061 7.61693 16.9201 7.64488C16.9248 7.6542 16.9248 7.65886 16.9294 7.66817C16.9388 7.68681 16.9481 7.70544 16.9574 7.72874C16.962 7.73805 16.9667 7.74737 16.9714 7.75203C16.9853 7.77532 16.9947 7.79396 17.0086 7.81259C17.0133 7.81725 17.0133 7.82191 17.0179 7.82657C17.0366 7.84986 17.0506 7.87316 17.0692 7.89645C17.0739 7.90111 17.0785 7.90577 17.0832 7.91508C17.0971 7.93372 17.1111 7.94769 17.1251 7.96167C17.1298 7.96633 17.1391 7.97565 17.1437 7.98031C17.1624 7.99428 17.1763 8.01292 17.195 8.02689C17.1996 8.03155 17.2043 8.03621 17.209 8.04087C17.2322 8.0595 17.2555 8.07814 17.2788 8.09211C17.2835 8.09677 17.2882 8.10143 17.2975 8.10143C17.3161 8.11541 17.3347 8.12472 17.3534 8.1387C17.3627 8.14336 17.3673 8.14802 17.3767 8.15268C17.3953 8.16199 17.4186 8.17131 17.4372 8.18063C17.4419 8.18529 17.4512 8.18529 17.4559 8.18995C17.4605 8.18995 17.4605 8.1946 17.4652 8.1946V15.6718C17.4605 15.6718 17.4605 15.6764 17.4559 15.6764C17.4465 15.6811 17.4419 15.6811 17.4372 15.6857C17.4186 15.6951 17.3953 15.7044 17.3767 15.7137C17.3673 15.7184 17.358 15.723 17.3534 15.7277C17.3347 15.737 17.3161 15.751 17.2975 15.7649C17.2928 15.7696 17.2882 15.7743 17.2788 15.7743C17.2555 15.7929 17.2322 15.8069 17.209 15.8255C17.2043 15.8302 17.1996 15.8348 17.195 15.8395C17.1763 15.8535 17.1624 15.8674 17.1437 15.8861C17.1391 15.8907 17.1298 15.9 17.1251 15.9047C17.1111 15.9187 17.0971 15.9373 17.0832 15.9513C17.0785 15.9559 17.0739 15.9606 17.0692 15.9699C17.0506 15.9932 17.0319 16.0165 17.0179 16.0398C17.0133 16.0445 17.0133 16.0491 17.0086 16.0538C16.9947 16.0724 16.9807 16.0957 16.9714 16.1143C16.9667 16.1237 16.962 16.1283 16.9574 16.1376C16.9481 16.1563 16.9388 16.1749 16.9294 16.1982C16.9248 16.2075 16.9248 16.2122 16.9201 16.2215C16.9108 16.2494 16.8968 16.2774 16.8875 16.3054C16.8875 16.31 16.8875 16.31 16.8828 16.3147C16.8735 16.338 16.8689 16.3659 16.8642 16.3939C16.8642 16.4032 16.8596 16.4125 16.8596 16.4218C16.8549 16.4451 16.8502 16.4637 16.8502 16.487C16.8502 16.4964 16.8502 16.5057 16.8456 16.515C16.8409 16.5476 16.8409 16.5756 16.8409 16.6082V18.5648C16.8409 18.5974 16.8409 18.6254 16.8456 18.658C16.8456 18.6673 16.8456 18.6766 16.8502 18.6859C16.8549 18.7092 16.8549 18.7279 16.8596 18.7512C16.8596 18.7605 16.8642 18.7698 16.8642 18.7791C16.8689 18.8071 16.8782 18.8303 16.8828 18.8583C16.8828 18.863 16.8828 18.863 16.8875 18.8676C16.8968 18.8956 16.9061 18.9235 16.9201 18.9515C16.9248 18.9608 16.9248 18.9655 16.9294 18.9748C16.9388 18.9934 16.9481 19.012 16.9574 19.0353C16.962 19.0446 16.9667 19.0493 16.9714 19.0586C16.9853 19.0819 16.9947 19.1006 17.0086 19.1192C17.0133 19.1238 17.0133 19.1285 17.0179 19.1332C17.0366 19.1565 17.0506 19.1798 17.0692 19.203C17.0739 19.2077 17.0785 19.2124 17.0832 19.2217C17.0971 19.2403 17.1111 19.2543 17.1251 19.2683C17.1298 19.2729 17.1391 19.2822 17.1437 19.2869C17.1624 19.3009 17.1763 19.3195 17.195 19.3335C17.1996 19.3381 17.2043 19.3428 17.209 19.3475C17.2322 19.3661 17.2555 19.3847 17.2788 19.3987C17.2835 19.4034 17.2882 19.408 17.2975 19.408C17.3161 19.422 17.3347 19.4313 17.3534 19.4453C17.3627 19.45 17.3673 19.4546 17.3767 19.4593C17.3953 19.4686 17.4186 19.4779 17.4372 19.4872C17.4419 19.4919 17.4512 19.4919 17.4559 19.4965C17.4605 19.4965 17.4605 19.5012 17.4652 19.5012V21.169H6.46606C6.25642 21.169 6.0887 21.3367 6.0887 21.5464C6.0887 21.756 6.25642 21.9051 6.46606 21.9051ZM17.5956 5.29691C17.5956 5.15715 17.7074 5.04534 17.8472 5.04534C17.9869 5.04534 18.0988 5.15715 18.0988 5.29691V7.25355C18.0988 7.39331 17.9869 7.50512 17.8472 7.50512C17.7074 7.50512 17.5956 7.39331 17.5956 7.25355V5.29691ZM17.5956 16.5942C17.5956 16.4544 17.7074 16.3426 17.8472 16.3426C17.9869 16.3426 18.0988 16.4544 18.0988 16.5942V18.5508C18.0988 18.6906 17.9869 18.8024 17.8472 18.8024C17.7074 18.8024 17.5956 18.6906 17.5956 18.5508V16.5942Z" fill="#007ABE"/>
<path d="M13.5845 15.6066H6.61514C6.4055 15.6066 6.23779 15.7743 6.23779 15.9839C6.23779 16.1936 6.4055 16.3613 6.61514 16.3613H13.5845C13.7942 16.3613 13.9619 16.1936 13.9619 15.9839C13.9619 15.7743 13.7942 15.6066 13.5845 15.6066Z" fill="#007ABE"/>
<path d="M13.5845 17.1998H6.61514C6.4055 17.1998 6.23779 17.3675 6.23779 17.5771C6.23779 17.7868 6.4055 17.9545 6.61514 17.9545H13.5845C13.7942 17.9545 13.9619 17.7868 13.9619 17.5771C13.9619 17.3675 13.7942 17.1998 13.5845 17.1998Z" fill="#007ABE"/>
<path d="M13.5845 18.7931H6.61514C6.4055 18.7931 6.23779 18.9608 6.23779 19.1704C6.23779 19.3801 6.4055 19.5478 6.61514 19.5478H13.5845C13.7942 19.5478 13.9619 19.3801 13.9619 19.1704C13.9619 18.9608 13.7942 18.7931 13.5845 18.7931Z" fill="#007ABE"/>
<path d="M14.8007 13.2586C15.0104 13.2586 15.1781 13.0909 15.1781 12.8813C15.1781 12.8021 15.1548 12.7275 15.1128 12.6716L10.4262 4.63074C10.361 4.51428 10.2352 4.4444 10.1001 4.4444C9.96501 4.4444 9.84389 4.51428 9.77401 4.63074L5.07341 12.6902C5.00353 12.8067 5.00353 12.9511 5.07341 13.0676C5.13863 13.1841 5.26441 13.2586 5.39951 13.2586H14.8007ZM6.05639 12.5039L10.1001 5.56714L14.1438 12.5039H6.05639Z" fill="#007ABE"/>
<path d="M9.64325 8.39033L9.03762 9.94633C8.99103 10.0628 9.00501 10.1932 9.07955 10.2957C9.14943 10.3982 9.26589 10.4588 9.39168 10.4588H9.96935L9.65256 11.1855C9.56871 11.3765 9.65722 11.6002 9.84823 11.6794C9.89947 11.7026 9.94606 11.712 9.9973 11.712C10.1417 11.712 10.2815 11.6281 10.342 11.4837L10.8871 10.2305C10.9384 10.114 10.9244 9.97894 10.8592 9.87179C10.7939 9.76464 10.6728 9.69942 10.5424 9.69942H9.93674L10.342 8.65588C10.4166 8.46021 10.3234 8.24591 10.1277 8.16672C9.9414 8.10149 9.72244 8.19467 9.64325 8.39033Z" fill="#007ABE"/>
<path d="M4.49568 16.4219C3.85744 16.4219 3.34033 16.939 3.34033 17.5772C3.34033 18.2155 3.85744 18.7279 4.49568 18.7279C5.13392 18.7279 5.65103 18.2108 5.65103 17.5726C5.65103 16.9343 5.13392 16.4219 4.49568 16.4219ZM4.49568 17.9779C4.27207 17.9779 4.09504 17.7962 4.09504 17.5772C4.09504 17.3536 4.27672 17.1766 4.49568 17.1766C4.7193 17.1766 4.89633 17.3583 4.89633 17.5772C4.89633 17.7962 4.7193 17.9779 4.49568 17.9779Z" fill="#007ABE"/>
</svg>
