<svg width="18" height="17" viewBox="0 0 18 17" fill="none" xmlns="http://www.w3.org/2000/svg">
<path fill-rule="evenodd" clip-rule="evenodd" d="M8.625 0C3.93068 0 0.125 3.80568 0.125 8.5C0.125 13.1943 3.93068 17 8.625 17C13.3193 17 17.125 13.1943 17.125 8.5C17.125 3.80568 13.3193 0 8.625 0ZM5.53409 7.72727C5.32915 7.72727 5.1326 7.80868 4.98769 7.9536C4.84278 8.09851 4.76136 8.29506 4.76136 8.5C4.76136 8.70494 4.84278 8.90149 4.98769 9.0464C5.1326 9.19131 5.32915 9.27273 5.53409 9.27273H11.7159C11.9208 9.27273 12.1174 9.19131 12.2623 9.0464C12.4072 8.90149 12.4886 8.70494 12.4886 8.5C12.4886 8.29506 12.4072 8.09851 12.2623 7.9536C12.1174 7.80868 11.9208 7.72727 11.7159 7.72727H5.53409Z" fill="#EBEBEB"/>
</svg>
