<svg width="17" height="17" viewBox="0 0 17 17" fill="none" xmlns="http://www.w3.org/2000/svg">
<path fill-rule="evenodd" clip-rule="evenodd" d="M8.5 0C3.80568 0 0 3.80568 0 8.5C0 13.1943 3.80568 17 8.5 17C13.1943 17 17 13.1943 17 8.5C17 3.80568 13.1943 0 8.5 0ZM5.40909 7.72727C5.20415 7.72727 5.0076 7.80868 4.86269 7.9536C4.71778 8.09851 4.63636 8.29506 4.63636 8.5C4.63636 8.70494 4.71778 8.90149 4.86269 9.0464C5.0076 9.19131 5.20415 9.27273 5.40909 9.27273H11.5909C11.7958 9.27273 11.9924 9.19131 12.1373 9.0464C12.2822 8.90149 12.3636 8.70494 12.3636 8.5C12.3636 8.29506 12.2822 8.09851 12.1373 7.9536C11.9924 7.80868 11.7958 7.72727 11.5909 7.72727H5.40909Z" fill="#007ABE"/>
</svg>
