<svg width="18" height="18" viewBox="0 0 18 18" fill="none" xmlns="http://www.w3.org/2000/svg">
<path d="M0.125 8.6686C0.125 7.53023 0.34922 6.403 0.784858 5.35127C1.2205 4.29955 1.85902 3.34393 2.66398 2.53898C3.46893 1.73402 4.42455 1.0955 5.47627 0.659858C6.528 0.22422 7.65523 0 8.7936 0C9.93198 0 11.0592 0.22422 12.1109 0.659858C13.1627 1.0955 14.1183 1.73402 14.9232 2.53898C15.7282 3.34393 16.3667 4.29955 16.8024 5.35127C17.238 6.403 17.4622 7.53023 17.4622 8.6686C17.4622 10.9677 16.5489 13.1726 14.9232 14.7982C13.2976 16.4239 11.0927 17.3372 8.7936 17.3372C6.49455 17.3372 4.28965 16.4239 2.66398 14.7982C1.0383 13.1726 0.125 10.9677 0.125 8.6686ZM8.7936 4.3343C8.60202 4.3343 8.41828 4.41041 8.2828 4.54588C8.14733 4.68136 8.07122 4.8651 8.07122 5.05669V7.94622H5.18169C4.9901 7.94622 4.80636 8.02233 4.67088 8.1578C4.53541 8.29328 4.4593 8.47702 4.4593 8.6686C4.4593 8.86019 4.53541 9.04393 4.67088 9.17941C4.80636 9.31488 4.9901 9.39099 5.18169 9.39099H8.07122V12.2805C8.07122 12.4721 8.14733 12.6559 8.2828 12.7913C8.41828 12.9268 8.60202 13.0029 8.7936 13.0029C8.98519 13.0029 9.16893 12.9268 9.30441 12.7913C9.43988 12.6559 9.51599 12.4721 9.51599 12.2805V9.39099H12.4055C12.5971 9.39099 12.7809 9.31488 12.9163 9.17941C13.0518 9.04393 13.1279 8.86019 13.1279 8.6686C13.1279 8.47702 13.0518 8.29328 12.9163 8.1578C12.7809 8.02233 12.5971 7.94622 12.4055 7.94622H9.51599V5.05669C9.51599 4.8651 9.43988 4.68136 9.30441 4.54588C9.16893 4.41041 8.98519 4.3343 8.7936 4.3343Z" fill="#EBEBEB"/>
</svg>
