<svg width="18" height="18" viewBox="0 0 18 18" fill="none" xmlns="http://www.w3.org/2000/svg">
<path d="M0 8.6686C-1.69631e-08 7.53023 0.22422 6.403 0.659858 5.35127C1.0955 4.29955 1.73402 3.34393 2.53898 2.53898C3.34393 1.73402 4.29955 1.0955 5.35127 0.659858C6.403 0.22422 7.53023 0 8.6686 0C9.80698 0 10.9342 0.22422 11.9859 0.659858C13.0377 1.0955 13.9933 1.73402 14.7982 2.53898C15.6032 3.34393 16.2417 4.29955 16.6774 5.35127C17.113 6.403 17.3372 7.53023 17.3372 8.6686C17.3372 10.9677 16.4239 13.1726 14.7982 14.7982C13.1726 16.4239 10.9677 17.3372 8.6686 17.3372C6.36955 17.3372 4.16465 16.4239 2.53898 14.7982C0.913297 13.1726 3.42586e-08 10.9677 0 8.6686ZM8.6686 4.3343C8.47702 4.3343 8.29328 4.41041 8.1578 4.54588C8.02233 4.68136 7.94622 4.8651 7.94622 5.05669V7.94622H5.05669C4.8651 7.94622 4.68136 8.02233 4.54588 8.1578C4.41041 8.29328 4.3343 8.47702 4.3343 8.6686C4.3343 8.86019 4.41041 9.04393 4.54588 9.17941C4.68136 9.31488 4.8651 9.39099 5.05669 9.39099H7.94622V12.2805C7.94622 12.4721 8.02233 12.6559 8.1578 12.7913C8.29328 12.9268 8.47702 13.0029 8.6686 13.0029C8.86019 13.0029 9.04393 12.9268 9.17941 12.7913C9.31488 12.6559 9.39099 12.4721 9.39099 12.2805V9.39099H12.2805C12.4721 9.39099 12.6559 9.31488 12.7913 9.17941C12.9268 9.04393 13.0029 8.86019 13.0029 8.6686C13.0029 8.47702 12.9268 8.29328 12.7913 8.1578C12.6559 8.02233 12.4721 7.94622 12.2805 7.94622H9.39099V5.05669C9.39099 4.8651 9.31488 4.68136 9.17941 4.54588C9.04393 4.41041 8.86019 4.3343 8.6686 4.3343Z" fill="#007ABE"/>
</svg>
