<svg width="31" height="31" viewBox="0 0 31 31" fill="none" xmlns="http://www.w3.org/2000/svg">
<path fill-rule="evenodd" clip-rule="evenodd" d="M15.5063 0.849609C11.5357 0.849609 11.0374 0.866971 9.47787 0.937941C7.92141 1.00921 6.859 1.25563 5.92939 1.61718C4.9678 1.99061 4.15211 2.49013 3.33946 3.30309C2.5262 4.11573 2.02668 4.93143 1.65203 5.89271C1.28957 6.82263 1.04285 7.88534 0.972792 9.44119C0.903041 11.0007 0.884766 11.4993 0.884766 15.47C0.884766 19.4406 0.902432 19.9374 0.973097 21.4969C1.04468 23.0533 1.29109 24.1157 1.65233 25.0454C2.02607 26.007 2.52559 26.8226 3.33855 27.6353C4.15089 28.4485 4.96658 28.9493 5.92757 29.3227C6.85778 29.6843 7.9205 29.9307 9.47665 30.002C11.0362 30.0729 11.5342 30.0903 15.5045 30.0903C19.4754 30.0903 19.9722 30.0729 21.5317 30.002C23.0882 29.9307 24.1518 29.6843 25.082 29.3227C26.0433 28.9493 26.8578 28.4485 27.6701 27.6353C28.4834 26.8226 28.9829 26.007 29.3576 25.0457C29.717 24.1157 29.9637 23.053 30.0368 21.4972C30.1069 19.9377 30.1251 19.4406 30.1251 15.47C30.1251 11.4993 30.1069 11.001 30.0368 9.4415C29.9637 7.88504 29.717 6.82263 29.3576 5.89302C28.9829 4.93143 28.4834 4.11573 27.6701 3.30309C26.8569 2.48983 26.0436 1.9903 25.0811 1.61718C24.1491 1.25563 23.0861 1.00921 21.5296 0.937941C19.9701 0.866971 19.4736 0.849609 15.5018 0.849609H15.5063ZM14.1946 3.48419C14.4493 3.48379 14.7232 3.48392 15.0189 3.48405L15.5062 3.48419C19.4098 3.48419 19.8725 3.4982 21.414 3.56826C22.8395 3.63344 23.6132 3.87163 24.1285 4.07175C24.8108 4.33674 25.2972 4.65351 25.8086 5.16523C26.3204 5.67694 26.6371 6.16428 26.9027 6.84656C27.1028 7.36132 27.3413 8.13498 27.4062 9.56046C27.4763 11.1017 27.4915 11.5647 27.4915 15.4665C27.4915 19.3683 27.4763 19.8312 27.4062 21.3725C27.341 22.798 27.1028 23.5716 26.9027 24.0864C26.6377 24.7687 26.3204 25.2545 25.8086 25.7659C25.2969 26.2776 24.8111 26.5944 24.1285 26.8594C23.6138 27.0604 22.8395 27.298 21.414 27.3632C19.8728 27.4332 19.4098 27.4484 15.5062 27.4484C11.6022 27.4484 11.1396 27.4332 9.59834 27.3632C8.17286 27.2974 7.3992 27.0592 6.88353 26.8591C6.20125 26.5941 5.7139 26.2773 5.20219 25.7656C4.69048 25.2539 4.37371 24.7677 4.1081 24.0852C3.90799 23.5704 3.66949 22.7967 3.60461 21.3713C3.53456 19.83 3.52055 19.3671 3.52055 15.4628C3.52055 11.5586 3.53456 11.098 3.60461 9.55681C3.6698 8.13133 3.90799 7.35767 4.1081 6.8423C4.3731 6.16002 4.69048 5.67267 5.20219 5.16096C5.7139 4.64925 6.20125 4.33248 6.88353 4.06687C7.3989 3.86584 8.17286 3.62826 9.59834 3.56278C10.9471 3.50186 11.4697 3.48358 14.1946 3.48054V3.48419ZM21.5562 7.6657C21.5562 6.6968 22.3421 5.91187 23.3107 5.91187V5.91126C24.2793 5.91126 25.0651 6.6971 25.0651 7.6657C25.0651 8.63429 24.2793 9.42014 23.3107 9.42014C22.3421 9.42014 21.5562 8.63429 21.5562 7.6657ZM15.506 7.96171C11.3597 7.96187 7.99813 11.3236 7.99813 15.4699C7.99813 19.6162 11.3599 22.9765 15.5063 22.9765C19.6527 22.9765 23.0132 19.6162 23.0132 15.4699C23.0132 11.3235 19.6524 7.96171 15.506 7.96171ZM20.3796 15.4697C20.3796 12.778 18.1975 10.5962 15.5062 10.5962C12.8145 10.5962 10.6327 12.778 10.6327 15.4697C10.6327 18.1611 12.8145 20.3431 15.5062 20.3431C18.1975 20.3431 20.3796 18.1611 20.3796 15.4697Z" fill="white"/>
</svg>
