<svg width="29" height="30" viewBox="0 0 29 30" fill="none" xmlns="http://www.w3.org/2000/svg">
<path fill-rule="evenodd" clip-rule="evenodd" d="M0.0273438 15.0983C0.0273438 7.28287 6.40361 0.924561 14.2412 0.924561C22.0788 0.924561 28.4552 7.28287 28.4552 15.0983C28.4552 16.2055 28.3628 17.1018 28.1557 18.0014L28.1527 18.0164C28.1522 18.019 28.0495 18.4337 27.9927 18.6147C27.6414 19.735 27.0054 20.6682 26.1533 21.3131C25.327 21.9387 24.3024 22.2833 23.2684 22.2833C23.1407 22.2833 23.012 22.2782 22.886 22.2681C21.4177 22.1505 20.1266 21.38 19.335 20.1514C17.9733 21.5167 16.1668 22.2678 14.2412 22.2678C10.2768 22.2678 7.05156 19.0516 7.05156 15.0983C7.05156 11.1451 10.2768 7.92899 14.2412 7.92899C18.2056 7.92899 21.4309 11.1451 21.4309 15.0983V17.4094C21.4368 18.7579 22.3443 19.3091 23.1195 19.3715C23.8909 19.4308 24.9174 18.9828 25.275 17.5206C25.4514 16.7186 25.541 15.9034 25.541 15.0983C25.541 8.88515 20.4719 3.83045 14.2412 3.83045C8.01051 3.83045 2.94153 8.88515 2.94153 15.0983C2.94153 21.3114 8.01051 26.3662 14.2412 26.3662C16.4101 26.3662 18.5194 25.7485 20.3412 24.5799L20.3738 24.5589L22.2887 26.7789L22.2476 26.807C19.8812 28.4197 17.1126 29.2722 14.2412 29.2722C6.40361 29.2722 0.0273438 22.9138 0.0273438 15.0983ZM14.2412 19.3618C16.5986 19.3618 18.5166 17.4492 18.5166 15.0983C18.5166 12.7475 16.5986 10.835 14.2412 10.835C11.8836 10.835 9.9657 12.7475 9.9657 15.0983C9.9657 17.4492 11.8836 19.3618 14.2412 19.3618Z" fill="white"/>
</svg>
