<svg width="38" height="22" viewBox="0 0 38 22" fill="none" xmlns="http://www.w3.org/2000/svg">
<path d="M20.5137 21.5027C20.5137 21.5027 21.188 21.4285 21.5334 21.0609C21.8495 20.7242 21.8385 20.0887 21.8385 20.0887C21.8385 20.0887 21.7965 17.1213 23.1872 16.6832C24.5577 16.2523 26.3175 19.5528 28.1851 20.8219C29.5959 21.7815 30.6668 21.5715 30.6668 21.5715L35.6574 21.5027C35.6574 21.5027 38.267 21.3434 37.0298 19.3102C36.9275 19.1436 36.308 17.8057 33.3202 15.0573C30.1898 12.1805 30.6101 12.6458 34.3782 7.66871C36.6735 4.63794 37.5908 2.78762 37.3039 1.99643C37.0316 1.23965 35.3431 1.44061 35.3431 1.44061L29.7257 1.47501C29.7257 1.47501 29.309 1.41889 29.0002 1.60175C28.6987 1.78099 28.5031 2.19921 28.5031 2.19921C28.5031 2.19921 27.615 4.5438 26.429 6.53896C23.9273 10.7465 22.9277 10.9692 22.5183 10.7085C21.5663 10.0984 21.8038 8.26074 21.8038 6.95537C21.8038 2.87633 22.4288 1.17628 20.5886 0.736331C19.9782 0.589681 19.5287 0.493725 17.9663 0.47743C15.9616 0.457515 14.2658 0.484672 13.3045 0.949969C12.6649 1.25956 12.1715 1.95117 12.4731 1.991C12.844 2.03989 13.6846 2.2155 14.1305 2.81659C14.7062 3.59329 14.6861 5.33498 14.6861 5.33498C14.6861 5.33498 15.0168 10.1364 13.9131 10.7321C13.1565 11.1412 12.1185 10.3066 9.88728 6.48827C8.74515 4.53293 7.88261 2.37121 7.88261 2.37121C7.88261 2.37121 7.71631 1.96747 7.41845 1.75021C7.05845 1.48769 6.55591 1.40621 6.55591 1.40621L1.21804 1.44061C1.21804 1.44061 0.415806 1.46234 0.121593 1.80814C-0.139727 2.11412 0.101491 2.7496 0.101491 2.7496C0.101491 2.7496 4.28078 12.4375 9.01378 17.3204C13.3539 21.796 18.2806 21.5027 18.2806 21.5027H20.5137Z" fill="white"/>
</svg>
