<svg width="65" height="65" viewBox="0 0 65 65" fill="none" xmlns="http://www.w3.org/2000/svg">
<path d="M32.0559 12.6854C24.235 12.6854 16.7403 17.0744 13.2597 24.5117C10.9524 29.444 10.7347 34.9659 12.6469 40.0598C14.5589 45.1533 18.373 49.2095 23.385 51.4804C33.7289 56.1682 46.0248 51.6997 50.7898 41.5171C53.0971 36.5845 53.3149 31.0626 51.4029 25.9687C49.4906 20.8752 45.6769 16.819 40.6644 14.5481C37.8753 13.2841 34.9431 12.6854 32.0559 12.6854ZM31.9869 57.3334C28.5327 57.3334 25.0263 56.6181 21.6884 55.1056C15.6923 52.3887 11.1299 47.5366 8.84229 41.4427C6.55474 35.3491 6.81522 28.7434 9.57663 22.8427C15.2764 10.661 29.9841 5.31615 42.361 10.9226C48.3572 13.6396 52.9195 18.492 55.2071 24.5856C57.4947 30.6792 57.2342 37.2849 54.4727 43.1857C50.3105 52.0824 41.3424 57.3334 31.9869 57.3334Z" fill="#007ABE"/>
<path d="M15.0875 24.5986C14.2804 26.1856 13.689 27.9122 13.3593 29.7491C12.5428 34.3041 13.4685 38.7645 15.664 42.4698L29.0366 27.0213L15.0875 24.5986Z" fill="#007ABE"/>
<path d="M31.1616 14.2482C24.593 14.5809 18.6784 18.2524 15.504 23.8234L35.9239 27.3697L31.1616 14.2482Z" fill="#007ABE"/>
<path d="M49.2337 41.4305C50.0408 39.8434 50.6322 38.1169 50.9618 36.28C51.7781 31.7285 50.8541 27.2712 48.6623 23.5674L35.285 39.0077L49.2336 41.4305H49.2337Z" fill="#007ABE"/>
<path d="M48.1952 22.819C45.4144 18.5853 40.9209 15.4573 35.4782 14.5118C34.3277 14.3118 33.1829 14.2184 32.0544 14.2235L39.0181 33.4113L48.1951 22.819H48.1952Z" fill="#007ABE"/>
<path d="M16.131 43.2172C18.9124 47.4465 23.4035 50.5716 28.8428 51.5162C30.0682 51.7291 31.2864 51.8204 32.4858 51.8015L25.3088 32.6146L16.131 43.2171V43.2172Z" fill="#007ABE"/>
<path d="M33.3765 51.7673C39.858 51.3653 45.6769 47.7147 48.816 42.2056L28.4788 38.6733L33.3765 51.7673Z" fill="#007ABE"/>
<path fill-rule="evenodd" clip-rule="evenodd" d="M0 52.425H2.98371V61.9762H12.4322V64.9124H0V52.425Z" fill="#007ABE"/>
<path fill-rule="evenodd" clip-rule="evenodd" d="M0 0H12.4322V2.93625H2.98371V12.4874H0V0Z" fill="#007ABE"/>
<path fill-rule="evenodd" clip-rule="evenodd" d="M64.7385 52.425V64.9124H52.3059V61.9762H61.7548V52.425H64.7385Z" fill="#007ABE"/>
<path fill-rule="evenodd" clip-rule="evenodd" d="M52.3059 0H64.7385V12.4874H61.7548V2.93625H52.3059V0Z" fill="#007ABE"/>
</svg>
